<?xml version="1.0" encoding="UTF-8"?>
<svg width="168px" height="36px" viewBox="0 0 168 36" version="1.1" xmlns="http://www.w3.org/2000/svg" xmlns:xlink="http://www.w3.org/1999/xlink">
    <!-- Generator: Sketch 48.2 (47327) - http://www.bohemiancoding.com/sketch -->
    <title>Logo / Facebook</title>
    <desc>Created with Sketch.</desc>
    <defs></defs>
    <g id="UUNIO-Landing-/-Desktop-HD-(Eng)" stroke="none" stroke-width="1" fill="none" fill-rule="evenodd" transform="translate(-213.000000, -2625.000000)">
        <g id="SNS-banner" transform="translate(0.000000, 2482.000000)" fill="#454BD8">
            <g id="Blue" transform="translate(213.000000, 137.000000)">
                <path d="M134.011021,23.3079219 C131.62616,23.3079219 130.797591,24.6354337 130.797591,26.2865033 L130.797591,32.3148486 C130.797591,33.9714649 131.62616,35.3026745 134.011021,35.3026745 C136.393156,35.3026745 137.236262,33.9714649 137.236262,32.3148486 L137.236262,26.2865033 C137.236262,24.6354337 136.393156,23.3079219 134.011021,23.3079219 Z M167.341839,40.9344304 L159.73118,40.9344304 L153.294326,30.0000232 L153.294326,40.9344304 L146.27057,40.9344304 L146.27057,8.1293599 L153.294326,6.93774248 L153.294326,28.056827 L159.73118,17.6743171 L167.341839,17.6743171 L160.314449,29.0034649 L167.341839,40.9344304 Z M144.25911,31.6233592 C144.25911,36.4831985 142.28399,41.1978989 134.035551,41.1978989 C125.779843,41.1978989 123.771109,36.4831985 123.771109,31.6233592 L123.771109,26.9308456 C123.771109,22.0673086 125.779843,17.3535326 134.035551,17.3535326 C142.28399,17.3535326 144.25911,22.0673086 144.25911,26.9308456 L144.25911,31.6233592 Z M121.766009,31.6233592 C121.766009,36.4831985 119.793615,41.1978989 111.543359,41.1978989 C103.288559,41.1978989 101.279825,36.4831985 101.279825,31.6233592 L101.279825,26.9308456 C101.279825,22.0673086 103.288559,17.3535326 111.543359,17.3535326 C119.793615,17.3535326 121.766009,22.0673086 121.766009,26.9308456 L121.766009,31.6233592 Z M99.2574629,31.5004073 C99.2574629,37.1349365 97.6748237,41.2441215 88.0881365,41.2441215 C84.626681,41.2441215 82.5952336,40.9344304 78.7749134,40.3363105 L78.7749134,8.13028435 L85.7959443,6.93866693 L85.7959443,18.2040276 C87.3140787,17.6299435 89.2773872,17.3387414 91.0644431,17.3387414 C98.0863825,17.3387414 99.2574629,20.5428888 99.2574629,25.6902323 L99.2574629,31.5004073 Z M76.4254845,31.3903976 L63.5445093,31.3903976 L63.5445093,31.8711121 C63.5445093,34.5908472 64.4966367,35.30175 67.6446532,35.30175 C70.4737798,35.30175 72.2008735,35.1584601 75.8376731,34.5215133 L75.8376731,40.3353861 C72.3298831,41.0638535 70.5028524,41.2542904 67.0622929,41.2542904 C59.5206808,41.2542904 56.5216613,37.219986 56.5216613,31.3903976 L56.5216613,26.6156078 C56.5216613,21.5154113 58.7466231,17.337817 66.4744814,17.337817 C74.2023398,17.337817 76.4254845,21.4673399 76.4254845,26.6156078 L76.4254845,31.3903976 Z M54.444788,24.072443 C50.8016288,23.4373451 49.755924,23.2968285 48.0024833,23.2968285 C44.8544667,23.2968285 43.9032479,24.0040336 43.9032479,26.7237686 L43.9032479,31.8711121 C43.9032479,34.5908472 44.8544667,35.30175 48.0024833,35.30175 C49.755924,35.30175 50.8016288,35.1584601 54.444788,34.5215133 L54.444788,40.3353861 C51.254071,41.0638535 49.1753807,41.2542904 47.4183059,41.2542904 C39.8776024,41.2542904 36.8794914,37.219986 36.8794914,31.3903976 L36.8794914,27.2146521 C36.8794914,21.3804415 39.8776024,17.337817 47.4183059,17.337817 C49.1753807,17.337817 51.254071,17.5301028 54.444788,18.2613436 L54.444788,24.072443 Z M34.5382392,40.978804 L28.683746,40.978804 L28.4311779,39.4728732 C25.7583164,40.978804 23.3725469,41.2237835 21.7989928,41.2237835 C17.5053344,41.2237835 15.2204104,38.306216 15.2204104,34.2691382 C15.2204104,29.5082152 17.8869122,27.8081497 22.6575428,27.8081497 L27.5126657,27.8081497 L27.5126657,26.7792357 C27.5126657,24.3488538 27.2382931,23.6351776 23.5651528,23.6351776 L17.558937,23.6351776 L18.1467485,17.6743171 L24.7107946,17.6743171 C32.7702622,17.6743171 34.5382392,20.2655535 34.5382392,26.8282316 L34.5382392,40.978804 Z M10.5333635,40.9344304 L3.50869844,40.9344304 L3.50869844,23.6351776 L0,23.6351776 L0,17.6743171 L3.50960696,17.6743171 L3.50960696,14.0948426 C3.50960696,9.23038112 5.4910858,6.33962264 11.1211749,6.33962264 L15.8082219,6.33962264 L15.8082219,12.302332 L12.8782497,12.302332 C10.6859946,12.302332 10.5424486,13.1352624 10.5424486,14.6901891 L10.5333635,17.6733927 L15.84002,17.6733927 L15.2195019,23.6351776 L10.5333635,23.6351776 L10.5333635,40.9344304 Z M111.519737,23.3079219 C109.130333,23.3079219 108.302673,24.6354337 108.302673,26.2865033 L108.302673,32.3148486 C108.302673,33.9714649 109.130333,35.3026745 111.519737,35.3026745 C113.902781,35.3026745 114.736801,33.9714649 114.736801,32.3148486 L114.736801,26.2865033 C114.736801,24.6354337 113.901873,23.3079219 111.519737,23.3079219 Z M22.2432584,34.1748442 C22.2432584,35.4801691 22.8483317,36.1577917 24.1838539,36.1577917 C25.6174961,36.1577917 26.4660523,35.6835483 27.5126657,35.1935893 L27.5126657,32.5801661 L24.3782768,32.5801661 C22.8946661,32.5801661 22.2432584,32.8621237 22.2432584,34.1748442 Z M66.4753899,22.7070287 C64.0905289,22.7070287 63.5454178,24.0391627 63.5454178,25.6893079 L63.5454178,26.6165323 L69.401728,26.6165323 L69.401728,25.6893079 C69.401728,24.0391627 68.8575254,22.7070287 66.4753899,22.7070287 Z M89.3082768,23.3079219 C87.8764517,23.3079219 86.8434661,23.7858631 85.7968528,24.2730488 L85.7968528,35.2906566 C86.7998572,35.387724 87.3740409,35.387724 88.3261683,35.387724 C91.7640023,35.387724 92.2355234,33.7856503 92.2355234,31.5484787 L92.2355234,26.2865033 C92.2355234,24.6354337 91.6967719,23.3079219 89.3082768,23.3079219 Z" id="Logo-/-Facebook"></path>
            </g>
        </g>
    </g>
</svg>