<?xml version="1.0" encoding="UTF-8" standalone="no"?><!DOCTYPE svg PUBLIC "-//W3C//DTD SVG 1.1//EN" "http://www.w3.org/Graphics/SVG/1.1/DTD/svg11.dtd"><svg width="100%" height="100%" viewBox="0 0 595 169" version="1.1" xmlns="http://www.w3.org/2000/svg" xmlns:xlink="http://www.w3.org/1999/xlink" xml:space="preserve" xmlns:serif="http://www.serif.com/" style="fill-rule:evenodd;clip-rule:evenodd;stroke-linejoin:round;stroke-miterlimit:1.41421;"><path d="M120.289,73.061l-48.307,0c-1.246,0 -2.258,1.012 -2.258,2.258l0,23.619c0,1.246 1.012,2.26 2.258,2.26l18.845,0l0,29.344c0,0 -4.232,1.442 -15.931,1.442c-13.801,0 -33.081,-5.042 -33.081,-47.44c0,-42.405 20.077,-47.984 38.925,-47.984c16.314,0 23.343,2.872 27.815,4.256c1.406,0.429 2.706,-0.969 2.706,-2.215l5.389,-22.82c0,-0.584 -0.197,-1.287 -0.861,-1.764c-1.817,-1.296 -12.898,-7.497 -40.893,-7.497c-32.248,0 -65.329,13.722 -65.329,79.678c0,65.958 37.874,75.786 69.79,75.786c26.426,0 42.457,-11.292 42.457,-11.292c0.66,-0.364 0.732,-1.288 0.732,-1.711l0,-73.662c0,-1.246 -1.01,-2.258 -2.257,-2.258" style="fill:#484dd8;fill-rule:nonzero;"/><path d="M369.245,14.424c0,-1.257 -0.996,-2.272 -2.242,-2.272l-27.2,0c-1.243,0 -2.252,1.015 -2.252,2.272c0,0.006 0.006,52.565 0.006,52.565l-42.397,0l0,-52.565c0,-1.257 -1,-2.272 -2.245,-2.272l-27.199,0c-1.236,0 -2.245,1.015 -2.245,2.272l0,142.331c0,1.255 1.009,2.276 2.245,2.276l27.199,0c1.245,0 2.245,-1.021 2.245,-2.276l0,-60.881l42.397,0c0,0 -0.073,60.876 -0.073,60.881c0,1.255 1.007,2.276 2.254,2.276l27.263,0c1.245,0 2.241,-1.021 2.244,-2.276l0,-142.331Z" style="fill:#484dd8;fill-rule:nonzero;"/><path d="M171.617,33.101c0,-9.794 -7.853,-17.708 -17.541,-17.708c-9.678,0 -17.535,7.914 -17.535,17.708c0,9.783 7.857,17.721 17.535,17.721c9.688,0 17.541,-7.938 17.541,-17.721" style="fill:#484dd8;fill-rule:nonzero;"/><path d="M169.672,126.731l0,-65.701c0,-1.247 -1.006,-2.267 -2.251,-2.267l-27.113,0c-1.245,0 -2.358,1.282 -2.358,2.53l0,94.13c0,2.764 1.724,3.588 3.955,3.588l24.429,0c2.68,0 3.338,-1.317 3.338,-3.633l0,-28.647Z" style="fill:#484dd8;fill-rule:nonzero;"/><path d="M472.617,58.977l-26.991,0c-1.238,0 -2.245,1.02 -2.245,2.276l0,69.789c0,0 -6.859,5.018 -16.591,5.018c-9.733,0 -12.315,-4.417 -12.315,-13.947l0,-60.86c0,-1.256 -1.006,-2.276 -2.244,-2.276l-27.395,0c-1.235,0 -2.249,1.02 -2.249,2.276l0,65.468c0,28.306 15.776,35.231 37.477,35.231c17.806,0 32.16,-9.836 32.16,-9.836c0,0 0.682,5.184 0.993,5.798c0.308,0.613 1.114,1.232 1.986,1.232l17.427,-0.076c1.235,0 2.249,-1.022 2.249,-2.273l-0.01,-95.544c0,-1.256 -1.009,-2.276 -2.252,-2.276" style="fill:#484dd8;fill-rule:nonzero;"/><path d="M535.743,135.973c-9.362,-0.286 -15.713,-4.533 -15.713,-4.533l0,-45.074c0,0 6.265,-3.84 13.951,-4.526c9.72,-0.87 19.086,2.065 19.086,25.253c0,24.449 -4.227,29.276 -17.324,28.88m10.646,-80.193c-15.33,0 -25.757,6.84 -25.757,6.84l0,-48.197c0,-1.256 -1.006,-2.271 -2.244,-2.271l-27.278,0c-1.24,0 -2.247,1.015 -2.247,2.271l0,142.332c0,1.256 1.007,2.277 2.25,2.277l18.926,0c0.852,0 1.497,-0.44 1.974,-1.209c0.471,-0.765 1.149,-6.562 1.149,-6.562c0,0 11.154,10.569 32.268,10.569c24.789,0 39.005,-12.573 39.005,-56.445c0,-43.872 -22.705,-49.605 -38.046,-49.605" style="fill:#484dd8;fill-rule:nonzero;"/><path d="M247.846,58.75l-20.404,0c0,0 -0.03,-26.949 -0.03,-26.955c0,-1.02 -0.525,-1.531 -1.706,-1.531l-27.804,0c-1.08,0 -1.661,0.477 -1.661,1.516l0,27.855c0,0 -13.933,3.362 -14.875,3.635c-0.939,0.272 -1.63,1.137 -1.63,2.169l0,17.504c0,1.258 1.006,2.275 2.249,2.275l14.256,0l0,42.109c0,31.276 21.939,34.349 36.742,34.349c6.766,0 14.858,-2.172 16.194,-2.666c0.807,-0.296 1.278,-1.133 1.278,-2.039l0.023,-19.257c0,-1.256 -1.062,-2.272 -2.256,-2.272c-1.189,0 -4.231,0.483 -7.362,0.483c-10.022,0 -13.418,-4.659 -13.418,-10.69c0,-6.028 -0.002,-40.017 -0.002,-40.017l20.406,0c1.243,0 2.252,-1.017 2.252,-2.275l0,-21.925c0,-1.256 -1.009,-2.268 -2.252,-2.268" style="fill:#484dd8;fill-rule:nonzero;"/></svg>