<?xml version="1.0" encoding="UTF-8"?>
<svg width="163px" height="33px" viewBox="0 0 163 33" version="1.1" xmlns="http://www.w3.org/2000/svg" xmlns:xlink="http://www.w3.org/1999/xlink">
    <!-- Generator: Sketch 48.2 (47327) - http://www.bohemiancoding.com/sketch -->
    <title>Logo / Medium</title>
    <desc>Created with Sketch.</desc>
    <defs></defs>
    <g id="UUNIO-Landing-/-Desktop-HD-(Eng)" stroke="none" stroke-width="1" fill="none" fill-rule="evenodd" transform="translate(-1065.000000, -2627.000000)">
        <g id="SNS-banner" transform="translate(0.000000, 2482.000000)" fill="#454BD8">
            <g id="Blue" transform="translate(213.000000, 137.000000)">
                <path d="M853.538558,9.66611438 L863.720388,9.66611438 C866.509685,15.9254493 869.297418,22.1800127 872.175028,28.6357719 C874.697821,22.2094366 877.154966,15.9524874 879.619144,9.67724774 L889.571203,9.67724774 C888.697448,10.6864074 887.953427,11.6343336 887.11484,12.4844453 C886.503681,13.1039374 886.316894,13.7655771 886.320802,14.6276174 C886.349718,21.879412 886.328617,29.132797 886.356752,36.3845916 C886.358315,36.7845973 886.59512,37.2514033 886.859279,37.5679088 C887.642376,38.5031112 888.494249,39.3786706 889.3047,40.2629776 L875.373849,40.2629776 C876.313253,39.3516324 877.204984,38.538897 878.028721,37.6585662 C878.311637,37.3555797 878.587518,36.8879785 878.589863,36.4935395 C878.632066,30.0449374 878.630503,23.5963354 878.637536,17.1461428 C878.637536,17.0928618 878.610183,17.0387854 878.539063,16.7803324 C875.381664,24.8377052 872.286006,32.7376204 869.110631,40.8419124 C865.654686,33.0064116 862.282365,25.3601779 858.910044,17.7139443 C858.849866,17.7266681 858.790469,17.7378015 858.730291,17.7497301 C858.730291,18.0185212 858.731073,18.2881076 858.730291,18.5568988 C858.713097,23.2289344 858.643541,27.9017653 858.723257,32.5722105 C858.738888,33.5336558 859.143723,34.5960966 859.663443,35.4199653 C860.707573,37.0732695 861.954902,38.5945638 863.195197,40.2749062 L852.669491,40.2749062 C852.784377,40.0776866 855.208697,36.8832071 856.15279,35.3619128 C856.653754,34.5547441 857.049992,33.5225224 857.062496,32.5865248 C857.133616,27.0270012 857.066404,21.4658871 857.075783,15.9055683 C857.077346,14.8486942 856.795212,13.9532538 856.143412,13.1309755 C855.281379,12.0446775 854.472491,10.9146413 853.538558,9.66611438 Z M1005.30434,40.2836538 C1005.30434,36.3472153 1005.3231,32.4807579 1005.29184,28.6158909 C1005.28324,27.4452975 1005.21603,26.261185 1005.02299,25.1104725 C1004.78853,23.7084642 1004.26803,22.3820037 1002.66901,22.0996935 C1001.00903,21.8070451 999.427983,22.8678954 998.674584,23.8563789 C999.26855,25.3760827 998.930146,37.8359048 998.930146,37.8359048 L1001.46701,40.3027396 L992.007314,40.3027396 C992.007314,38.2613582 992.017474,36.2621246 992.004969,34.2644814 C991.989338,31.5153364 991.986212,28.7646008 991.90884,26.0170463 C991.890084,25.317235 991.672817,24.6039046 991.43992,23.9351077 C991.036648,22.7780333 990.219944,22.0726553 988.973397,22.061522 C987.603367,22.0503886 986.533446,22.677833 985.803493,23.8547884 C985.683137,24.0496222 985.698768,24.350223 985.697986,24.6015189 C985.691734,28.7868676 985.719088,38.1667246 985.719088,38.1667246 L988.194989,40.3663588 L978.731388,40.3663588 C978.712631,40.1126772 978.7478,28.2103185 978.70169,22.4774325 C978.697001,21.9175835 978.400799,21.2885486 978.067865,20.8185617 C977.566902,20.1123884 976.913539,19.5167536 976.221881,18.7620707 L985.668288,18.7620707 L985.668288,22.7358856 C987.114127,19.9334594 989.283666,18.3318458 992.429342,18.3501364 C995.700064,18.3684269 997.625765,20.1990696 998.580018,23.4110444 C998.737107,23.1064675 998.841051,22.919586 998.931709,22.7255474 C1000.43069,19.4761964 1003.82333,17.7648396 1007.26287,18.5250892 C1009.77237,19.0793715 1011.62148,21.1485863 1011.96145,24.3756707 C1012.25687,27.1812778 1012.16231,30.0322136 1012.20842,32.8632684 C1012.22952,34.1809812 1012.1373,37.8359048 1012.1373,37.8359048 L1014.68197,40.2836538 L1005.30434,40.2836538 Z M927.514153,21.3827845 C927.514153,18.4626628 927.532129,15.5417459 927.490707,12.6224195 C927.485237,12.2804662 927.205447,11.8939795 926.959264,11.6124645 C926.387181,10.9571867 925.05232,9.62674999 925.05232,9.62674999 L934.433078,8.49114711 L934.410413,37.8355071 L937.046529,40.2927991 L927.518843,40.2927991 L927.518843,36.7348948 C927.398486,36.7913569 927.330493,36.8008998 927.314081,36.8350951 C924.871004,41.9675747 918.401462,41.544507 915.510566,38.1528079 C911.819379,33.8203398 912.102294,24.7553978 916.122507,20.7632925 C918.020855,18.8777782 920.349046,18.1867145 922.935925,18.4038151 C924.928056,18.5708155 926.373113,19.6873326 927.514153,21.3827845 Z M927.483674,35.7917401 L927.483674,22.2249438 C925.56188,20.1740196 922.744449,20.4945013 921.508061,23.0408602 C920.864858,24.3657302 920.520202,25.9029293 920.336541,27.3828711 C920.02549,29.8950347 920.102081,32.4318506 921.076654,34.8239328 C922.307571,37.8474357 925.496232,38.3301465 927.483674,35.7917401 Z M975.590714,40.2921629 L966.148215,40.2921629 L966.148215,36.2332574 C966.099759,36.2229192 966.051304,36.2125811 966.002068,36.202243 C965.930166,36.3366386 965.85045,36.4686484 965.784801,36.606225 C964.462445,39.3879749 961.970131,40.8695072 958.944812,40.6706972 C956.370437,40.5005158 954.180578,38.8249449 953.60615,35.9095946 C953.162238,33.6590651 953.185684,27.3202062 953.199752,29.0228153 C953.213038,30.7254244 953.263056,24.3261272 953.256804,21.9769879 C953.256022,21.6215156 953.057513,21.1952669 952.816019,20.9264757 C952.193136,20.2314359 951.493662,19.6063772 950.652731,18.7856894 L960.131962,18.7856894 C960.131962,19.1093521 960.128836,19.440172 960.131962,19.7709919 C960.171821,24.182984 960.175728,28.5965666 960.280454,33.0069682 C960.302337,33.9230849 960.593849,34.874192 960.94554,35.7306656 C961.411334,36.864678 962.406228,37.2813838 963.590252,37.0507642 C965.229912,36.7302824 966.16619,35.5867272 966.16619,33.9047943 C966.16619,30.1504658 966.146652,26.395342 966.181821,22.6418087 C966.190417,21.8004446 965.972369,21.1563001 965.357302,20.5916797 C964.778966,20.0604593 964.270969,19.4489196 963.631674,18.7673989 L973.102308,18.7673989 L973.102308,19.7113489 C973.102308,25.2708725 973.080425,37.8356662 973.080425,37.8356662 L975.590714,40.2921629 Z M910.379558,32.7620343 C909.762927,36.964083 906.974412,39.8770475 903.013596,40.5522064 C897.490492,41.4953612 892.624658,38.6818017 891.197576,33.6598604 C890.377747,30.777115 890.444959,27.8689219 891.355446,25.0179861 C892.178402,22.4414082 893.802431,20.5073842 896.262701,19.4123386 C899.252852,18.0819019 902.339913,17.9522777 905.408217,19.0727711 C908.651585,20.2576788 910.202931,22.8080138 910.538991,26.1949415 C910.616363,26.9830244 910.549932,27.7846264 910.549932,28.6800668 L897.986766,28.6800668 C897.613974,31.9389608 899.102016,35.1040164 901.498982,36.1354428 C904.593858,37.4682653 907.875521,36.2777908 910.379558,32.7620343 Z M904.11087,27.5365115 C904.096021,25.249401 904.154636,23.0680574 903.421557,20.9757806 C903.080026,19.9984305 902.469648,19.2644239 901.367684,19.198419 C900.263376,19.1316188 899.46074,19.6954441 898.973844,20.6545036 C897.879696,22.81199 897.864065,25.1492007 897.854687,27.5365115 L904.11087,27.5365115 Z M938.183974,18.7499831 L947.638978,18.7499831 L947.638978,19.7909524 C947.638978,25.2629996 947.616314,37.8357457 947.616314,37.8357457 L950.038289,40.2922424 L940.698952,40.2922424 C940.698952,39.9773273 940.679414,28.2499214 940.717709,22.6911931 C940.723961,21.7830289 940.500442,21.0967367 939.836138,20.4979209 C939.293753,20.0088482 938.824051,19.4338896 938.183974,18.7499831 Z M944.148489,8.1509434 C946.269573,8.1509434 947.931116,9.84321435 947.942839,12.0142198 C947.956125,14.2273731 946.270355,15.9578155 944.121135,15.939525 C942.009429,15.9212345 940.361173,14.2043111 940.365081,12.0293294 C940.36977,9.86150487 942.038346,8.1509434 944.148489,8.1509434 Z" id="Logo-/-Medium"></path>
            </g>
        </g>
    </g>
</svg>