<?xml version="1.0" encoding="UTF-8"?>
<svg width="160px" height="33px" viewBox="0 0 160 33" version="1.1" xmlns="http://www.w3.org/2000/svg" xmlns:xlink="http://www.w3.org/1999/xlink">
    <!-- Generator: Sketch 48.2 (47327) - http://www.bohemiancoding.com/sketch -->
    <title>Logo / Twitter</title>
    <desc>Created with Sketch.</desc>
    <defs></defs>
    <g id="UUNIO-Landing-/-Desktop-HD-(Eng)" stroke="none" stroke-width="1" fill="none" fill-rule="evenodd" transform="translate(-449.000000, -2627.000000)">
        <g id="SNS-banner" transform="translate(0.000000, 2482.000000)" fill="#454BD8">
            <g id="Blue" transform="translate(213.000000, 137.000000)">
                <path d="M249.806386,40.5797854 C242.597257,40.5797854 236.753742,34.634647 236.753742,27.2982386 L236.795709,12.0625938 C236.795709,9.9624508 238.469362,8.26030157 240.53331,8.26030157 C242.597257,8.26030157 244.269231,9.9624508 244.269231,12.0625938 L244.269231,17.7660321 L253.611974,17.7660321 C255.675921,17.7660321 257.348735,19.4681813 257.348735,21.5683243 C257.348735,23.6684673 255.675921,25.3706165 253.611974,25.3706165 L244.269231,25.3706165 L244.269231,27.2871358 C244.269231,30.4283826 246.772156,32.975201 249.859265,32.975201 L255.479515,32.975201 C257.543463,32.975201 259.216276,34.6782043 259.216276,36.7783472 C259.216276,38.8784902 257.543463,40.5797854 255.479515,40.5797854 L249.806386,40.5797854 Z M323.605572,40.5797854 C316.397283,40.5797854 310.597413,34.634647 310.597413,27.2982386 L310.597413,12.0625938 C310.597413,9.9624508 312.270226,8.26030157 314.333335,8.26030157 C316.397283,8.26030157 318.070935,9.9624508 318.070935,12.0625938 L318.070935,17.7660321 L323.673559,17.7660321 C325.738346,17.7660321 327.411999,19.4681813 327.411999,21.5683243 C327.411999,23.6684673 325.738346,25.3706165 323.673559,25.3706165 L318.070935,25.3706165 L318.070935,27.2871358 C318.070935,30.4283826 320.573021,32.975201 323.660129,32.975201 L325.543618,32.975201 C327.605887,32.975201 329.27954,34.6782043 329.27954,36.7783472 C329.27954,38.8784902 327.605887,40.5797854 325.543618,40.5797854 L323.605572,40.5797854 Z M343.223232,40.5797854 C336.014943,40.5797854 330.214234,34.634647 330.214234,27.2982386 L330.214234,12.0625938 C330.214234,9.9624508 331.887047,8.26030157 333.950156,8.26030157 C336.014943,8.26030157 337.687756,9.9624508 337.687756,12.0625938 L337.687756,17.7660321 L343.292059,17.7660321 C345.356846,17.7660321 347.029659,19.4681813 347.029659,21.5683243 C347.029659,23.6684673 345.356846,25.3706165 343.292059,25.3706165 L337.687756,25.3706165 L337.687756,27.2871358 C337.687756,30.4283826 340.189842,32.975201 343.27695,32.975201 L345.162957,32.975201 C347.223548,32.975201 348.89804,34.6782043 348.89804,36.7783472 C348.89804,38.8784902 347.223548,40.5797854 345.162957,40.5797854 L343.223232,40.5797854 Z M375.076855,29.1733358 C375.076855,22.8729068 380.03738,17.7664591 386.228384,17.7664591 L391.832686,17.7664591 C393.894956,17.7664591 395.568608,19.4686084 395.568608,21.5687514 C395.568608,23.6688943 393.894956,25.3710436 391.832686,25.3710436 L386.228384,25.3710436 C384.162758,25.3710436 382.489944,27.0731928 382.489944,29.1733358 L382.550377,36.7779202 C382.550377,38.8780632 380.876724,40.5793584 378.811937,40.5793584 C376.747989,40.5793584 375.076855,38.8780632 375.076855,36.7779202 L375.076855,29.1733358 Z M293.78224,17.7661175 C295.845348,17.7661175 297.518162,19.4682667 297.518162,21.5684097 L297.518162,29.1729942 C297.518162,35.472569 292.500561,40.5798708 286.308717,40.5798708 C283.433124,40.5798708 280.819405,39.4687337 278.835195,37.6581184 C276.850985,39.4687337 274.237267,40.5798708 271.361673,40.5798708 C265.170669,40.5798708 260.151389,35.472569 260.151389,29.1729942 L260.151389,21.5684097 C260.151389,19.4682667 261.824203,17.7661175 263.888151,17.7661175 C265.952098,17.7661175 267.624912,19.4682667 267.624912,21.5684097 L267.624912,29.1729942 C267.624912,31.2731371 269.298564,32.9752864 271.361673,32.9752864 C273.425621,32.9752864 275.098434,31.2731371 275.098434,29.1729942 L275.098434,21.5684097 C275.098434,19.4682667 276.771247,17.7661175 278.835195,17.7661175 C280.899143,17.7661175 282.571956,19.4682667 282.571956,21.5684097 L282.571956,29.1729942 C282.571956,31.2731371 284.24477,32.9752864 286.308717,32.9752864 C288.372665,32.9752864 290.045479,31.2731371 290.045479,29.1729942 L290.045479,21.5684097 C290.045479,19.4682667 291.718292,17.7661175 293.78224,17.7661175 Z M304.057997,17.7661175 C306.121945,17.7661175 307.794758,19.4682667 307.794758,21.5684097 L307.794758,36.7784327 C307.794758,38.8785756 306.121945,40.5798708 304.057997,40.5798708 C301.99321,40.5798708 300.321236,38.8785756 300.321236,36.7784327 L300.321236,21.5684097 C300.321236,19.4682667 301.99321,17.7661175 304.057997,17.7661175 Z M304.057997,15.865313 C301.99321,15.865313 300.321236,14.1631638 300.321236,12.0630208 C300.321236,9.96287783 301.99321,8.2607286 304.057997,8.2607286 C306.121945,8.2607286 307.794758,9.96287783 307.794758,12.0630208 C307.794758,14.1631638 306.121945,15.865313 304.057997,15.865313 Z M372.251622,27.2722751 C372.251622,28.6011984 371.704369,31.0634645 369.754572,31.0634645 C368.316775,31.0634645 357.419567,31.0617563 357.419567,31.0617563 C357.829167,32.7083914 359.296341,33.9254324 361.040499,33.9254324 L369.003359,33.9254324 C370.810467,33.9254324 372.273445,35.4149197 372.273445,37.2528651 C372.273445,39.0899564 370.810467,40.5794438 369.003359,40.5794438 L361.040499,40.5794438 C354.850334,40.5794438 349.831055,35.4345632 349.831055,28.2228481 C349.831055,21.8942351 354.852013,17.7656905 361.044696,17.7656905 C367.236539,17.7656905 372.256658,22.0223447 372.256658,27.2722751 L372.251622,27.2722751 Z M364.780617,26.321702 C364.780617,24.5717252 363.109483,23.1531252 361.044696,23.1531252 C358.980748,23.1531252 357.307095,24.5717252 357.307095,26.321702 L364.780617,26.321702 Z" id="Logo-/-Twitter"></path>
            </g>
        </g>
    </g>
</svg>