<?xml version="1.0" encoding="UTF-8"?>
<svg width="124px" height="39px" viewBox="0 0 124 39" version="1.1" xmlns="http://www.w3.org/2000/svg" xmlns:xlink="http://www.w3.org/1999/xlink">
    <!-- Generator: Sketch 48.2 (47327) - http://www.bohemiancoding.com/sketch -->
    <title>Logo / Youtube</title>
    <desc>Created with Sketch.</desc>
    <defs></defs>
    <g id="UUNIO-Landing-/-Desktop-HD-(Eng)" stroke="none" stroke-width="1" fill="none" fill-rule="evenodd" transform="translate(-678.000000, -2624.000000)">
        <g id="SNS-banner" transform="translate(0.000000, 2482.000000)" fill="#454BD8">
            <g id="Blue" transform="translate(213.000000, 137.000000)">
                <path d="M486.714112,42.3210704 C485.526952,41.5028902 484.675231,40.2355517 484.176449,38.5111405 C483.679612,36.7867292 483.420984,34.4983968 483.420984,31.633282 L483.420984,27.7362906 C483.420984,24.842485 483.707808,22.5234833 484.282428,20.7703813 C484.857049,19.0162899 485.756412,17.7400475 486.972739,16.941654 C488.189067,16.1422711 489.787503,15.7336757 491.769991,15.7336757 C493.72331,15.7336757 495.283826,16.1422711 496.461263,16.9604513 C497.638699,17.7796209 498.501116,19.0558633 499.046567,20.7891786 C499.592019,22.5234833 499.860369,24.842485 499.860369,27.7263972 L499.860369,31.6233887 C499.860369,34.4875141 499.592019,36.7867292 499.06504,38.5210338 C498.539035,40.2553385 497.677591,41.5315809 496.480709,42.3309637 C495.292577,43.1293573 493.674696,43.5379527 491.635815,43.5379527 C489.548321,43.5488354 487.901271,43.1392506 486.714112,42.3210704 Z M493.387872,38.1124384 C493.713587,37.234898 493.885681,35.80333 493.885681,33.8256489 L493.885681,25.4568622 C493.885681,23.5276585 493.72331,22.1247812 493.387872,21.2284435 C493.062157,20.3419991 492.477814,19.8938303 491.645538,19.8938303 C490.840487,19.8938303 490.275589,20.3419991 489.941124,21.2284435 C489.615408,22.1148878 489.443314,23.5276585 489.443314,25.4568622 L489.443314,33.8256489 C489.443314,35.8132233 489.596935,37.2447914 489.911955,38.1124384 C490.227948,38.9889894 490.802568,39.4272649 491.635815,39.4272649 C492.477814,39.4272649 493.052434,38.9889894 493.387872,38.1124384 Z M472.25634,31.1948086 L465.497019,6.36051592 L471.394896,6.36051592 L473.759492,17.6132147 C474.36328,20.3902787 474.803725,22.7478645 475.090549,24.7057589 L475.262643,24.7057589 C475.463906,23.3028816 475.904351,20.9551891 476.593701,17.6527881 L479.04483,6.3516119 L484.942707,6.3516119 L478.106575,31.1948086 L478.106575,43.110362 L472.25634,43.110362 L472.25634,31.1948086 Z M519.038484,16.2592105 L519.038484,43.1008644 L514.394854,43.1008644 L513.877599,39.8172608 L513.753146,39.8172608 C512.489177,42.3014816 510.593222,43.5381506 508.075006,43.5381506 C506.322949,43.5381506 505.030783,42.9534535 504.197535,41.7850486 C503.364288,40.6156543 502.953011,38.7942882 502.953011,36.3100675 L502.953011,16.2592105 L508.88978,16.2592105 L508.88978,35.9687468 C508.88978,37.1678211 509.01326,38.0245854 509.271888,38.531125 C509.530515,39.0376647 509.96221,39.3008278 510.565026,39.3008278 C511.081309,39.3008278 511.580091,39.1455022 512.048732,38.8239683 C512.517373,38.501445 512.872257,38.0928495 513.102688,37.5952139 L513.102688,16.2592105 L519.038484,16.2592105 Z M549.505016,16.2592105 L549.505016,43.1008644 L544.861386,43.1008644 L544.344131,39.8172608 L544.219678,39.8172608 C542.955708,42.3014816 541.059754,43.5381506 538.54251,43.5381506 C536.789481,43.5381506 535.497315,42.9534535 534.664067,41.7850486 C533.830819,40.6156543 533.419543,38.7942882 533.419543,36.3100675 L533.419543,16.2592105 L539.356312,16.2592105 L539.356312,35.9687468 C539.356312,37.1678211 539.479792,38.0245854 539.739392,38.531125 C539.997047,39.0376647 540.428741,39.3008278 541.031558,39.3008278 C541.547841,39.3008278 542.046622,39.1455022 542.515264,38.8239683 C542.984877,38.501445 543.338788,38.0928495 543.56922,37.5952139 L543.56922,16.2592105 L549.505016,16.2592105 Z M535.181322,11.2226039 L529.283445,11.2226039 L529.283445,43.1009633 L523.471129,43.1009633 L523.471129,11.2226039 L517.573252,11.2226039 L517.573252,6.36101059 L535.171599,6.36101059 L535.171599,11.2226039 L535.181322,11.2226039 Z M569.161398,20.5559923 C569.516282,22.2517129 569.698099,24.5994054 569.688376,27.6000591 L569.688376,31.8482645 C569.688376,35.8521042 569.218763,38.7943871 568.270786,40.6751134 C567.322808,42.5548503 565.848825,43.4996654 563.838141,43.4996654 C562.718069,43.4996654 561.703005,43.2365023 560.784196,42.7101759 C559.864415,42.1848389 559.175065,41.4735069 558.715175,40.5672758 L558.590722,40.5672758 L557.987906,43.1108567 L553.085648,43.1108567 L553.085648,5.00661067 L558.811431,5.00661067 L558.811431,19.153115 L558.859073,19.153115 C559.376328,18.1301424 560.104569,17.3020688 561.051574,16.6787876 C561.999551,16.0456131 563.014616,15.7339725 564.106492,15.7339725 C565.513387,15.7339725 566.614985,16.1128879 567.419065,16.8736866 C568.223144,17.6334961 568.797764,18.8612611 569.161398,20.5559923 Z M563.713689,31.5069439 L563.703966,31.5069439 L563.703966,28.0383346 C563.703966,25.9340186 563.636878,24.3164555 563.512426,23.1767413 C563.378251,22.0459312 563.148791,21.227751 562.823076,20.7508914 C562.498333,20.2740318 562.02872,20.029666 561.424931,20.029666 C560.851283,20.029666 560.324305,20.2641384 559.836218,20.7311047 C559.347159,21.1990602 559.002971,21.7936507 558.801708,22.5237801 L558.801708,37.7714145 C559.060336,38.2393701 559.404524,38.5895947 559.816773,38.8240672 C560.237772,39.0575503 560.68794,39.1742919 561.176026,39.1742919 C561.808984,39.1742919 562.305821,38.9408087 562.68015,38.4728532 C563.052535,38.0048976 563.320886,37.2163975 563.474507,36.1043847 C563.636878,34.9943505 563.713689,33.4648383 563.713689,31.5069439 Z M578.123624,31.7012493 L578.123624,33.0556493 C578.123624,34.7800605 578.171266,36.0661963 578.276273,36.9338433 C578.372529,37.7906076 578.583515,38.4237822 578.899507,38.8135802 C579.215499,39.2033783 579.703586,39.4081707 580.363767,39.4081707 C581.25438,39.4081707 581.866919,39.0569567 582.192634,38.355518 C582.51835,37.6540794 582.700167,36.4856745 582.728363,34.8483247 L587.851329,35.1500719 C587.880498,35.3845444 587.890221,35.7060783 587.890221,36.1146738 C587.890221,38.5998838 587.219345,40.45093 585.888287,41.6777057 C584.55723,42.9054707 582.670998,43.5188585 580.230564,43.5188585 C577.300099,43.5188585 575.251496,42.5839368 574.07406,40.7131039 C572.895651,38.8432603 572.31228,35.9593481 572.31228,32.04257 L572.31228,27.356089 C572.31228,23.3225693 572.924819,20.3901798 574.140175,18.5292402 C575.356503,16.678194 577.443997,15.7531656 580.402659,15.7531656 C582.441539,15.7531656 584.003028,16.1330703 585.093931,16.8928797 C586.185806,17.6526892 586.950994,18.8319768 587.401162,20.4386572 C587.841607,22.0463269 588.072038,24.2673845 588.072038,27.0939152 L588.072038,31.691356 L578.123624,31.691356 L578.123624,31.7012493 Z M578.880061,20.4000731 C578.583515,20.7799778 578.382252,21.4042484 578.276273,22.2610127 C578.171266,23.1187663 578.123624,24.4335928 578.123624,26.1777908 L578.123624,28.1060051 L582.470708,28.1060051 L582.470708,26.1777908 C582.470708,24.4533795 582.413343,23.147457 582.298613,22.2610127 C582.182911,21.373579 581.972898,20.7413938 581.675379,20.3802864 C581.378832,20.0201684 580.909219,19.8351627 580.277234,19.8351627 C579.646221,19.8252693 579.176608,20.0201684 578.880061,20.4000731 Z" id="Logo-/-Youtube"></path>
            </g>
        </g>
    </g>
</svg>