<svg height="134" viewBox="0 0 102 134" width="102" xmlns="http://www.w3.org/2000/svg"><g fill="none" fill-rule="evenodd"><path d="m84.339 109.269h-82.454v-44.821a4.223 4.223 0 0 1 4.223-4.223h74.008a4.223 4.223 0 0 1 4.223 4.223v44.82z" fill="#38d2de"/><path d="m85.839 80.783h-3v-16.336a2.727 2.727 0 0 0 -2.723-2.723h-50.212v-3h50.212a5.73 5.73 0 0 1 5.723 5.723zm-66.149-19.058h6.171v-3h-6.171z" fill="#454bdb"/><path d="m84.339 110.769h-83.954v-46.321a5.73 5.73 0 0 1 5.723-5.723h10.52v3h-10.52a2.727 2.727 0 0 0 -2.723 2.723v43.32h80.954v3z" fill="#454bdb"/><path d="m6.359 103.757h73.597v-38.736h-73.597zm24.332 27.65h24.842v-14.706h-24.842z" fill="#fff"/><path d="m30.691 124.054h24.842v-7.353h-24.842z" fill="#e2e2e2"/><path d="m32.191 129.907h21.841v-11.706h-21.841zm-3 3h27.841v-17.706h-27.841z" fill="#454bdb"/><path d="m84.339 107.468h-82.454v6.856a4.28 4.28 0 0 0 4.279 4.279h73.896a4.28 4.28 0 0 0 4.278-4.279v-6.856z" fill="#fff"/><path d="m62.08 120.103h-55.918a5.784 5.784 0 0 1 -5.778-5.778v-8.357h61.696v3h-58.695v5.357a2.78 2.78 0 0 0 2.778 2.778h55.917z" fill="#454bdb"/><path d="m11.731 43.973a2.687 2.687 0 1 1 -5.37-.002 2.687 2.687 0 0 1 5.37.002" fill="#38d2de"/><path d="m30.19 52.773a1.343 1.343 0 1 1 -2.686 0 1.343 1.343 0 0 1 2.686 0" fill="#e2e2e2"/><path d="m90.852 131.682h-22.038a2.975 2.975 0 0 1 -2.975-2.975v-42.071a2.976 2.976 0 0 1 2.975-2.975h22.038a2.976 2.976 0 0 1 2.975 2.975v42.07a2.975 2.975 0 0 1 -2.975 2.976" fill="#fff"/><path d="m68.342 122.73h22.981v-31.152h-22.981z" fill="#e2e2e2"/><path d="m68.814 85.161c-.813 0-1.475.661-1.475 1.475v42.071c0 .813.662 1.475 1.475 1.475h22.038c.813 0 1.474-.662 1.474-1.475v-42.07c0-.815-.66-1.476-1.474-1.476h-22.039zm22.038 48.021h-22.039a4.48 4.48 0 0 1 -4.474-4.475v-42.07a4.48 4.48 0 0 1 4.475-4.476h22.038a4.48 4.48 0 0 1 4.474 4.475v42.071a4.48 4.48 0 0 1 -4.474 4.475z" fill="#454bdb"/><path d="m74.405 89.721h10.856v-3h-10.856zm5.427 36.301a.333.333 0 1 0 0 .665.333.333 0 0 0 0-.665m0 3a2.67 2.67 0 0 1 -2.666-2.667 2.67 2.67 0 0 1 2.666-2.666 2.67 2.67 0 0 1 2.667 2.666 2.67 2.67 0 0 1 -2.667 2.667" fill="#454bdb"/><path d="m89.19 23.279h-55.113l-9.185 15.91 36.74 41.788 36.742-41.788z" fill="#fff"/><path d="m43.264 39.189-9.188-15.91-8.396 16.023zm18.086-.493-8.902-15.417-8.886 15.392z" fill="#38d2de"/><path d="m80.147 39.189-9.54-15.368-8.114 15.48z" fill="#e2e2e2"/><path d="m61.632 39.189v39.004l17.95-39.004z" fill="#38d2de"/><path d="m25.68 39.189v.388l35.115 39.497-18.345-39.885z" fill="#e2e2e2"/><path d="m96.917 39.189v.388l-35.115 39.497 18.344-39.885z" fill="#fff"/><path d="m49.851 24.778h-13.177l6.589 11.41zm-3.991 12.912h13.177l-6.589-11.41zm22.362-12.91h-13.177l6.588 11.408 6.589-11.409zm-3.992 12.91h13.178l-6.59-11.41zm22.36-12.91h-2.715v-3h6.182l10.153 17.59-38.58 43.878-38.574-43.877 10.154-17.593h41.41v3h-1.204l6.587 11.407 6.588-11.407zm2.6 1.498-6.592 11.412h13.177l-6.585-11.413zm-55.114.002-6.586 11.41h13.177l-6.59-11.41zm29.056 14.41v32.196l14.152-32.196zm-3 0h-14.57l14.57 33.149v-33.15zm5.936 32.97 28.99-32.97h-14.498zm-9.71-.951-14.072-32.02h-14.078l28.15 32.019zm19.719-47.929v-3h5.986v3z" fill="#454bdb"/><path d="m80.24 18.027a2.082 2.082 0 1 1 -4.165 0 2.082 2.082 0 0 1 4.164 0" fill="#38d2de"/><path d="m42.833 66.23a2.081 2.081 0 1 1 -4.163 0 2.081 2.081 0 0 1 4.163 0m-14.313 2.524a2.841 2.841 0 1 1 -5.682.002 2.841 2.841 0 0 1 5.682-.002m61.357-57.948a2.866 2.866 0 1 1 -5.732 0 2.866 2.866 0 0 1 5.732 0m-17.395-5.914a3.388 3.388 0 1 1 -6.776 0 3.388 3.388 0 0 1 6.776 0" fill="#e2e2e2"/></g></svg>