<svg height="120" viewBox="0 0 104 120" width="104" xmlns="http://www.w3.org/2000/svg"><g fill="none" fill-rule="evenodd"><path d="m45.097 75.189h49.412l-24.413-14.076z" fill="#f2f2f2"/><path d="m95.743 78.088-6.682-3.968 1.532-2.58 6.681 3.968zm-9.658-5.735-5.49-3.261 1.531-2.58 5.49 3.26zm-43.112 5.752-1.473-2.613 26.618-14.99c1.165-.65 2.83-.627 3.968.049l6.187 3.673-1.531 2.58-6.188-3.674c-.215-.128-.75-.132-.971-.01z" fill="#454bdb"/><path d="m73.3 69.163a3.207 3.207 0 1 1 -6.413 0 3.207 3.207 0 0 1 6.414 0" fill="#fff"/><path d="m70.097 67.458c-.941 0-1.708.765-1.708 1.705a1.71 1.71 0 0 0 1.708 1.707 1.707 1.707 0 0 0 0-3.412m0 6.412a4.712 4.712 0 0 1 -4.708-4.707 4.711 4.711 0 0 1 4.708-4.705 4.71 4.71 0 0 1 4.704 4.705 4.71 4.71 0 0 1 -4.704 4.707" fill="#454bdb"/><path d="m92.064 65.016a1.12 1.12 0 1 1 -2.242-.002 1.12 1.12 0 0 1 2.242.002" fill="#e2e2e2"/><path d="m81.762 56.156a1.562 1.562 0 1 1 -3.125 0 1.562 1.562 0 0 1 3.125 0" fill="#38d2de"/><path d="m103.513 58.683a2.526 2.526 0 1 1 -5.053 0 2.526 2.526 0 0 1 5.053 0" fill="#e2e2e2"/><path d="m49.59 79.393v30.153h5.966v-16.657c0-2.478 1.962-4.507 4.359-4.507 2.399 0 4.36 2.029 4.36 4.507v16.657h11.49v-16.657c0-2.478 1.963-4.507 4.36-4.507 2.399 0 4.36 2.029 4.36 4.507v16.657h6.459v-30.153z" fill="#fff"/><path d="m85.985 108.046h3.458v-27.153h-38.353v27.153h2.965v-15.156c0-3.313 2.63-6.007 5.86-6.007 3.231 0 5.86 2.694 5.86 6.007v15.157h8.49v-15.157c0-3.313 2.63-6.007 5.861-6.007 3.23 0 5.86 2.694 5.86 6.007v15.157zm6.458 3h-9.458v-18.156c0-1.658-1.282-3.007-2.859-3.007-1.578 0-2.86 1.35-2.86 3.007v18.157h-14.49v-18.157c0-1.658-1.284-3.007-2.86-3.007-1.578 0-2.86 1.35-2.86 3.007v18.157h-8.966v-33.154h44.353z" fill="#454bdb"/><path d="m50.794 110.916h-2.406c-.51 0-.92-.702-.92-1.572v-29.064h4.246v29.065c0 .87-.412 1.572-.92 1.572m20.463-.001h-2.405c-.51 0-.921-.702-.921-1.572v-29.064h4.247v29.065c0 .87-.412 1.572-.921 1.572m20.463-.001h-2.404c-.51 0-.921-.702-.921-1.572v-29.064h4.247v29.065c0 .87-.413 1.572-.921 1.572" fill="#f2f2f2"/><path d="m48.97 109.416h1.243l.002-.072v-27.564h-1.247v27.565c0 .025 0 .05.002.072m1.824 3h-2.406c-1.38 0-2.42-1.32-2.42-3.072v-30.565h7.247v30.565c0 1.752-1.041 3.072-2.421 3.072m18.639-3.001h1.244l.002-.072v-27.564h-1.249v27.565c0 .025 0 .05.002.072m1.825 3h-2.406c-1.38 0-2.421-1.32-2.421-3.072v-30.565h7.248v30.565c0 1.752-1.041 3.072-2.421 3.072m18.64-3.001h1.242c.002-.022.003-.047.003-.072v-27.564h-1.247v27.565c0 .025 0 .05.002.072m1.824 3h-2.406c-1.38 0-2.42-1.32-2.42-3.072v-30.565h7.246v30.565c0 1.752-1.04 3.072-2.42 3.072" fill="#454bdb"/><path d="m45.731 113.517h49.149v-3.971h-49.149z" fill="#e2e2e2"/><path d="m47.23 111.017h46.149v-.971h-46.149zm-2.999 3h52.149v-6.971h-52.149z" fill="#454bdb"/><path d="m42.147 117.536h56.312v-4.547h-56.312z" fill="#fff"/><path d="m43.647 116.035h53.312v-1.547h-53.312zm-3 3h59.312v-7.547h-59.312z" fill="#454bdb"/><path d="m42.452 79.905h54.908v-3.526h-54.908z" fill="#fff"/><path d="m43.952 78.406h51.908v-.526h-51.908zm-3 3h57.908v-6.526h-57.908z" fill="#454bdb"/><path d="m37.626 50.197h-11.447v35.753l11.447-4.65 11.447 4.65v-35.753z" fill="#38d2de"/><path d="m50.573 88.179-12.947-5.258-12.948 5.258v-9.248h3v4.791l9.948-4.039 9.947 4.039v-32.025h-21.395v-3h24.395z" fill="#454bdb"/><path d="m24.679 75.654h3v-9.161h-3z" fill="#454bdb"/><path d="m66.433 39.306c0 3.716-3.428 6.725-4.768 9.956-1.39 3.35-1.145 7.889-3.67 10.413-2.524 2.525-7.062 2.28-10.412 3.67-3.232 1.34-6.24 4.768-9.957 4.768-3.716 0-6.725-3.428-9.957-4.768-3.35-1.39-7.887-1.145-10.413-3.67-2.524-2.525-2.28-7.062-3.67-10.413-1.34-3.231-4.766-6.24-4.766-9.956 0-3.717 3.427-6.726 4.767-9.957 1.389-3.351 1.146-7.89 3.67-10.413 2.525-2.525 7.063-2.28 10.412-3.67 3.232-1.34 6.24-4.768 9.957-4.768s6.725 3.428 9.957 4.768c3.35 1.39 7.888 1.145 10.412 3.67 2.526 2.525 2.28 7.063 3.67 10.413 1.34 3.23 4.768 6.24 4.768 9.957" fill="#fff"/><path d="m37.626 11.998c-1.907 0-3.718 1.207-5.634 2.485-1.197.798-2.434 1.623-3.749 2.168-1.374.571-2.876.88-4.327 1.181-2.226.46-4.328.895-5.599 2.164-1.27 1.271-1.705 3.374-2.165 5.601-.299 1.451-.61 2.952-1.179 4.326-.545 1.313-1.37 2.551-2.168 3.747-1.279 1.917-2.486 3.727-2.486 5.636 0 1.907 1.207 3.717 2.486 5.633.798 1.198 1.623 2.435 2.168 3.748.569 1.374.88 2.875 1.179 4.327.46 2.226.894 4.33 2.164 5.6 1.271 1.27 3.373 1.704 5.6 2.164 1.451.3 2.953.611 4.328 1.181 1.314.545 2.551 1.37 3.748 2.168 1.916 1.278 3.727 2.485 5.634 2.485s3.718-1.207 5.634-2.485c1.197-.798 2.434-1.623 3.749-2.168 1.374-.57 2.876-.88 4.327-1.18 2.226-.46 4.328-.895 5.599-2.165 1.27-1.27 1.705-3.374 2.165-5.6.299-1.452.61-2.953 1.179-4.327.545-1.313 1.37-2.55 2.168-3.748 1.279-1.916 2.486-3.726 2.486-5.633 0-1.909-1.207-3.719-2.486-5.636-.798-1.196-1.623-2.434-2.168-3.747-.569-1.374-.88-2.875-1.179-4.326-.46-2.227-.894-4.33-2.164-5.6-1.271-1.27-3.373-1.705-5.6-2.165-1.451-.3-2.953-.61-4.328-1.18-1.314-.546-2.551-1.37-3.748-2.169-1.916-1.278-3.727-2.485-5.634-2.485m0 57.614c-2.816 0-5.197-1.588-7.299-2.989-1.126-.75-2.189-1.46-3.232-1.893-1.113-.46-2.411-.729-3.786-1.013-2.561-.53-5.208-1.076-7.114-2.982-1.905-1.906-2.452-4.553-2.981-7.114-.284-1.375-.552-2.674-1.013-3.785-.431-1.042-1.141-2.106-1.892-3.232-1.402-2.1-2.99-4.483-2.99-7.298 0-2.817 1.588-5.199 2.99-7.3.751-1.126 1.461-2.19 1.892-3.232.461-1.11.729-2.41 1.013-3.784.529-2.56 1.077-5.21 2.982-7.115 1.906-1.905 4.552-2.452 7.113-2.98 1.375-.286 2.673-.554 3.785-1.015 1.044-.433 2.107-1.142 3.233-1.893 2.102-1.4 4.483-2.989 7.299-2.989s5.197 1.588 7.299 2.99c1.126.75 2.189 1.46 3.232 1.892 1.113.461 2.411.73 3.786 1.014 2.561.53 5.208 1.076 7.114 2.981 1.905 1.906 2.452 4.554 2.981 7.114.284 1.375.552 2.674 1.013 3.785.431 1.042 1.141 2.106 1.892 3.232 1.402 2.101 2.99 4.483 2.99 7.3 0 2.815-1.588 5.197-2.99 7.298-.751 1.126-1.461 2.19-1.892 3.232-.461 1.111-.729 2.41-1.013 3.784-.529 2.562-1.077 5.21-2.982 7.115-1.906 1.906-4.552 2.452-7.113 2.982-1.375.284-2.673.552-3.785 1.013-1.044.433-2.107 1.142-3.233 1.893-2.102 1.401-4.483 2.99-7.299 2.99" fill="#454bdb"/><path d="m37.626 11.998c-1.907 0-3.718 1.207-5.634 2.485-1.197.798-2.434 1.623-3.749 2.168-1.374.571-2.876.88-4.327 1.181-2.226.46-4.328.895-5.599 2.164-1.27 1.271-1.705 3.374-2.165 5.601-.299 1.451-.61 2.952-1.179 4.326-.545 1.313-1.37 2.551-2.168 3.747-1.279 1.917-2.486 3.727-2.486 5.636 0 1.907 1.207 3.717 2.486 5.633.798 1.198 1.623 2.435 2.168 3.748.569 1.374.88 2.875 1.179 4.327.46 2.226.894 4.33 2.164 5.6 1.271 1.27 3.373 1.704 5.6 2.164 1.451.3 2.953.611 4.328 1.181 1.314.545 2.551 1.37 3.748 2.168 1.916 1.278 3.727 2.485 5.634 2.485s3.718-1.207 5.634-2.485c1.197-.798 2.434-1.623 3.749-2.168 1.374-.57 2.876-.88 4.327-1.18 2.226-.46 4.328-.895 5.599-2.165 1.27-1.27 1.705-3.374 2.165-5.6.299-1.452.61-2.953 1.179-4.327.545-1.313 1.37-2.55 2.168-3.748 1.279-1.916 2.486-3.726 2.486-5.633 0-1.909-1.207-3.719-2.486-5.636-.798-1.196-1.623-2.434-2.168-3.747-.569-1.374-.88-2.875-1.179-4.326-.46-2.227-.894-4.33-2.164-5.6-1.271-1.27-3.373-1.705-5.6-2.165-1.451-.3-2.953-.61-4.328-1.18-1.314-.546-2.551-1.37-3.748-2.169-1.916-1.278-3.727-2.485-5.634-2.485m0 57.614c-2.816 0-5.197-1.588-7.299-2.989-1.126-.75-2.189-1.46-3.232-1.893-1.113-.46-2.411-.729-3.786-1.013-2.561-.53-5.208-1.076-7.114-2.982-1.905-1.906-2.452-4.553-2.981-7.114-.284-1.375-.552-2.674-1.013-3.785-.431-1.042-1.141-2.106-1.892-3.232-1.402-2.1-2.99-4.483-2.99-7.298 0-2.817 1.588-5.199 2.99-7.3.751-1.126 1.461-2.19 1.892-3.232.461-1.11.729-2.41 1.013-3.784.529-2.56 1.077-5.21 2.982-7.115 1.906-1.905 4.552-2.452 7.113-2.98 1.375-.286 2.673-.554 3.785-1.015 1.044-.433 2.107-1.142 3.233-1.893 2.102-1.4 4.483-2.989 7.299-2.989s5.197 1.588 7.299 2.99c1.126.75 2.189 1.46 3.232 1.892 1.113.461 2.411.73 3.786 1.014 2.561.53 5.208 1.076 7.114 2.981 1.905 1.906 2.452 4.554 2.981 7.114.284 1.375.552 2.674 1.013 3.785.431 1.042 1.141 2.106 1.892 3.232 1.402 2.101 2.99 4.483 2.99 7.3 0 2.815-1.588 5.197-2.99 7.298-.751 1.126-1.461 2.19-1.892 3.232-.461 1.111-.729 2.41-1.013 3.784-.529 2.562-1.077 5.21-2.982 7.115-1.906 1.906-4.552 2.452-7.113 2.982-1.375.284-2.673.552-3.785 1.013-1.044.433-2.107 1.142-3.233 1.893-2.102 1.401-4.483 2.99-7.299 2.99" fill="#454bdb"/><path d="m56.612 39.306c0 10.485-8.5 18.986-18.986 18.986-10.487 0-18.987-8.501-18.987-18.986 0-10.486 8.5-18.987 18.987-18.987 10.485 0 18.986 8.5 18.986 18.987" fill="#4178da"/><path d="m37.626 21.819c-9.642 0-17.486 7.845-17.486 17.487s7.844 17.487 17.486 17.487 17.486-7.845 17.486-17.487-7.844-17.487-17.486-17.487m0 37.974c-11.296 0-20.486-9.191-20.486-20.487 0-11.297 9.19-20.487 20.486-20.487s20.486 9.19 20.486 20.487c0 11.296-9.19 20.487-20.486 20.487" fill="#454bdb"/><path d="m45.516 51.785-7.507-3.823a.5.5 0 0 0 -.465.006l-7.405 4.016a.5.5 0 0 1 -.732-.517l1.316-8.32a.498.498 0 0 0 -.15-.44l-6.107-5.803a.499.499 0 0 1 .266-.855l8.32-1.32a.5.5 0 0 0 .372-.278l3.63-7.603a.5.5 0 0 1 .897-.01l3.826 7.505a.5.5 0 0 0 .38.268l8.35 1.103a.5.5 0 0 1 .289.848l-5.956 5.958a.5.5 0 0 0 -.137.445l1.53 8.284a.5.5 0 0 1 -.717.536" fill="#fff"/><path d="m36.614 27.52.001.002v-.002zm6.496 6.138.002.004a.008.008 0 0 0 -.002-.004zm-11.039.146a.022.022 0 0 1 -.003.005zm-2.531 9.988.005.005zm-2.57-6.58 4.637 4.407c.476.448.701 1.107.6 1.758l-1 6.323 5.623-3.05a2 2 0 0 1 1.857-.026l5.703 2.905-1.162-6.291a1.996 1.996 0 0 1 .552-1.778l4.523-4.524-6.342-.837a2.005 2.005 0 0 1 -1.522-1.078l-2.904-5.696-2.757 5.773a1.996 1.996 0 0 1 -1.484 1.112l-6.325 1.003zm19.225 13.236h.001zm-1.436 1.073.001.004v-.004zm-14.859 2.026c-.406 0-.808-.125-1.155-.37a1.984 1.984 0 0 1 -.818-1.947l1.234-7.797-5.728-5.44a1.989 1.989 0 0 1 -.532-2.044 1.985 1.985 0 0 1 1.598-1.381l7.8-1.237 3.402-7.128a1.988 1.988 0 0 1 1.78-1.138c.781.02 1.46.41 1.807 1.094l3.587 7.035 7.83 1.033c.76.1 1.385.612 1.632 1.339a1.987 1.987 0 0 1 -.48 2.058l-5.584 5.585 1.436 7.768c.14.75-.154 1.504-.767 1.964s-1.42.53-2.105.182l-7.039-3.585-6.944 3.765a2.004 2.004 0 0 1 -.955.244zm6.758-45.797v-6.3h3v6.3zm13.779 2.355-2.819-1.027 2.157-5.92 2.818 1.028-2.157 5.919zm9.322 5.902-2.297-1.93 4.052-4.823 2.297 1.93zm6.737 8.737-1.498-2.6 5.46-3.144 1.497 2.6zm3.34 10.515-.518-2.955 6.206-1.086.518 2.955zm5.741 12.128-6.202-1.104.525-2.954 6.202 1.105zm-4.96 12.257-5.45-3.161 1.506-2.596 5.45 3.16-1.507 2.597zm-8.857 9.816-4.038-4.836 2.303-1.922 4.038 4.836zm-46.612.145-2.29-1.937 4.066-4.812 2.291 1.937zm-8.914-9.773-1.49-2.604 5.468-3.128 1.49 2.603-5.468 3.13zm-5.029-12.232-.509-2.957 6.208-1.067.508 2.957-6.208 1.067zm5.66-12.095-6.2-1.122.535-2.95 6.2 1.121-.536 2.951zm3.258-10.549-5.44-3.177 1.513-2.59 5.441 3.177zm6.674-8.795-4.024-4.847 2.308-1.916 4.025 4.847-2.31 1.916zm9.281-5.98-2.122-5.931 2.824-1.01 2.122 5.932-2.824 1.01z" fill="#454bdb"/><path d="m18.594 73.245a1.604 1.604 0 1 0 3.207 0 1.604 1.604 0 0 0 -3.207 0m-8.382 7.693a2.034 2.034 0 1 0 4.068.002 2.034 2.034 0 0 0 -4.068-.002" fill="#38d2de"/><path d="m2.309 70.825a3.095 3.095 0 1 0 6.189.001 3.095 3.095 0 0 0 -6.19 0" fill="#e2e2e2"/></g></svg>