<svg enable-background="new 0 0 98 106" height="106" viewBox="0 0 98 106" width="98" xmlns="http://www.w3.org/2000/svg"><path d="m78.5 60.2c0 11.4-9.3 20.7-20.7 20.7s-20.7-9.3-20.7-20.7 9.3-20.7 20.7-20.7c11.5 0 20.7 9.3 20.7 20.7" fill="#e2e2e2"/><path d="m57.8 82.4v-3c10.6 0 19.2-8.6 19.2-19.2s-8.6-19.2-19.2-19.2v-3c12.3 0 22.2 10 22.2 22.2s-9.9 22.2-22.2 22.2" fill="#454bdb"/><path d="m73.4 22.6c0 1.1-.8 2-2 2.1-1.1 0-2-.8-2.1-2v-.1c0-1.1 1-2 2.1-2 1.2 0 2 .9 2 2" fill="#38d2de"/><path d="m96 33.6c0 1.3-1.1 2.4-2.4 2.4s-2.4-1.1-2.4-2.4 1.1-2.4 2.4-2.4c1.4-.1 2.4 1 2.4 2.4zm-33.9-27.5c0 1.5-1.2 2.7-2.7 2.7s-2.7-1.2-2.7-2.7 1.2-2.7 2.7-2.7c1.5.1 2.7 1.2 2.7 2.7" fill="#e2e2e2"/><path d="m94.3 10.1c-.1 2.2-1.9 4-4.1 3.9-2.1-.1-3.9-1.8-3.9-3.9 0-2.2 1.8-4 4-4s4 1.8 4 4" fill="#38d2de"/><path d="m74.6 39.1-2.6-1.6 5-8.6 2.6 1.5zm9.1 9.6-1.5-2.6 4.3-2.4 1.5 2.6zm-21.2-16.3-3-.4.7-5 3 .4zm-1.3 60.9-.9-4.9 3-.5.9 4.9zm34.9-31.4-9.9-.2v-3l9.9.2zm-10.8 15-3.7-2.6 1.7-2.5 3.7 2.6zm-9 14.8-4.7-8.7 2.6-1.4 4.7 8.7z" fill="#454bdb"/><path d="m12.9 49.5h-.8c-1.3 0-2.3-1-2.3-7.1l-2.3-19.3c-.4-3 1.1-5.9 3.7-7.4 1.1-.6 1.9-1.2 1.9-1.2-7.5-4.6-5.8-9.7-5.7-10.3 3.6 5.3 23 2.9 34.3 4.6 2.7.4 4.8 2.5 5.2 5.2l.3 2.1c2.2 0 4 1.8 4 4l-3.1 27c0 1.3-1 2.3-2.3 2.3z" fill="#4178da"/><path d="m8.8 7.2c.5 2.2 2.2 4.3 5.1 6.1l2 1.2-1.9 1.3s-.9.6-2 1.3c-2.1 1.2-3.3 3.5-3 5.9l2.3 19.4c0 5 .7 5.6.8 5.6h.8 32.9c.5 0 .8-.4.8-.8v-.2l3.1-26.9c0-1.4-1.2-2.4-2.5-2.4h-1.3l-.4-3.4c-.3-2-1.8-3.6-3.9-4-3.8-.6-8.8-.7-13.6-.8-8.1-.1-15.2-.3-19.2-2.3m36.9 43.8h-33.6c-3.5 0-3.8-4.4-3.8-8.5l-2.3-19.2c-.4-3.5 1.3-7 4.4-8.8-5.1-4-5-8.2-4.5-10.5l.3-1.5 1.6.2.5.1.3.5c1.9 2.8 11.1 3 19.3 3.1 4.9.1 9.9.2 14 .8 3.3.5 6 3.2 6.4 6.5l.1 1c2.5.6 4.2 2.8 4.2 5.4v.2l-3.1 26.9c0 2.1-1.7 3.8-3.8 3.8" fill="#454bdb"/><path d="m53.3 41.3c0 1.4-1.2 2.5-2.6 2.5s-2.5-1.1-2.5-2.5v-2.5c0-1.4 1.1-2.6 2.6-2.6 1.4 0 2.6 1.1 2.6 2.6v2.5z" fill="#fff"/><path d="m50.8 37.8c-.6 0-1.1.5-1.1 1.1v2.5c0 .6.5 1.1 1.1 1.1s1.1-.5 1.1-1.1v-2.5c-.1-.7-.5-1.1-1.1-1.1m0 7.6c-2.2 0-4.1-1.8-4.1-4.1v-2.5c0-2.2 1.8-4.1 4.1-4.1 2.2 0 4.1 1.8 4.1 4.1v2.5c-.1 2.3-1.9 4.1-4.1 4.1" fill="#454bdb"/><path d="m9.9 41.3c0 1.4-1.2 2.5-2.6 2.5s-2.5-1.1-2.5-2.5v-2.5c0-1.4 1.1-2.6 2.6-2.6s2.6 1.1 2.6 2.6v2.5z" fill="#fff"/><path d="m7.3 37.8c-.6 0-1.1.5-1.1 1.1v2.5c0 .6.5 1.1 1.1 1.1s1.1-.5 1.1-1.1v-2.5c0-.7-.5-1.1-1.1-1.1m0 7.6c-2.2 0-4.1-1.8-4.1-4.1v-2.5c0-2.2 1.8-4.1 4.1-4.1 2.2 0 4.1 1.8 4.1 4.1v2.5c0 2.3-1.8 4.1-4.1 4.1" fill="#454bdb"/><path d="m56.8 105.3v-16.9c0-12.9-12.3-23.5-27.4-23.5s-27.4 10.6-27.4 23.5v16.9z" fill="#38d2de"/><path d="m58.3 105.3h-3v-16.9c0-12.1-11.6-22-25.9-22s-25.9 9.9-25.9 22v16.9h-3v-16.9c0-13.8 13-25 28.9-25s28.9 11.2 28.9 25z" fill="#454bdb"/><path d="m16 105.3h3v-18.5h-3zm24 0h3v-18.5h-3z" fill="#454bdb"/><path d="m28.4 74.4c-2.8 0-5.1-2.3-5.1-5.1v-11.5c0-2.4 2-4.4 4.4-4.4h1.5c2.4 0 4.4 2 4.4 4.4v11.5c-.1 2.8-2.4 5.1-5.2 5.1" fill="#fff"/><path d="m27.7 54.9c-1.6 0-2.9 1.3-2.9 2.9v11.5c0 2 1.6 3.6 3.6 3.6s3.6-1.6 3.6-3.6v-11.5c0-1.6-1.3-2.9-2.9-2.9zm.7 21c-3.7 0-6.6-3-6.6-6.6v-11.5c0-3.3 2.6-5.9 5.9-5.9h1.5c3.3 0 5.9 2.6 5.9 5.9v11.5c-.1 3.7-3 6.6-6.7 6.6z" fill="#454bdb"/><path d="m28.8 64.3c-10.7 0-19.5-8.8-19.5-19.5v-13.2c0-10.7 8.8-10.5 19.5-10.5s19.5-.2 19.5 10.5v13.2c0 10.8-8.8 19.5-19.5 19.5" fill="#fff"/><path d="m27.5 22.7c-4.7 0-9.1 0-12.1 1.2-2.1.8-4.5 2.4-4.5 7.8v13.2c0 9.9 8.1 18 18 18s18-8.1 18-18v-13.3c0-5.3-2.4-7-4.5-7.8-3.1-1.2-7.8-1.2-12.8-1.2zm1.3 43.1c-11.6 0-21-9.4-21-21v-13.2c0-5.4 2.1-8.9 6.5-10.6 3.7-1.4 8.6-1.4 13.8-1.4h1.4c5.2 0 10.2 0 13.8 1.4 4.3 1.7 6.5 5.1 6.5 10.6v13.2c0 11.6-9.4 21-21 21z" fill="#454bdb"/><g fill="#1d53d3"><path d="m13 34.5c1.4-1.9 3.1-4 5.6-4.3 3.3-.6 6.3 1.7 7.7 4.4.5 1.4-1.3 2.8-2.5 1.9-1.3-1.4-2.2-3.5-4.2-4-2.3-.6-4.5.9-6.6 2z"/><path d="m31 34.7c1.4-2.8 4.5-5.1 7.8-4.5 2.5.3 4.2 2.4 5.6 4.3-2-1-4.2-2.5-6.6-2-2.1.5-2.9 2.6-4.3 4.1-1.2.8-3-.6-2.5-1.9z"/><path d="m14.1 38.5c2.6-2.2 6.6-2.1 9.2 0-2.6 2.1-6.6 2.2-9.2 0z"/><path d="m34.1 38.5c2.6-2.2 6.6-2.1 9.2 0-2.6 2.1-6.5 2.2-9.2 0z"/><path d="m13.1 46.8c2.2 1.8 4.5 3.7 6.7 5.6h4.4c1.1-1.1 2.2-2.2 3.4-3.4h2.2c1.1 1.1 2.2 2.2 3.3 3.3h4.4c2.2-1.8 4.4-3.7 6.7-5.6-1.8 3-3.7 5.9-5.6 8.9-2.6 0-5.2 0-7.8 0-.8-.7-1.5-1.5-2.3-2.2-.7.7-1.5 1.5-2.2 2.2-2.6 0-5.2 0-7.8 0-1.7-2.8-3.5-5.8-5.4-8.8z"/></g><path d="m60.3 67.4c.3.1.6.3 1 .4.1 0 .3.1.4.1h.5c-.5-.2-1-.3-1.5-.5-.1-.1-.3 0-.4 0zm-9.6-16.2s.1-.1.1-.1c.2.1.3.2.3.4.2.3.3.7.5 1 .3.6.6 1.1 1 1.6.7-.3 1.4-.3 2.1-.3.8 0 1.6.1 2.3.4.1 0 .1 0 .2.1s-.1 0-.1.1c-.3.2-.6.5-.8.8-.2.2-.3.5-.4.8-.1.6-.1 1.2.1 1.8.3.9.8 1.6 1.3 2.3.7.8 1.5 1.5 2.4 2.1 1.5 1 3.2 1.6 4.9 1.7-.1.3-.2.6-.3.9.4 0 .7.2.9.4.1.2.2.4.2.6 0 .3-.2.6-.4.8-.1.1-.2.1-.4.1-.5.1-1-.2-1.2-.7-.5.5-1 .8-1.7 1.1.4.2.8.3 1.2.4.3.1.6 0 .9-.1.2 0 .4-.1.6-.1.1 0 .1.1.1.1 0 .1 0 .2-.1.3.1 0 .3-.1.4-.1.1.1.1.2.1.3-.1.1-.2.1-.3.2.1 0 .3.1.3.2s-.1.2-.2.3c-.1 0-.2 0-.2 0-.3 0-.7-.2-1-.3s-.6-.3-1-.4c0 .1-.1.2-.1.2.1 0 .2-.1.3 0 .1 0 .1.1.1.2s-.1.1-.2.2c.1 0 .2 0 .2.1v.2c-.2.2-.5.1-.8 0-.4-.1-.7-.4-1-.5-.4-.2-.7-.3-1.1-.5s-.8-.3-1.2-.4c-.2-.1-.3-.2-.5-.2-1.5-.2-3-.7-4.4-1.4-.8-.4-1.7-.9-2.4-1.5-.9-.7-1.6-1.4-2.1-2.4-.4-.7-.6-1.4-.6-2.2 0-.7.1-1.4.3-2.1.3-.8.7-1.5 1.3-2.1 0-.5 0-.9.1-1.4 0-.4 0-.8 0-1.1s0-.7 0-1c0-.2 0-.4.1-.6.1 0 .2-.1.2-.2" fill="#454bdb"/><path d="m60.4 53.3c.7 0 1.4.1 2.1.3 1 .2 2 .6 2.9 1.1-.1 0-.2 0-.3 0-.5-.1-1-.1-1.5-.1-.2 0-.5 0-.7 0-.1 0-.2 0-.2.1s0 .1.1.2c.2.1.4.2.6.2.5.1 1.1.2 1.7.2.7 0 1.3 0 2-.1.3-.1.6-.2.9-.3 0 .3-.2.7-.4.9-.3.3-.7.5-1.1.7-.6.2-1.3.2-1.9.1 0 .1.1.2.2.3.2.2.4.3.6.4.7.3 1.4.5 2.1.7.9.2 1.8.4 2.6.5h.1v.1c-.1.2-.3.3-.4.4-.4.2-.8.2-1.1.2-.4 0-.9 0-1.3 0 .1.1.3.2.4.3.2.1.3.2.5.3.1.1 0 .2 0 .3-.1.1-.4.2-.6.2-.4 0-.7 0-1.1 0 .1.2.2.3.3.4.2.2.5.4.8.5s.5.2.8.3h.1c0 .2-.1.3-.2.4-.2.2-.3.3-.5.5-.2.1-.5.3-.7.4-.4.1-.8.2-1.2.3-.5 0-1 0-1.5-.1-1.3-.2-2.5-.6-3.6-1.3-.9-.5-1.8-1.2-2.5-2-.6-.6-1.1-1.3-1.4-2.1-.2-.5-.4-1-.3-1.5 0-.3.1-.6.2-.8s.2-.4.4-.6l.3-.3c.1 0 .1-.1.2-.1.3-.2.7-.4 1-.5.3-.4.9-.5 1.6-.5z" fill="#1d53d3"/></svg>