<svg height="92" viewBox="0 0 100 92" width="100" xmlns="http://www.w3.org/2000/svg"><g fill="none" fill-rule="evenodd"><path d="m90.751 51.48a1.06 1.06 0 1 1 -2.121-.001 1.06 1.06 0 0 1 2.121 0m-4.325-14.143a1.785 1.785 0 1 1 -3.571 0 1.785 1.785 0 0 1 3.57 0" fill="#e2e2e2"/><path d="m97.832 39.075a1.521 1.521 0 1 1 -3.042 0 1.521 1.521 0 0 1 3.042 0" fill="#38d2de"/><path d="m55.603 90.642h-15.94l2.064-10.195a.994.994 0 0 1 .974-.796h9.867c.473 0 .879.333.973.796l2.063 10.195z" fill="#fff"/><path d="m53.54 80.447a.993.993 0 0 0 -.973-.797h-2.834l1.656 8.181h-11.157l-.569 2.81h15.94l-2.063-10.195z" fill="#e2e2e2"/><path d="m76.19 90.642h-15.94l2.064-10.195a.993.993 0 0 1 .973-.796h9.868c.471 0 .878.333.971.796l2.063 10.195zm20.586 0h-15.939l2.063-10.195a.992.992 0 0 1 .973-.796h9.867c.473 0 .88.333.973.796z" fill="#fff"/><path d="m94.714 80.447a.994.994 0 0 0 -.974-.797h-2.834l1.656 8.181h-11.157l-.568 2.81h15.94l-2.063-10.195z" fill="#e2e2e2"/><path d="m65.897 79.65h-15.94l2.063-10.194a.993.993 0 0 1 .974-.795h9.867a.99.99 0 0 1 .973.795l2.062 10.195zm20.586 0h-15.939l2.062-10.194a.993.993 0 0 1 .974-.795h9.867c.473 0 .88.332.973.795l2.063 10.195zm-10.293-10.99h-15.94l2.064-10.195a.993.993 0 0 1 .973-.796h9.868c.471 0 .878.333.971.796z" fill="#fff"/><path d="m74.127 80.447a.993.993 0 0 0 -.973-.797h-2.835l1.657 8.181h-11.157l-.569 2.81h15.94l-2.063-10.195zm-10.293-10.992a.993.993 0 0 0 -.974-.795h-2.834l1.656 8.181h-11.157l-.568 2.81h15.94z" fill="#e2e2e2"/><path d="m84.42 69.455a.992.992 0 0 0 -.973-.795h-2.834l1.656 8.181h-11.157l-.568 2.81h15.939l-2.063-10.197zm-10.293-10.99a.993.993 0 0 0 -.973-.796h-2.835l1.657 8.181h-11.157l-.569 2.81h15.94z" fill="#e2e2e2"/><g fill="#454bdb"><path d="m41.498 89.142h12.271l-1.616-7.991h-9.039l-1.616 7.99zm15.939 3h-19.607l2.427-11.993a2.5 2.5 0 0 1 2.443-1.999h9.867c1.182 0 2.209.84 2.444 1.998l2.426 11.993zm4.648-3h12.271l-1.617-7.991h-9.038l-1.616 7.99zm15.939 3h-19.607l2.427-11.993a2.5 2.5 0 0 1 2.442-1.998h9.868c1.181 0 2.208.84 2.443 1.998zm4.646-3h12.272l-1.616-7.991h-9.038l-1.617 7.99zm15.94 3h-19.607l2.428-11.993a2.5 2.5 0 0 1 2.442-1.998h9.868c1.18 0 2.208.84 2.443 1.998z"/><path d="m51.791 78.15h12.271l-1.616-7.99h-9.038zm15.939 3h-19.607l2.428-11.992a2.499 2.499 0 0 1 2.442-1.997h9.868a2.5 2.5 0 0 1 2.443 1.997zm4.648-3h12.27l-1.615-7.99h-9.038zm15.939 3h-19.607l2.428-11.992a2.499 2.499 0 0 1 2.442-1.997h9.867c1.182 0 2.209.84 2.444 1.997l2.426 11.993z"/><path d="m62.085 67.16h12.271l-1.617-7.99h-9.038zm15.939 3h-19.607l2.427-11.993a2.5 2.5 0 0 1 2.442-1.998h9.868c1.181 0 2.208.841 2.443 1.998z"/><path d="m66.646 52.576h3v-8.395h-3zm8.103 2.151-2.582-1.527 2.149-3.634 2.582 1.527zm3.361 4.397-1.495-2.602 7.278-4.182 1.494 2.601zm.716 5.496-.035-3 4.197-.048.035 3zm-21.221.027-4.196-.074.051-3 4.198.074zm.698-5.509-7.23-4.269 1.526-2.584 7.229 4.269z"/><path d="m61.653 54.712-1.835-3.259 2.613-1.472 1.835 3.258z"/></g><path d="m33.88 75.155c-17.042 0-30.907-13.866-30.907-30.91v-26.343h15.027v26.343c0 8.759 7.124 15.883 15.88 15.883z" fill="#fff"/><path d="m33.88 75.155v-15.027c8.759 0 15.884-7.124 15.884-15.883v-26.343h15.026v26.343c0 17.044-13.866 30.91-30.91 30.91" fill="#38d2de"/><path d="m13.834 69.694a32.705 32.705 0 0 1 -5.379-5.373l2.354-1.861a29.745 29.745 0 0 0 4.884 4.88z" fill="#454bdb"/><path d="m33.882 76.655a32.363 32.363 0 0 1 -15.952-4.205l1.482-2.61a29.343 29.343 0 0 0 14.47 3.814c16.216 0 29.409-13.193 29.409-29.41v-24.842h-12.027v24.843c0 9.585-7.798 17.383-17.382 17.383s-17.382-7.798-17.382-17.383v-24.843h-12.027v24.843c0 4.936 1.252 9.82 3.62 14.127l-2.628 1.445a32.395 32.395 0 0 1 -3.992-15.572v-27.843h18.027v27.843c0 7.93 6.452 14.383 14.382 14.383s14.382-6.452 14.382-14.383v-27.843h18.026v27.843c0 17.87-14.54 32.41-32.41 32.41" fill="#454bdb"/><path d="m45.2 42.1c0 6.13-4.97 11.1-11.1 11.1-6.129 0-11.1-4.97-11.1-11.1s4.971-11.1 11.1-11.1c6.13 0 11.1 4.97 11.1 11.1" fill="#f2f2f2"/><path d="m33.882 32.783c-5.293 0-9.6 4.307-9.6 9.6s4.307 9.6 9.6 9.6 9.6-4.306 9.6-9.6c0-5.293-4.307-9.6-9.6-9.6m0 22.2c-6.947 0-12.6-5.652-12.6-12.6s5.653-12.6 12.6-12.6 12.6 5.652 12.6 12.6c0 6.947-5.653 12.6-12.6 12.6" fill="#454bdb"/><path d="m39.465 13.877a1.498 1.498 0 1 1 -2.996 0 1.498 1.498 0 0 1 2.996 0" fill="#38d2de"/><path d="m42.509 23.697a1.498 1.498 0 1 1 -2.997-.001 1.498 1.498 0 0 1 2.997 0" fill="#e2e2e2"/><path d="m31.425 3.704a1.988 1.988 0 1 1 -3.976 0 1.988 1.988 0 0 1 3.976 0" fill="#38d2de"/><path d="m27.268 15.866a1.989 1.989 0 1 1 -3.978-.002 1.989 1.989 0 0 1 3.978.002m20.959-12.162a3.027 3.027 0 1 1 -6.053.001 3.027 3.027 0 0 1 6.053 0" fill="#e2e2e2"/><path d="m35.167 47.458v1.523h-1.856v-1.461a5.315 5.315 0 0 1 0-10.525v-1.47h1.856v1.531a5.291 5.291 0 0 1 2.658 1.442c.397.397.724.847.974 1.337l-1.653.845a3.443 3.443 0 0 0 -.634-.87 3.446 3.446 0 0 0 -1.345-.833v6.56a3.446 3.446 0 0 0 1.346-.833 3.44 3.44 0 0 0 .927-1.677l1.81.41c-.22.97-.707 1.86-1.425 2.58a5.293 5.293 0 0 1 -2.658 1.441zm-1.856-8.577a3.459 3.459 0 0 0 0 6.753z" fill="#454bd8"/><path d="m4.091 14.275h3v-8.451h-3zm5.322 0h3v-12.849h-3zm5.322 0h3v-8.451h-3zm36.213 0h3v-8.451h-3zm5.323 0h3v-12.849h-3zm5.322 0h3v-8.451h-3z" fill="#454bdb"/></g></svg>