<svg height="120" viewBox="0 0 112 120" width="112" xmlns="http://www.w3.org/2000/svg"><g fill="none" fill-rule="evenodd"><path d="m64.814 97.458c0 11.032-8.944 19.977-19.977 19.977-11.032 0-19.975-8.945-19.975-19.977 0-11.033 8.943-19.977 19.975-19.977 11.033 0 19.977 8.944 19.977 19.977" fill="#fff"/><path d="m44.838 118.935a21.475 21.475 0 0 1 -20.332-14.542l2.84-.97a18.474 18.474 0 0 0 17.492 12.512c10.188 0 18.476-8.288 18.476-18.477 0-10.188-8.288-18.476-18.476-18.476v-3c11.842 0 21.476 9.635 21.476 21.476 0 11.842-9.634 21.477-21.476 21.477" fill="#454bdb"/><path d="m55.266 97.458c0 5.76-4.67 10.43-10.43 10.43-5.757 0-10.426-4.67-10.426-10.43s4.669-10.428 10.427-10.428c5.76 0 10.429 4.67 10.429 10.43" fill="#e2e2e2"/><g fill="#454bdb"><path d="m44.838 96.939a.521.521 0 0 0 -.521.52.52.52 0 0 0 1.04 0 .52.52 0 0 0 -.52-.52m0 3a2.482 2.482 0 0 1 -2.48-2.48 2.482 2.482 0 0 1 2.48-2.481 2.482 2.482 0 0 1 2.48 2.48 2.482 2.482 0 0 1 -2.48 2.48m-1.499-17.269v-3.472h3v3.472zm10.205 2.74-2.596-1.502 1.74-3.005 2.595 1.502zm4.864 5.982-1.494-2.602 3.01-1.73 1.494 2.603zm4.686 7.624-3.472-.011.01-3 3.472.01-.01 3zm-3.235 8.934-2.999-1.748 1.51-2.592 3 1.748-1.51 2.592zm-7.275 6.113-1.72-3.015 2.606-1.486 1.719 3.015zm-6.336 1.674-3-.02.022-3.471 3 .019zm-9.321-1.748-2.586-1.52 1.759-2.992 2.586 1.52-1.76 2.992zm-7.19-6.183-1.478-2.611 3.023-1.708 1.476 2.61-3.022 1.709zm.3-8.984-3.472-.032.028-3 3.47.032-.027 3zm1.307-7.598-2.988-1.767 1.527-2.582 2.988 1.767zm4.938-5.92-1.7-3.025 2.614-1.471 1.701 3.025z"/><path d="m43.634 97.515.497-12.284h1.413l.496 12.284z"/><path d="m44.807 96.312 10.826.218.036 1.412-10.8.775z"/></g><path d="m21.015 62.004c-10.713.214-19.225 9.072-19.011 19.785.213 10.712 9.072 19.225 19.784 19.01 10.713-.213 19.225-9.071 19.01-19.783-.212-10.714-9.07-19.226-19.783-19.012" fill="#38d2de"/><path d="m21.503 67.003c-7.607.15-13.651 6.44-13.5 14.049.15 7.607 6.44 13.65 14.049 13.5 7.607-.152 13.65-6.443 13.5-14.05-.152-7.606-6.443-13.651-14.05-13.5" fill="#fff"/><path d="m21.797 101.83c-11.333 0-20.664-9.104-20.892-20.484a20.679 20.679 0 0 1 2.069-9.5l2.7 1.303a17.714 17.714 0 0 0 -1.77 8.136c.198 9.87 8.392 17.775 18.256 17.541 9.868-.196 17.738-8.386 17.54-18.254a17.784 17.784 0 0 0 -5.494-12.553c-3.448-3.312-7.993-5.116-12.76-4.989a17.801 17.801 0 0 0 -6.813 1.49l-1.203-2.75a20.807 20.807 0 0 1 7.956-1.74 20.784 20.784 0 0 1 14.899 5.825 20.767 20.767 0 0 1 6.415 14.657c.229 11.522-8.96 21.084-20.48 21.314-.142.003-.283.004-.424.004" fill="#454bdb"/><path d="m6.696 71.32-2.529-1.614c.69-1.08 1.48-2.1 2.35-3.033l2.193 2.047a18.093 18.093 0 0 0 -2.014 2.6m3.308-3.854-1.98-2.254a20.85 20.85 0 0 1 3.733-2.616l1.443 2.629a18.054 18.054 0 0 0 -3.196 2.241" fill="#454bdb"/><path d="m23.778 89.185v2.32h-2.828v-2.227a8.062 8.062 0 0 1 -4.577-2.29 8.099 8.099 0 0 1 0-11.456 8.063 8.063 0 0 1 4.577-2.291v-2.241h2.828v2.334a8.063 8.063 0 0 1 4.05 2.198 8.074 8.074 0 0 1 1.485 2.036l-2.519 1.287a5.246 5.246 0 0 0 -.966-1.323 5.25 5.25 0 0 0 -2.05-1.271v9.998a5.251 5.251 0 0 0 2.05-1.271 5.242 5.242 0 0 0 1.414-2.556l2.758.625a8.07 8.07 0 0 1 -2.171 3.93 8.065 8.065 0 0 1 -4.05 2.198zm-2.828-13.071a5.27 5.27 0 0 0 0 10.291z" fill="#454bd8"/><path d="m102.807 18.667a1.344 1.344 0 1 1 -2.688-.002 1.344 1.344 0 0 1 2.688.002" fill="#38d2de"/><path d="m33.743 18.99a1.344 1.344 0 1 1 -2.688-.002 1.344 1.344 0 0 1 2.688.003m59.759-15.291a1.763 1.763 0 1 1 -3.527 0 1.763 1.763 0 0 1 3.527 0" fill="#e2e2e2"/><path d="m22.161 6.631a1.763 1.763 0 1 1 -3.526 0 1.763 1.763 0 0 1 3.526 0" fill="#38d2de"/><path d="m111.752 4.796a3.24 3.24 0 1 1 -6.48 0 3.24 3.24 0 0 1 6.48 0m-66.695-2.504a2.293 2.293 0 1 1 -4.586-.001 2.293 2.293 0 0 1 4.586.001" fill="#e2e2e2"/><path d="m65.486 18.945c-16.976.338-30.463 14.374-30.124 31.35.338 16.974 14.374 30.462 31.35 30.124 16.974-.338 30.461-14.374 30.123-31.35s-14.375-30.463-31.349-30.124" fill="#f2f2f2"/><path d="m94.906 44.626c-2.419-13.882-14.749-24.186-28.813-24.186a29.364 29.364 0 0 0 -7.757 1.041l-.795-2.892a32.36 32.36 0 0 1 7.916-1.143c15.755-.299 29.701 11.15 32.404 26.665l-2.955.516zm-57.774 1.023-2.973-.41a32.271 32.271 0 0 1 5.217-13.602l2.485 1.682a29.24 29.24 0 0 0 -4.73 12.33m8.124-16.477-2.14-2.104a32.176 32.176 0 0 1 9.604-6.73l1.246 2.73a29.176 29.176 0 0 0 -8.71 6.104m22.344 25.268v4.735h-3v-4.734h-6.474v-3h6.475v-4.541h-.385a5.276 5.276 0 0 1 -5.27-5.27 5.276 5.276 0 0 1 5.27-5.268h.385v-4.735h3v4.735h6.474v3h-6.474v4.539h.674a5.276 5.276 0 0 1 5.27 5.269 5.276 5.276 0 0 1 -5.27 5.27h-.674zm0-3h.674a2.273 2.273 0 0 0 2.27-2.27 2.273 2.273 0 0 0 -2.27-2.268h-.673v4.539zm-3-12.077h-.385a2.272 2.272 0 0 0 -2.27 2.269 2.273 2.273 0 0 0 2.27 2.27h.385v-4.54z" fill="#454bdb"/><path d="m79.87 49.972c0 7.612-6.15 13.764-13.744 13.764-7.603 0-13.762-6.152-13.762-13.764l-27.452.32v2.033c-.013 2.384 1.921 4.334 4.316 4.355l6.688.02a30.571 30.571 0 0 0 3.987 9.657l-4.767 4.75c-1.69 1.677-1.7 4.417-.01 6.119l3.52 3.552a4.325 4.325 0 0 0 6.136.026l4.758-4.718a30.927 30.927 0 0 0 9.66 4.042l-.027 6.689a4.328 4.328 0 0 0 4.32 4.348l5.016.02c2.394 0 4.341-1.923 4.341-4.31l.021-6.707a31.07 31.07 0 0 0 9.673-3.993l4.73 4.764c1.684 1.688 4.438 1.688 6.147 0l3.535-3.54c1.701-1.681 1.711-4.436.004-6.116l-4.705-4.758a30.91 30.91 0 0 0 4.017-9.665l6.696.02a4.342 4.342 0 0 0 4.341-4.328v-2.836z" fill="#fff"/><path d="m49.332 74.18 1.01.639a29.439 29.439 0 0 0 9.192 3.847l1.171.268-.032 7.889a2.815 2.815 0 0 0 .828 2.012c.533.535 1.24.83 1.992.83l5.022.02c1.561 0 2.837-1.26 2.837-2.81l.023-7.908 1.167-.263a29.462 29.462 0 0 0 9.205-3.8l1.017-.637 5.574 5.615c1.098 1.1 2.906 1.097 4.028-.011l3.529-3.532a2.794 2.794 0 0 0 .841-2.007 2.76 2.76 0 0 0 -.829-1.98l-5.556-5.62.635-1.007a29.399 29.399 0 0 0 3.824-9.196l.265-1.173 7.899.024a2.849 2.849 0 0 0 2.836-2.834v-1.316l-24.511.228c-.749 7.722-7.268 13.778-15.173 13.778-7.903 0-14.424-6.04-15.187-13.747l-24.526.286v.55a2.848 2.848 0 0 0 2.828 2.855l7.875.024.263 1.166a29.062 29.062 0 0 0 3.792 9.184l.643 1.017-5.62 5.599a2.83 2.83 0 0 0 -.005 3.999l3.523 3.553a2.826 2.826 0 0 0 2.014.845h.005c.752 0 1.459-.292 1.991-.824zm19.177 18.505-5.022-.02a5.772 5.772 0 0 1 -4.111-1.712 5.794 5.794 0 0 1 -1.703-4.142l.022-5.512a32.298 32.298 0 0 1 -7.931-3.322l-3.925 3.892a5.772 5.772 0 0 1 -4.107 1.698h-.013a5.8 5.8 0 0 1 -4.138-1.734l-3.521-3.551a5.812 5.812 0 0 1 -1.697-4.128 5.779 5.779 0 0 1 1.716-4.112l3.931-3.916a31.965 31.965 0 0 1 -3.272-7.93l-5.514-.016c-3.226-.027-5.829-2.658-5.811-5.864v-3.506l30.451-.356v1.518c0 6.763 5.501 12.264 12.262 12.264 6.751 0 12.244-5.501 12.244-12.264v-1.486l30.44-.284v4.35c-.013 3.217-2.634 5.828-5.841 5.828l-5.523-.016a32.32 32.32 0 0 1 -3.302 7.937l3.882 3.927a5.723 5.723 0 0 1 1.71 4.1 5.765 5.765 0 0 1 -1.725 4.139l-3.529 3.532c-2.299 2.27-6.007 2.268-8.27-.001l-3.903-3.931a32.467 32.467 0 0 1 -7.942 3.279l-.015 5.534c0 3.199-2.622 5.805-5.843 5.805zm-4.71-78.624v-4.371h3v4.371zm15.154 2.392-2.818-1.027 3.548-9.737 2.82 1.028zm10.6 6.41-2.296-1.93 3.334-3.965 2.297 1.928-3.334 3.967zm7.765 9.653-1.496-2.6 8.981-5.171 1.496 2.6-8.98 5.17zm3.992 11.726-.516-2.955 5.127-.895.516 2.955zm-70.677 1.315-5.098-.963.557-2.947 5.098.963zm3.564-11.889-8.943-5.236 1.515-2.59 8.944 5.236zm7.411-9.955-3.118-3.766 2.31-1.914 3.12 3.766zm10.373-6.816-3.477-9.763 2.827-1.006 3.476 9.763z" fill="#454bdb"/></g></svg>