<svg height="132" viewBox="0 0 108 132" width="108" xmlns="http://www.w3.org/2000/svg"><g fill="none" fill-rule="evenodd"><path d="m17.518 74.828a1.301 1.301 0 1 1 -2.603 0 1.301 1.301 0 0 1 2.603 0m-6.926 4.684a1.9 1.9 0 1 1 -3.799 0 1.9 1.9 0 0 1 3.799 0" fill="#38d2de"/><path d="m33.374 127.408v-46.028a2.899 2.899 0 0 1 2.898-2.899h21.476a2.898 2.898 0 0 1 2.898 2.9v46.028a2.897 2.897 0 0 1 -2.898 2.898h-21.476a2.898 2.898 0 0 1 -2.898-2.898" fill="#f2f2f2"/><path d="m57.748 131.807h-21.476a4.403 4.403 0 0 1 -4.398-4.398h3a1.4 1.4 0 0 0 1.398 1.398h21.476a1.4 1.4 0 0 0 1.398-1.398v-46.03a1.4 1.4 0 0 0 -1.398-1.398h-21.476a1.4 1.4 0 0 0 -1.398 1.398v1.52h-3v-1.52a4.402 4.402 0 0 1 4.398-4.398h21.476a4.402 4.402 0 0 1 4.398 4.398v46.03a4.402 4.402 0 0 1 -4.398 4.398" fill="#454bdb"/><path d="m37.955 104.306c.101-5.07 4.293-9.1 9.363-8.997a9.182 9.182 0 1 1 -.366 18.359 9.18 9.18 0 0 1 -8.997-9.362" fill="#fff"/><path d="m47.142 115.17c-.073 0-.146 0-.22-.002l.06-3c2.09.016 3.996-.72 5.475-2.14a7.623 7.623 0 0 0 2.358-5.385c.073-3.635-2.443-6.85-5.981-7.648l.66-2.926c4.922 1.11 8.42 5.58 8.32 10.633a10.614 10.614 0 0 1 -3.277 7.49 10.615 10.615 0 0 1 -7.395 2.978" fill="#454bdb"/><path d="m44.92 118.764a2.474 2.474 0 1 1 4.947.1 2.474 2.474 0 0 1 -4.947-.1m0-29.204a2.474 2.474 0 1 1 4.947.099 2.474 2.474 0 0 1 -4.947-.1" fill="#fff"/><path d="m45.397 108.73a3.242 3.242 0 0 1 -3.239-3.238v-4.681h3v4.68c0 .264.477.264.477 0v-1.871a3.243 3.243 0 0 1 3.239-3.24 3.242 3.242 0 0 1 3.237 3.24v4.547h-3v-4.547c0-.264-.476-.264-.476 0v1.872a3.242 3.242 0 0 1 -3.238 3.238" fill="#454bdb"/><path d="m40.783 105.989h12.703v-3h-12.703zm3.379-23.402v.004zm13.851 8.74h-3v-3.018a6.382 6.382 0 0 1 -4.752-4.753h-6.254a6.646 6.646 0 0 1 -.244.792l-2.803-1.073c.114-.296.185-.61.212-.934a1.92 1.92 0 0 1 1.917-1.785h8.092c1.01 0 1.834.768 1.917 1.787a3.45 3.45 0 0 0 3.145 3.131 1.893 1.893 0 0 1 1.77 1.894v3.958zm-13.852 34.434.001.003v-.003m7.02 2.036h-8.093a1.92 1.92 0 0 1 -1.917-1.788 3.438 3.438 0 0 0 -2.26-2.94l1.012-2.825a6.443 6.443 0 0 1 4.083 4.553h6.254a6.382 6.382 0 0 1 4.752-4.753v-3.017h3v3.958a1.893 1.893 0 0 1 -1.77 1.894 3.45 3.45 0 0 0 -3.145 3.132 1.92 1.92 0 0 1 -1.917 1.786" fill="#454bdb"/><path d="m3.537 72.293a1.151 1.151 0 1 1 -2.303.001 1.151 1.151 0 0 1 2.303 0m25.863 6.282a.937.937 0 1 1 -1.875 0 .937.937 0 0 1 1.874 0" fill="#e2e2e2"/><path d="m26.6 130.18a.737.737 0 0 1 -.812.009l-13.923-12.505a20.296 20.296 0 0 1 -6.734-15.072l-.021-16.276a.734.734 0 0 1 .756-.762c1.959.055 4.423.107 6.72.107 2.747 0 4.766-.075 6-.225 3.41-.418 5.882-2.39 7.454-3.67a.712.712 0 0 1 .898-.004c1.607 1.284 4.076 3.219 7.538 3.723 1.136.166 2.942.249 5.372.249 2.312 0 4.825-.073 6.734-.145a.73.73 0 0 1 .758.759l-.02 16.425a20.295 20.295 0 0 1 -6.885 15.21l-13.835 12.179z" fill="#fff"/><path d="m26.556 127.309a.65.65 0 0 1 -.717.007l-12.271-11.022a17.886 17.886 0 0 1 -5.935-13.285l-.02-14.345a.647.647 0 0 1 .668-.671c1.726.047 3.898.094 5.922.094 2.422 0 4.202-.066 5.289-.198 3.005-.368 5.184-2.107 6.57-3.235a.625.625 0 0 1 .79-.004c1.418 1.132 3.595 2.838 6.645 3.282 1 .146 2.594.22 4.735.22 2.038 0 4.253-.065 5.936-.128a.64.64 0 0 1 .667.668l-.016 14.478a17.888 17.888 0 0 1 -6.07 13.407z" fill="#38d2de"/><path d="m6.608 86.281v.053a.469.469 0 0 0 0-.053zm39.231.084a.241.241 0 0 0 0 .039zm-40.017.708h.003zm20.364 44.733c-.42 0-.843-.119-1.213-.357l-.189-.145-13.922-12.504a21.833 21.833 0 0 1 -7.232-16.187l-.02-16.275c-.023-.563.213-1.166.645-1.604a2.273 2.273 0 0 1 1.651-.66l1.743.044-.072 3-.968-.025.021 15.516a18.824 18.824 0 0 0 6.236 13.958l13.328 11.972 13.25-11.66a18.806 18.806 0 0 0 6.376-14.088l.018-15.655c-1.703.06-3.92.118-5.992.118-2.54 0-4.369-.087-5.588-.265-3.546-.517-6.107-2.34-7.763-3.644-1.59 1.272-4.217 3.17-7.728 3.6l-.365-2.978c3.041-.373 5.325-2.233 6.69-3.345a2.2 2.2 0 0 1 2.78-.014c1.474 1.18 3.703 2.958 6.82 3.412 1.06.156 2.793.234 5.154.234a183.8 183.8 0 0 0 6.68-.145 2.2 2.2 0 0 1 1.663.653c.437.438.673 1.044.65 1.664l-.019 16.37a21.804 21.804 0 0 1 -7.395 16.334l-13.99 12.296c-.378.253-.813.38-1.249.38z" fill="#454bdb"/><path d="m12.586 87.18v-3c.834 0 1.6-.006 2.297-.02l.062 3c-.715.014-1.502.02-2.36.02" fill="#454bdb"/><path d="m37.93 104.828c0 6.355-5.152 11.508-11.508 11.508-6.355 0-11.507-5.153-11.507-11.508s5.152-11.507 11.507-11.507c6.356 0 11.508 5.152 11.508 11.507" fill="#fefeff"/><path d="m24.438 111.349-5.891-5.891 2.12-2.121 3.77 3.77 7.738-7.738 2.122 2.12z" fill="#454bdb"/><path d="m60.37 33.003c-9.224.185-16.55 7.81-16.367 17.033.184 9.222 7.81 16.55 17.032 16.366 9.223-.184 16.551-7.81 16.366-17.032-.183-9.222-7.809-16.55-17.032-16.367" fill="#f2f2f2"/><path d="m59.9 35.002c-8.381.167-15.063 7.122-14.896 15.503.164 8.278 6.952 14.899 15.195 14.899l.306-.003c8.38-.167 15.064-7.122 14.897-15.502a15.096 15.096 0 0 0 -4.666-10.66c-2.93-2.813-6.79-4.307-10.836-4.237m.298 33.402c-9.87 0-17.997-7.926-18.194-17.84-.2-10.034 7.8-18.361 17.835-18.562 4.88-.067 9.47 1.706 12.976 5.074a18.087 18.087 0 0 1 5.587 12.763c.198 10.034-7.802 18.36-17.836 18.561l-.368.003" fill="#454bdb"/><path d="m61.778 58.185v2.32h-2.828v-2.227a8.062 8.062 0 0 1 -4.577-2.29 8.099 8.099 0 0 1 0-11.456 8.063 8.063 0 0 1 4.577-2.291v-2.241h2.828v2.334a8.063 8.063 0 0 1 4.05 2.198 8.074 8.074 0 0 1 1.485 2.036l-2.519 1.287a5.246 5.246 0 0 0 -.966-1.323 5.25 5.25 0 0 0 -2.05-1.271v9.998a5.251 5.251 0 0 0 2.05-1.271 5.242 5.242 0 0 0 1.414-2.556l2.758.625a8.07 8.07 0 0 1 -2.171 3.93 8.065 8.065 0 0 1 -4.05 2.198zm-2.828-13.071a5.27 5.27 0 0 0 0 10.291z" fill="#454bd8"/><path d="m98.196 5.124a3.657 3.657 0 1 1 -7.314 0 3.657 3.657 0 0 1 7.314 0m-7.383 21.326a1.059 1.059 0 1 1 -2.118 0 1.059 1.059 0 0 1 2.118 0" fill="#e2e2e2"/><path d="m106.162 20.88a1.887 1.887 0 1 1 -3.773-.001 1.887 1.887 0 0 1 3.773.001" fill="#38d2de"/><path d="m20.974 7.136a2.681 2.681 0 1 1 -5.363 0 2.681 2.681 0 0 1 5.363 0m18.908 5.894a1.584 1.584 0 1 1 -3.169 0 1.584 1.584 0 0 1 3.169 0" fill="#e2e2e2"/><path d="m25.63 28.268a3.67 3.67 0 1 1 -7.338-.001 3.67 3.67 0 0 1 7.339 0" fill="#38d2de"/><path d="m91.292 83.216-9.796-9.783 2.119-2.123 9.796 9.783z" fill="#454bdb"/><path d="m60.422 75.37c-14.021 0-25.387-11.366-25.387-25.387 0-14.02 11.366-25.385 25.387-25.385 14.02 0 25.386 11.365 25.386 25.385 0 14.022-11.365 25.387-25.386 25.387m0-58.802c-18.454 0-33.415 14.961-33.415 33.415 0 18.455 14.96 33.416 33.415 33.416s33.415-14.96 33.415-33.416c0-18.454-14.96-33.415-33.415-33.415" fill="#4178da"/><path d="m42.665 23.46-1.672-2.49a34.787 34.787 0 0 1 8.621-4.197l.928 2.854a31.748 31.748 0 0 0 -7.877 3.833m-5.855 5.051-2.219-2.02a35.182 35.182 0 0 1 3.268-3.155l1.942 2.287a32.148 32.148 0 0 0 -2.991 2.888m23.612 56.389c-9.326 0-18.095-3.63-24.69-10.226-6.594-6.595-10.226-15.363-10.225-24.69 0-7.517 2.351-14.678 6.802-20.709l2.414 1.782c-4.067 5.51-6.216 12.055-6.216 18.927 0 8.526 3.319 16.54 9.347 22.57 6.028 6.026 14.042 9.346 22.568 9.346 17.597 0 31.915-14.317 31.915-31.916 0-17.597-14.318-31.915-31.915-31.915-2.151 0-4.3.215-6.388.64l-.598-2.94c2.286-.464 4.636-.7 6.986-.7 19.252 0 34.915 15.663 34.915 34.915 0 19.253-15.663 34.916-34.915 34.916" fill="#454bdb"/><path d="m84.802 83.943 10.27 10.256 9.328-9.341-10.27-10.256z" fill="#e2e2e2"/><g fill="#454bdb"><path d="m93.889 95.138-11.209-11.194 11.448-11.463 11.207 11.193-2.12 2.123-9.085-9.074-7.208 7.219 9.085 9.073z"/><path d="m92.358 91.944-2.123-2.12 9.783-9.795 2.123 2.119z"/></g></g></svg>