<svg height="64" viewBox="0 0 64 64" width="64" xmlns="http://www.w3.org/2000/svg"><g fill="none" fill-rule="evenodd"><path d="m44.236 17.393a9.229 9.229 0 1 1 -18.458 0 9.229 9.229 0 0 1 18.458 0" fill="#4cccd6"/><path d="m55.099 36.968h-1.202a3.049 3.049 0 0 0 3.04-3.04 3.049 3.049 0 0 0 -3.04-3.04h-18.891s2.509-6.311 2.508-9.297c-.001-1.367.313-4.127-.53-5.441-.337-.528-2.77-.54-3.112-.017 0 0-2.307 7.159-3.835 9.25-.87 1.189-4.2 5.506-4.2 5.506h-5.161l-2.706 19.611h6.609c.66 0 1.29.265 1.752.737l3.027 3.092a2.907 2.907 0 0 0 2.077.874h17.284a3.048 3.048 0 0 0 3.039-3.04 3.048 3.048 0 0 0 -3.04-3.04h3.19a3.05 3.05 0 0 0 3.04-3.038 3.05 3.05 0 0 0 -3.04-3.04h3.19a3.048 3.048 0 0 0 3.04-3.04 3.048 3.048 0 0 0 -3.04-3.038" fill="#fff"/><path d="m35.007 28.383h.914c.717-2.1 1.594-5.025 1.593-6.792-.001-.81.103-2.102.018-3.297-.01.29-.018.564-.018.79 0 2.987-2.507 9.299-2.507 9.299" fill="#f1f2f2"/><path d="m48.719 51.809h-17.284c-.781 0-1.53-.427-2.077-1.184l-3.027-4.188c-.461-.64-1.092-1-1.752-1h-6.263l-.346 4.998h6.609c.66 0 1.29.359 1.752.998l3.027 2.588c.547.757 1.296 1.184 2.077 1.184h17.284c1.672 0 3.04-1.854 3.04-4.118 0-.606-.104-1.177-.28-1.698-.481 1.422-1.535 2.42-2.76 2.42" fill="#4cccd6"/><g fill="#454bd8"><path d="m54.79 43.924h-5.192v-1.756h5.192c1.192 0 2.162-.97 2.162-2.161s-.97-2.161-2.162-2.161h-5.192v-1.756h5.192a3.922 3.922 0 0 1 3.918 3.917 3.922 3.922 0 0 1 -3.918 3.917"/><path d="m51.6 50.003h-7.333v-1.756h7.333c1.19 0 2.16-.97 2.16-2.161 0-1.192-.97-2.162-2.16-2.162h-7.334v-1.756h7.334a3.922 3.922 0 0 1 3.917 3.918 3.921 3.921 0 0 1 -3.917 3.917"/><path d="m48.411 56.082h-17.284a3.8 3.8 0 0 1 -2.705-1.138l-3.027-3.092a1.557 1.557 0 0 0 -1.124-.473h-6.61v-1.756h6.61c.89 0 1.757.364 2.38 1l3.027 3.093c.38.387.907.61 1.45.61h17.282c1.191 0 2.161-.97 2.161-2.162 0-1.191-.97-2.161-2.16-2.161h-2.865v-1.756h2.864a3.921 3.921 0 0 1 3.917 3.917 3.922 3.922 0 0 1 -3.917 3.918m-4.143-18.236v-1.756h9.322c1.19 0 2.16-.97 2.16-2.162 0-1.191-.97-2.161-2.16-2.161h-20.184l.478-1.202c.024-.062 2.445-6.19 2.444-8.973-.001-.273.01-.6.025-.96.044-1.213.11-3.021-.353-3.9-.355-.13-1.277-.14-1.696-.031-.465 1.41-2.438 7.248-3.865 9.202-.865 1.183-4.077 5.346-4.213 5.523l-.264.34h-5.594v-1.755h4.73c.805-1.044 3.213-4.174 3.923-5.145 1.184-1.622 3.079-7.048 3.709-9.002l.1-.211c.422-.646 1.454-.785 2.26-.785.849.005 1.905.149 2.327.809.827 1.29.748 3.446.69 5.02-.011.335-.023.639-.023.893.002 2.329-1.372 6.399-2.112 8.42h17.618a3.921 3.921 0 0 1 3.917 3.918 3.922 3.922 0 0 1 -3.917 3.918z"/></g><path d="m6 53.449h16.907v-25.861h-16.907z" fill="#eee"/><path d="m6 28.466h3.323v-1.756h-3.323zm14.384 25.861h-14.384v-1.756h14.384c.907 0 1.646-.738 1.646-1.645v-20.815c0-.907-.74-1.645-1.646-1.645h-3.711v-1.756h3.71a3.404 3.404 0 0 1 3.402 3.401v20.815a3.404 3.404 0 0 1 -3.401 3.401m-10.033-25.861h3.787v-1.756h-3.787zm23.778-21.027h1.756v-1.967h-1.756zm5.114.904-1.65-.602 1.347-3.694 1.651.602zm2.857 1.984-1.368-1.102 1.21-1.503 1.37 1.101zm1.976 2.868-.875-1.523 3.41-1.959.874 1.523zm.891 3.362-.303-1.73 1.924-.336.303 1.73zm3.553 4.159-3.87-.696.31-1.73 3.87.697zm-3.754 3.381-1.6-.933.885-1.517 1.6.932zm-1.559 4.538-2.513-3.023 1.352-1.123 2.513 3.023zm-18.18-4.695-.783-1.573 1.711-.853.783 1.572zm-3.572-3.39-.289-1.731 3.88-.65.288 1.734zm3.668-4.105-1.933-.217.196-1.746 1.932.217zm.868-3.36-3.386-2 .893-1.512 3.386 2zm2.039-2.808-1.247-1.427 1.322-1.156 1.247 1.427zm2.85-1.985-1.302-3.71 1.658-.582 1.303 3.71z" fill="#454bd8"/></g></svg>