<svg height="64" viewBox="0 0 64 64" width="64" xmlns="http://www.w3.org/2000/svg" xmlns:xlink="http://www.w3.org/1999/xlink"><mask id="a" fill="#fff"><path d="m0 52.85h53.153v-52.85h-53.153z" fill="#fff" fill-rule="evenodd"/></mask><g fill="none" fill-rule="evenodd" transform="translate(5 4)"><path d="m29.28 52.85h-5.464v-49.24a2.733 2.733 0 1 1 5.463 0v49.24z" fill="#fff"/><path d="m30.157 52.85h-1.756v-49.47c0-.894-.728-1.623-1.623-1.623h-.46c-.895 0-1.624.729-1.624 1.623v49.47h-1.756v-49.471a3.383 3.383 0 0 1 3.38-3.38h.46a3.383 3.383 0 0 1 3.38 3.38v49.471z" fill="#454bd8"/><path d="m7.407 13.957h38.281v-1.757h-38.281z" fill="#454bd8" mask="url(#a)"/><path d="m32.318 12.74a5.738 5.738 0 1 1 -11.476 0 5.738 5.738 0 0 1 11.476 0" fill="#eee" mask="url(#a)"/><path d="m26.58 7.88a4.865 4.865 0 0 0 -4.86 4.86 4.865 4.865 0 0 0 4.86 4.86 4.866 4.866 0 0 0 4.86-4.86c0-2.68-2.18-4.86-4.86-4.86m0 11.477a6.624 6.624 0 0 1 -6.616-6.617 6.623 6.623 0 0 1 6.615-6.616 6.624 6.624 0 0 1 6.617 6.616 6.624 6.624 0 0 1 -6.617 6.617m22.331 12.801-7.38-20.596 1.653-.59 7.38 20.594z" fill="#454bd8" mask="url(#a)"/><path d="m37.177 32.18-1.637-.636 8.004-20.595 1.637.636z" fill="#454bd8" mask="url(#a)"/><path d="m52.275 31.048a9.172 9.172 0 0 1 -18.341 0z" fill="#4cccd6" mask="url(#a)"/><path d="m4.244 32.158-1.654-.592 7.38-20.595 1.654.591z" fill="#454bd8" mask="url(#a)"/><path d="m15.976 32.18-8.003-20.594 1.637-.636 8.003 20.595z" fill="#454bd8" mask="url(#a)"/><path d="m.878 31.048a9.172 9.172 0 0 0 18.341 0z" fill="#4cccd6" mask="url(#a)"/><path d="m50.709 37.617-1.328-1.148a8.327 8.327 0 0 0 1.194-1.817l1.582.764a10.056 10.056 0 0 1 -1.448 2.201" fill="#454bd8" mask="url(#a)"/><path d="m43.105 41.097c-5.54 0-10.048-4.508-10.048-10.05v-.877h20.096v.878c0 1.229-.218 2.428-.65 3.566l-1.642-.623a8.192 8.192 0 0 0 .49-2.065h-16.491c.44 4.16 3.971 7.415 8.246 7.415a8.35 8.35 0 0 0 2.146-.28 8.21 8.21 0 0 0 2.568-1.19l1 1.446a9.986 9.986 0 0 1 -5.714 1.78m-41.303-9.171c.439 4.16 3.97 7.415 8.245 7.415 4.276 0 7.807-3.254 8.246-7.415zm8.245 9.17c-5.541.001-10.048-4.506-10.048-10.047v-.878h20.097v.878c0 5.54-4.508 10.049-10.05 10.049z" fill="#454bd8" mask="url(#a)"/><path d="m45.538 13.08a2.41 2.41 0 1 1 -4.82-.001 2.41 2.41 0 0 1 4.82 0" fill="#eee" mask="url(#a)"/><path d="m43.127 11.546a1.533 1.533 0 1 0 1.533 1.533c0-.845-.688-1.533-1.533-1.533m0 4.82a3.291 3.291 0 0 1 -3.288-3.287 3.293 3.293 0 0 1 3.288-3.29 3.293 3.293 0 0 1 3.289 3.29 3.292 3.292 0 0 1 -3.289 3.288" fill="#454bd8" mask="url(#a)"/><path d="m12.458 13.08a2.41 2.41 0 1 1 -4.82 0 2.41 2.41 0 0 1 4.82 0" fill="#eee" mask="url(#a)"/><path d="m10.048 11.546a1.533 1.533 0 0 0 0 3.065 1.533 1.533 0 0 0 0-3.065m0 4.82a3.291 3.291 0 0 1 -3.288-3.286 3.293 3.293 0 0 1 3.288-3.29 3.293 3.293 0 0 1 3.288 3.29 3.291 3.291 0 0 1 -3.288 3.288" fill="#454bd8" mask="url(#a)"/></g></svg>