<svg height="64" viewBox="0 0 64 64" width="64" xmlns="http://www.w3.org/2000/svg"><g fill="none" fill-rule="evenodd"><path d="m58.756 51.44h-53.627a1.406 1.406 0 0 1 -1.402-1.402v-37.758c0-.772.63-1.403 1.402-1.403h53.627c.77 0 1.402.631 1.402 1.403v37.758c0 .77-.631 1.401-1.402 1.401" fill="#eee"/><path d="m37.922 11.756h3.897v-1.756h-3.897z" fill="#454bd8"/><path d="m58.756 52.317h-53.627a2.281 2.281 0 0 1 -2.28-2.279v-37.758a2.282 2.282 0 0 1 2.28-2.28h28.894v1.755h-28.894a.532.532 0 0 0 -.524.525v37.758c0 .283.24.523.524.523h53.627a.53.53 0 0 0 .524-.523v-37.758a.532.532 0 0 0 -.524-.525h-12.488v-1.755h12.488a2.282 2.282 0 0 1 2.28 2.28v37.758a2.281 2.281 0 0 1 -2.28 2.28" fill="#454bd8"/><path d="m6.466 46.985h50.646v-32.915h-50.646z" fill="#fff"/><path d="m59.173 53.692h-55.083a2.7 2.7 0 0 1 -2.664-2.263l-.393-2.393h25.53l.976 1.402h7.055l1.056-1.402h26.894l-.342 2.081a3.07 3.07 0 0 1 -3.03 2.575" fill="#eee"/><path d="m2.068 49.914.226 1.373c.144.885.9 1.527 1.796 1.527h55.082c1.08 0 1.99-.773 2.164-1.838l.174-1.062h-25.42l-1.057 1.402h-7.952l-.977-1.402zm57.104 4.656h-55.082a3.565 3.565 0 0 1 -3.53-2.998l-.56-3.414h27.022l.978 1.402h6.157l1.056-1.402h28.367l-.509 3.102a3.934 3.934 0 0 1 -3.898 3.31z" fill="#454bd8"/><path d="m43.77 18.913h-23.394l-3.899 6.753 15.595 17.738 15.596-17.738z" fill="#4cccd6"/><g fill="#454bd8"><path d="m17.554 25.56 14.519 16.515 14.52-16.515-3.33-5.77h-22.38l-3.33 5.77zm14.519 19.175-16.671-18.962 4.467-7.737h24.409l4.467 7.737z"/><path d="m16.478 26.544h31.191v-1.756h-31.191z"/><path d="m31.269 43.758-7.797-17.738 1.608-.707 7.796 17.738z"/><path d="m32.877 43.353-1.607-.706 7.796-17.738 1.608.707z"/><path d="m31.194 43h1.756v-17.334h-1.756zm-7.679-16.895-3.9-6.753 1.522-.879 3.899 6.754z"/><path d="m31.314 26.105-3.9-6.753 1.52-.879 3.9 6.754zm7.797 0-3.899-6.753 1.521-.879 3.9 6.754z"/><path d="m40.63 26.105-1.52-.879 3.899-6.752 1.52.879zm-7.797 0-1.521-.879 3.9-6.752 1.521.879zm-7.797 0-1.52-.879 3.898-6.752 1.521.879z"/></g></g></svg>