<svg height="34" viewBox="0 0 34 34" width="34" xmlns="http://www.w3.org/2000/svg"><g fill="#fff"><path d="m32.1232877 17c0-8.35218871-6.771099-15.12328767-15.1232877-15.12328767-8.35218871 0-15.12328767 6.77109896-15.12328767 15.12328767 0 8.3521887 6.77109896 15.1232877 15.12328767 15.1232877 8.3521887 0 15.1232877-6.771099 15.1232877-15.1232877zm1.7534246 0c0 9.3205784-7.5561339 16.8767123-16.8767123 16.8767123-9.32057841 0-16.87671233-7.5561339-16.87671233-16.8767123 0-9.32057841 7.55613392-16.87671233 16.87671233-16.87671233 9.3205784 0 16.8767123 7.55613392 16.8767123 16.87671233z"/><path d="m25.0552083 10.5385263c.2825851-.3931798.8304007-.4828345 1.2235805-.2002495s.4828345.8304007.2002495 1.2235805l-10.5944886 14.7408322-7.0487048-9.8148436c-.28244258-.3932822-.19258936-.9410653.20069278-1.2235079.39328214-.2824425.94106526-.1925893 1.22350782.2006928l5.6250486 7.8324989z"/></g></svg>