<svg clip-rule="evenodd" fill-rule="evenodd" stroke-linejoin="round" stroke-miterlimit="1.41421" viewBox="0 0 30 30" xmlns="http://www.w3.org/2000/svg"><path d="m15.499 10c-3.371 0-6.104 2.733-6.104 6.105 0 2.697 1.749 4.985 4.175 5.793.306.055.417-.133.417-.295 0-.145-.005-.529-.008-1.038-1.698.369-2.057-.819-2.057-.819-.277-.705-.678-.892-.678-.892-.554-.379.042-.372.042-.372.613.044.935.63.935.63.545.932 1.429.663 1.777.507.056-.395.213-.664.388-.816-1.356-.154-2.781-.678-2.781-3.017 0-.667.238-1.212.628-1.639-.063-.154-.272-.775.06-1.615 0 0 .513-.164 1.679.626.487-.136 1.009-.203 1.528-.206.518.003 1.041.07 1.528.206 1.166-.79 1.678-.626 1.678-.626.333.84.123 1.461.06 1.615.391.427.628.972.628 1.639 0 2.345-1.428 2.861-2.788 3.012.22.188.415.561.415 1.131 0 .815-.008 1.474-.008 1.674 0 .163.11.353.42.294 2.424-.809 4.172-3.096 4.172-5.792 0-3.372-2.734-6.105-6.106-6.105" fill="#1d54d3"/></svg>