<svg clip-rule="evenodd" fill-rule="evenodd" stroke-linejoin="round" stroke-miterlimit="2" viewBox="0 0 318 109" xmlns="http://www.w3.org/2000/svg"><path d="m37.082 26.718c3.069-4.579 8.83-7.791 15.182-7.791s12.113 3.212 15.183 7.791c5.5.369 11.162 3.752 14.338 9.253 3.176 5.5 3.275 12.095.844 17.044 2.431 4.948 2.332 11.543-.844 17.044-3.176 5.5-8.838 8.884-14.338 9.253-3.07 4.579-8.831 7.791-15.183 7.791s-12.113-3.212-15.182-7.791c-5.501-.369-11.163-3.753-14.339-9.253-3.176-5.501-3.275-12.096-.844-17.044-2.431-4.949-2.332-11.544.844-17.044 3.176-5.501 8.838-8.884 14.339-9.253z" fill="#1d54d3"/><path d="m72.396 55.633c-1.737-.259-2.929-.995-4.103-2.264 3.581.254 3.554-.766 3.554-.766s.163-.453-.809-.905c-.43-.2-.852-.491-1.221-.727.35.046 5.415.473 5.996-1.505-2.932-.399-6.255-.79-8.653-1.86-.885-.394-2.061-.845-2.676-1.685.786.059 2.123.104 3.274-.185 1.272-.32 2.51-.78 3.206-1.898.399-.638.406-1.318.406-1.318s-.846.458-1.74.683c-2.017.509-4.133.307-4.95.22-.881-.094-3.875-.442-3.781-1.124.085-.618 2.705-.403 3.227-.356.713.064 1.424.154 2.138.201-1.577-1.004-3.441-1.588-5.223-2.079-2.712-.749-5.63-.917-8.344-.135-1.168.336-2.842 1.138-3.699 2.615-1.916 3.304.528 7.3 2.856 9.661 2.761 2.799 5.216 4.081 7.536 5.062 2.321.981 7.13 2.376 10.674.688 2.365-1.126 2.332-2.323 2.332-2.323z" fill="#fff"/><path d="m65.757 68.485c-.225-.291-.496-.024-.907.021-.06.006.209-.28.152-.545-.074-.349-.325-.418-.626-.41-.568.014-1.503.542-2.109.492-.828-.068-2.446-.77-2.718-.998-.282-.236.484.026 1.937-1.043.443-.327 1.338-1.094 1.338-1.094s.244 1.024 1.91 1.437c1.667.414 2.892-1.908 1.43-3.263-.662-.615-1.74-.593-1.641-.689.303-.29.572-1.718.528-1.737-.166-.071-1.266-.027-3.781-.715-3.286-.9-6.401-2.663-8.959-4.887-2.221-1.929-4-4.894-4.655-6.719-.233-.65-.325-1.723-.322-2.439.006-1.226.77-3.306 2.524-4.466.195-.128-2.035-.748-3.701-.889-3.494-.298-5.244.692-5.37.562-2.166-2.228-3.082-6.199-3.824-5.969-.787.245-.643 8.926-.775 9.089s-.726.763-1.025 1.194c-.712 1.026-1.713 2.495-1.982 5.514-.273 3.059.282 9.333 11.298 14.292 4.352 1.959 8.061 2.364 8.061 2.364s1.684.695 2.63.984c.987.301 2.961 1.213 2.961 1.213s2.17 1.435 3.344 1.057c.445-.143.146-.547-.274-.674-.204-.063.455-.146.479-.53.029-.476-.944-.126-.944-.126s.142-.64.341-.559c1.386.564 2.177 1.17 3.869 1.413.27.039.773.005.83-.495.034-.299-.431-.475-.431-.475-.018.027.804-.403.412-.91z" fill="#fff"/><path d="m56.282 67.718c-.289-.098.412-.045.747-.099.144-.023 1.18.54 2.914.953.326.078-.964.12-.999.11-1.464-.405-2.097-.772-2.662-.964z" fill="#2554c1"/><g fill="#1d54d3" fill-rule="nonzero"><path d="m137.029 64.484-3.745 1.232c.887 1.872 1.626 3.794 2.218 5.814l4.09-1.034c-.739-2.218-1.528-4.238-2.415-6.012h6.505c-.098 3.695-.345 5.913-.788 6.652-.592.739-1.824 1.134-3.746 1.134-1.281 0-2.71-.05-4.238-.148l1.528 4.681h2.513c4.731 0 7.54-1.035 8.526-3.055.887-2.119 1.379-6.702 1.478-13.798h-32.475v-2.168h33.559v-4.041h-33.559v-2.021h27.005v-16.459h-16.016c.592-1.084 1.035-2.168 1.429-3.302l-5.273-.739c-.345 1.38-.837 2.71-1.478 4.041h-10.891v29.223zm-20.549-19.121h21.781v2.119h-21.781zm21.781-3.745h-21.781v-2.119h21.781zm-9.264 23.9-4.189.937c.887 2.612 1.676 5.667 2.366 9.116l4.533-1.084c-.788-3.252-1.675-6.209-2.71-8.969zm-19.761-.345c-.739 3.302-2.021 6.407-3.893 9.364l4.189 2.661c1.921-3.105 3.4-6.801 4.435-11.039zm11.63.641-4.731.641c.69 2.858 1.281 6.16 1.873 9.905l4.977-.444c-.641-3.646-1.331-6.997-2.119-10.102z"/><path d="m175.024 56.845v2.366h-14.932v14.734h4.879v-10.151h10.053v13.354h5.125v-13.354h10.398v3.893c0 .887-.542 1.38-1.627 1.38l-3.991-.247 1.33 4.879h4.337c3.203 0 4.829-1.626 4.829-4.879v-9.609h-15.276v-2.366zm17.445-16.508c-.789 2.267-1.824 4.287-3.204 6.061-1.33-1.577-2.414-3.4-3.252-5.47l.296-.591zm-4.189-4.238c.493-1.282.887-2.612 1.232-4.09l-4.534-.543c-1.035 4.534-3.055 8.329-6.111 11.483v-4.041h-8.476v-7.54h-4.583v7.54h-9.018v17.1h4.238v-3.351l2.908.887c.985-2.366 1.577-5.076 1.872-8.132l-3.006-.394c-.246 2.464-.837 4.682-1.774 6.653v-8.722h5.125v12.763h3.844v-12.763h4.632v8.131c-.492-2.366-1.034-4.534-1.626-6.456l-2.759.887c.64 2.513 1.182 5.125 1.577 7.885l2.808-.69v3.055h4.238v-12.468l2.612 3.45c.69-.69 1.331-1.429 1.971-2.168.789 1.675 1.725 3.252 2.859 4.731-1.824 1.379-3.992 2.414-6.456 3.153l2.415 3.943c2.661-.887 5.026-2.218 7.096-3.893 2.267 1.922 4.928 3.4 7.983 4.386l2.366-3.992c-2.76-.739-5.224-1.922-7.294-3.499 1.971-2.464 3.45-5.47 4.534-9.067h1.971v-4.238zm-27.005-4.435-3.696 1.774c1.281 1.577 2.414 3.4 3.499 5.371l3.498-1.774c-1.084-1.971-2.217-3.795-3.301-5.371zm13.699-.148c-.788 1.724-1.823 3.499-3.203 5.322l3.499 1.823c1.38-1.725 2.563-3.499 3.499-5.322z"/><path d="m224.204 31.516v5.864h-18.676v5.026h18.676v6.013h-14.882v4.78h3.302c.739 2.365 1.922 4.632 3.597 6.8 1.774 2.316 3.942 4.435 6.406 6.406-5.026 2.76-11.038 4.879-18.134 6.456l2.956 4.583c7.639-2.07 14.193-4.731 19.614-8.033 2.217 1.331 4.632 2.563 7.293 3.696 3.844 1.627 7.885 3.006 12.172 4.14l3.006-4.583c-3.942-.887-7.638-1.971-11.186-3.253-2.464-.936-4.781-1.971-6.9-3.055 4.83-3.794 8.526-8.279 11.088-13.404v-4.533h-13.009v-6.013h18.676v-5.026h-18.676v-5.864h-5.323zm2.76 32.179c-2.07-1.38-3.893-2.957-5.519-4.681-1.626-1.676-2.858-3.647-3.746-5.815h19.022c-2.316 3.991-5.568 7.49-9.757 10.496z"/><path d="m263.923 31.072c-2.365 7.638-6.061 14.291-11.038 19.909l1.675 5.322c1.725-1.774 3.351-3.646 4.83-5.519v26.414h5.125v-34.151c1.725-3.105 3.154-6.357 4.238-9.708zm5.224 10.546v5.026h17.642v23.408c0 1.429-.69 2.168-2.02 2.168-2.169 0-4.436-.147-6.801-.345l1.183 5.027h7.392c3.597 0 5.42-1.873 5.42-5.569v-24.689h6.702v-5.026h-6.702v-9.905h-5.174v9.905zm5.273 9.314-4.238 2.612c3.4 4.238 6.111 8.131 8.131 11.58l4.386-3.055c-1.971-3.154-4.731-6.899-8.279-11.137z"/><path d="m229.313 87.301c0-2.03-1.056-3.217-3.019-3.217-1.567 0-2.557.742-3.134 1.913.016-.313.066-.478.066-.693v-.445c0-.429-.297-.643-.726-.643-.462 0-.776.214-.776.643v8.034c0 .445.297.66.759.66.429 0 .743-.215.743-.66v-4.619c0-.644.165-1.122.577-1.683.561-.775 1.303-1.171 2.194-1.171 1.237 0 1.798.792 1.798 2.194v5.279c0 .445.314.66.759.66.429 0 .759-.215.759-.66z"/><path d="m231.622 92.893c0 .445.281.66.743.66.445 0 .759-.215.759-.66v-8.034c0-.429-.314-.643-.759-.643-.462 0-.743.214-.743.643zm.759-12.406c-.627 0-1.121.479-1.121 1.106 0 .643.494 1.121 1.121 1.121.611 0 1.106-.478 1.106-1.121 0-.627-.495-1.106-1.106-1.106z"/><path d="m241.059 87.614c-1.766.033-2.623.132-3.531.379-1.567.429-2.491 1.419-2.491 2.97 0 1.699 1.106 2.722 2.92 2.722 1.633 0 2.508-.644 3.135-1.353.016.33.049.627.099.825.066.297.363.396.692.396h.149c.412-.033.66-.264.66-.528 0-.05-.017-.116-.033-.165-.099-.313-.182-.874-.182-1.452v-4.503c0-1.947-1.088-2.821-3.299-2.821-1.336 0-2.079.28-2.656.726-.379.296-.808.775-.973 1.286-.017.066-.033.132-.033.198 0 .297.231.528.544.627.116.05.248.066.38.066.28 0 .527-.115.643-.429.28-.759.874-1.221 2.078-1.221 1.304 0 1.898.479 1.898 1.568zm0 2.293c0 .627-.116.94-.429 1.336-.528.66-1.386 1.172-2.425 1.172-.99 0-1.65-.578-1.65-1.436 0-.792.346-1.303 1.006-1.633s1.567-.495 3.498-.544z"/><path d="m248.779 84.084c-2.672 0-4.273 1.93-4.273 4.784 0 2.936 1.584 4.85 4.306 4.85 2.574 0 4.157-1.98 4.157-4.85 0-2.871-1.55-4.784-4.19-4.784zm.05 1.27c1.682 0 2.623 1.419 2.623 3.497 0 2.194-.941 3.597-2.739 3.597-1.699 0-2.689-1.436-2.689-3.531 0-2.194 1.023-3.563 2.805-3.563z"/><path d="m256.351 92.596c0-.214-.033-.544-.066-.792.528 1.155 1.518 1.897 3.036 1.897 2.441 0 3.942-1.963 3.942-4.866 0-2.937-1.418-4.751-3.893-4.751-1.518 0-2.491.709-3.101 1.88.049-.379.082-.858.082-1.204v-3.596c0-.446-.297-.66-.726-.66-.462 0-.742.214-.742.66v11.729c0 .445.28.66.742.66.479 0 .726-.248.726-.611zm2.821-7.226c1.65 0 2.574 1.337 2.574 3.481 0 2.128-.957 3.547-2.623 3.547-1.733 0-2.805-1.485-2.805-3.53 0-2.029 1.039-3.498 2.854-3.498z"/><path d="m265.177 92.893c0 .445.28.66.742.66.446 0 .759-.215.759-.66v-8.034c0-.429-.313-.643-.759-.643-.462 0-.742.214-.742.643zm.759-12.406c-.627 0-1.122.479-1.122 1.106 0 .643.495 1.121 1.122 1.121.61 0 1.105-.478 1.105-1.121 0-.627-.495-1.106-1.105-1.106z"/><path d="m270.324 91.276c-.644 0-1.138.462-1.138 1.122 0 .693.494 1.155 1.138 1.155.643 0 1.138-.462 1.138-1.155 0-.66-.495-1.122-1.138-1.122z"/><path d="m277.846 84.084c-2.672 0-4.272 1.93-4.272 4.784 0 2.936 1.583 4.85 4.305 4.85 2.574 0 4.158-1.98 4.158-4.85 0-2.871-1.551-4.784-4.191-4.784zm.05 1.27c1.683 0 2.623 1.419 2.623 3.497 0 2.194-.94 3.597-2.739 3.597-1.699 0-2.689-1.436-2.689-3.531 0-2.194 1.023-3.563 2.805-3.563z"/><path d="m284.181 92.893c0 .445.314.66.775.66.413 0 .743-.215.743-.66v-4.553c.016-.693.264-1.303.693-1.831.412-.528.957-.891 1.666-.908.346 0 .561.05.792.099.049.017.099.017.148.017.347 0 .578-.297.644-.644.016-.098.033-.197.033-.28 0-.313-.149-.544-.528-.594-.231-.049-.413-.082-.66-.082-.116 0-.231 0-.363.016-1.419.05-2.26 1.072-2.524 1.864.033-.264.099-.544.099-.775v-.363c0-.429-.33-.643-.743-.643-.461 0-.775.214-.775.643z"/><path d="m297.494 85.304c0 .182.05.495.066.677-.462-1.056-1.402-1.881-2.903-1.881-2.541 0-4.009 1.914-4.009 4.751 0 2.755 1.633 4.57 3.976 4.57 1.451 0 2.392-.726 2.936-1.765-.033.231-.066.594-.066.792-.016 2.441-.759 3.48-2.821 3.48-1.006 0-1.732-.346-2.342-1.055-.132-.149-.297-.215-.479-.215-.165 0-.346.066-.478.165-.198.149-.314.363-.314.577 0 .132.05.248.132.363.627.809 1.765 1.403 3.547 1.403 2.178 0 4.174-.858 4.174-4.652v-7.638c0-.446-.264-.66-.71-.66-.478 0-.709.247-.709.594zm-2.656.05c1.683 0 2.689 1.419 2.689 3.382 0 2.045-1.023 3.481-2.705 3.481-1.535 0-2.656-1.271-2.656-3.366 0-2.128.989-3.497 2.672-3.497z"/></g></svg>