<svg clip-rule="evenodd" fill-rule="evenodd" stroke-linejoin="round" stroke-miterlimit="2" viewBox="0 0 1325 454" xmlns="http://www.w3.org/2000/svg"><path d="m154.506 111.324c12.791-19.08 36.796-32.463 63.261-32.463s50.469 13.383 63.26 32.463c22.92 1.537 46.512 15.634 59.744 38.554 13.233 22.919 13.645 50.399 3.517 71.016 10.128 20.618 9.716 48.098-3.517 71.017-13.232 22.919-36.824 37.016-59.744 38.554-12.791 19.08-36.795 32.462-63.26 32.462s-50.47-13.382-63.261-32.462c-22.919-1.538-46.511-15.635-59.744-38.554-13.232-22.919-13.644-50.399-3.516-71.017-10.128-20.617-9.716-48.097 3.516-71.016 13.233-22.92 36.825-37.017 59.744-38.554z" fill="#1d54d3"/><path d="m301.652 231.805c-7.238-1.08-12.207-4.145-17.097-9.433 14.919 1.055 14.81-3.194 14.81-3.194s.678-1.886-3.374-3.77c-1.791-.832-3.551-2.045-5.086-3.028 1.457.193 22.56 1.971 24.981-6.271-12.216-1.662-26.06-3.294-36.053-7.75-3.689-1.644-8.586-3.523-11.148-7.023 3.272.245 8.846.434 13.64-.77 5.302-1.332 10.458-3.25 13.36-7.906 1.659-2.662 1.692-5.495 1.692-5.495s-3.526 1.91-7.253 2.849c-8.404 2.117-17.219 1.278-20.625.915-3.671-.391-16.145-1.841-15.754-4.684.353-2.574 11.273-1.679 13.448-1.482 2.97.268 5.932.64 8.907.838-6.571-4.184-14.338-6.616-21.762-8.665-11.302-3.12-23.458-3.819-34.767-.562-4.867 1.402-11.841 4.744-15.411 10.898-7.986 13.765 2.199 30.416 11.899 40.252 11.505 11.665 21.732 17.006 31.401 21.092 9.669 4.087 29.707 9.901 44.475 2.869 9.854-4.692 9.717-9.68 9.717-9.68z" fill="#fff"/><path d="m273.986 285.352c-.937-1.212-2.065-.097-3.776.088-.25.027.867-1.163.632-2.27-.309-1.452-1.356-1.741-2.61-1.709-2.366.06-6.259 2.26-8.787 2.051-3.451-.285-10.193-3.209-11.324-4.156-1.175-.984 2.016.106 8.069-4.348 1.848-1.361 5.578-4.56 5.578-4.56s1.014 4.268 7.959 5.99c6.944 1.723 12.049-7.95 5.958-13.598-2.759-2.559-7.253-2.471-6.838-2.869 1.261-1.21 2.382-7.158 2.201-7.236-.692-.297-5.277-.114-15.755-2.983-13.692-3.748-26.671-11.095-37.331-20.359-9.252-8.041-16.667-20.392-19.395-27.997-.971-2.707-1.355-7.178-1.341-10.163.025-5.108 3.208-13.773 10.517-18.606.811-.537-8.479-3.117-15.422-3.708-14.56-1.24-21.849 2.883-22.374 2.344-9.025-9.282-12.844-25.83-15.936-24.87-3.276 1.018-2.676 37.191-3.228 37.87-.551.68-3.026 3.179-4.272 4.974-2.966 4.275-7.134 10.397-8.257 22.975-1.138 12.748 1.174 38.887 47.076 59.551 18.132 8.163 33.587 9.848 33.587 9.848s7.014 2.897 10.959 4.101c4.113 1.255 12.335 5.053 12.335 5.053s9.044 5.979 13.936 4.407c1.852-.595.607-2.279-1.142-2.811-.852-.259 1.896-.605 1.994-2.209.122-1.983-3.932-.524-3.932-.524s.591-2.667 1.422-2.328c5.772 2.351 9.067 4.877 16.117 5.887 1.125.161 3.223.023 3.459-2.061.142-1.246-1.793-1.978-1.793-1.978-.078.109 3.349-1.681 1.714-3.796z" fill="#fff"/><path d="m234.506 282.157c-1.201-.409 1.718-.185 3.117-.412.597-.096 4.914 2.249 12.139 3.973 1.358.324-4.018.498-4.162.458-6.101-1.688-8.736-3.216-11.094-4.019z" fill="#2554c1"/><g fill="#1d54d3" fill-rule="nonzero"><path d="m445.499 266.217v20.123h135.929v-20.123zm64.268-136.955c-1.232 6.981-3.08 13.757-5.133 20.328h-35.727v101.433h131.411c0 24.845-1.848 39.013-5.544 42.298s-9.24 5.133-16.632 5.133c-6.981 0-15.81-.205-26.077-.616l6.571 21.149h19.096c16.015 0 27.514-3.49 34.7-10.061 6.982-6.981 10.678-32.853 11.088-77.82h-133.054v-61.394h82.543c-.821 18.685-1.643 29.568-2.875 32.442-1.232 2.67-3.285 4.107-6.16 4.107-5.338 0-11.293-.205-18.274-.411l6.16 19.096h12.114c11.088 0 18.686-3.491 22.792-10.266 3.696-6.776 6.571-28.541 8.624-65.09h-68.17c2.464-5.339 4.312-11.088 5.544-17.248l-22.997-3.08zm10.883 46.61-14.784 13.963c10.677 8.829 18.89 17.042 24.845 24.639l14.989-14.989c-6.981-7.802-15.194-15.81-25.05-23.613z"/><path d="m798.051 296.606c13.346 0 20.122-7.392 20.122-22.175v-83.775h-66.937v-27.72c28.746-2.874 54.001-6.981 75.766-12.319l-10.882-18.685c-45.583 9.855-101.023 14.989-166.523 14.989l6.776 20.122c26.282 0 50.511-.821 73.098-2.259v25.872h-67.143v106.361h21.354v-85.828h45.789v110.468h21.765v-110.468h45.583v58.519c0 4.107-2.053 6.365-5.955 6.365l-17.863-1.026 5.544 21.559z"/><path d="m934.185 131.316v24.434h-77.82v20.943h77.82v25.051h-62.01v19.917h13.757c3.08 9.856 8.008 19.301 14.989 28.335 7.392 9.651 16.427 18.48 26.693 26.693-20.943 11.499-45.994 20.328-75.561 26.899l12.32 19.095c31.826-8.624 59.135-19.711 81.721-33.469 9.24 5.544 19.301 10.678 30.389 15.4 16.016 6.776 32.853 12.525 50.716 17.248l12.526-19.096c-16.427-3.696-31.827-8.213-46.61-13.552-10.267-3.901-19.917-8.213-28.747-12.73 20.123-15.81 35.522-34.495 46.2-55.85v-18.89h-54.208v-25.051h77.821v-20.943h-77.821v-24.434zm11.498 134.08c-8.624-5.749-16.221-12.32-22.997-19.506-6.776-6.981-11.909-15.195-15.605-24.229h79.258c-9.651 16.632-23.203 31.21-40.656 43.735z"/><path d="m1099.68 129.468c-9.856 31.826-25.256 59.545-45.994 82.953l6.981 22.176c7.187-7.392 13.963-15.195 20.123-22.997v110.057h21.354v-142.294c7.186-12.936 13.141-26.488 17.658-40.45zm21.765 43.94v20.944h73.508v97.532c0 5.954-2.874 9.034-8.418 9.034-9.035 0-18.48-.616-28.336-1.437l4.928 20.944h30.8c14.989 0 22.586-7.803 22.586-23.203v-102.87h27.925v-20.944h-27.925v-41.271h-21.56v41.271zm21.97 38.808-17.658 10.882c14.168 17.659 25.461 33.88 33.879 48.253l18.275-12.731c-8.213-13.141-19.712-28.746-34.496-46.404z"/><path d="m955.471 363.752c0-8.454-4.4-13.403-12.579-13.403-6.53 0-10.654 3.093-13.06 7.973.069-1.306.275-1.993.275-2.887v-1.856c0-1.787-1.238-2.68-3.025-2.68-1.924 0-3.23.893-3.23 2.68v33.475c0 1.856 1.237 2.749 3.162 2.749 1.787 0 3.093-.893 3.093-2.749v-19.246c0-2.681.687-4.674 2.406-7.011 2.337-3.231 5.43-4.881 9.141-4.881 5.156 0 7.493 3.3 7.493 9.142v21.996c0 1.856 1.306 2.749 3.162 2.749 1.787 0 3.162-.893 3.162-2.749z"/><path d="m965.094 387.054c0 1.856 1.168 2.749 3.093 2.749 1.856 0 3.162-.893 3.162-2.749v-33.475c0-1.787-1.306-2.68-3.162-2.68-1.925 0-3.093.893-3.093 2.68zm3.162-51.69c-2.612 0-4.675 1.993-4.675 4.605 0 2.681 2.063 4.675 4.675 4.675 2.543 0 4.605-1.994 4.605-4.675 0-2.612-2.062-4.605-4.605-4.605z"/><path d="m1004.41 365.058c-7.355.138-10.929.55-14.71 1.581-6.53 1.787-10.379 5.912-10.379 12.373 0 7.08 4.605 11.341 12.166 11.341 6.805 0 10.448-2.68 13.06-5.636.069 1.375.207 2.612.413 3.437.275 1.237 1.512 1.649 2.887 1.649h.618c1.719-.137 2.75-1.099 2.75-2.199 0-.206-.069-.481-.138-.688-.412-1.306-.756-3.643-.756-6.048v-18.765c0-8.111-4.536-11.754-13.747-11.754-5.568 0-8.661 1.168-11.067 3.024-1.581 1.237-3.368 3.231-4.055 5.362-.069.274-.138.549-.138.824 0 1.238.963 2.2 2.269 2.612.481.207 1.031.275 1.581.275 1.168 0 2.199-.481 2.68-1.787 1.169-3.162 3.643-5.086 8.661-5.086 5.43 0 7.905 1.993 7.905 6.53zm0 9.555c0 2.612-.481 3.918-1.787 5.567-2.2 2.75-5.774 4.881-10.105 4.881-4.124 0-6.873-2.406-6.873-5.98 0-3.3 1.443-5.431 4.193-6.805 2.749-1.375 6.53-2.062 14.572-2.269z"/><path d="m1036.58 350.349c-11.136 0-17.803 8.042-17.803 19.933 0 12.235 6.599 20.209 17.94 20.209 10.723 0 17.322-8.249 17.322-20.209s-6.462-19.933-17.459-19.933zm.206 5.292c7.011 0 10.929 5.912 10.929 14.573 0 9.141-3.918 14.984-11.41 14.984-7.08 0-11.204-5.98-11.204-14.71 0-9.141 4.261-14.847 11.685-14.847z"/><path d="m1068.13 385.817c0-.894-.138-2.269-.275-3.3 2.199 4.812 6.323 7.905 12.647 7.905 10.173 0 16.428-8.18 16.428-20.277 0-12.235-5.911-19.796-16.222-19.796-6.323 0-10.379 2.955-12.922 7.836.206-1.581.344-3.575.344-5.018v-14.985c0-1.856-1.238-2.749-3.025-2.749-1.924 0-3.093.893-3.093 2.749v48.872c0 1.856 1.169 2.749 3.093 2.749 1.994 0 3.025-1.031 3.025-2.543zm11.754-30.107c6.873 0 10.722 5.568 10.722 14.504 0 8.867-3.986 14.778-10.929 14.778-7.217 0-11.685-6.186-11.685-14.71 0-8.454 4.331-14.572 11.892-14.572z"/><path d="m1104.9 387.054c0 1.856 1.168 2.749 3.093 2.749 1.856 0 3.162-.893 3.162-2.749v-33.475c0-1.787-1.306-2.68-3.162-2.68-1.925 0-3.093.893-3.093 2.68zm3.162-51.69c-2.612 0-4.675 1.993-4.675 4.605 0 2.681 2.063 4.675 4.675 4.675 2.543 0 4.605-1.994 4.605-4.675 0-2.612-2.062-4.605-4.605-4.605z"/><path d="m1126.35 380.318c-2.68 0-4.742 1.924-4.742 4.674 0 2.887 2.062 4.811 4.742 4.811 2.681 0 4.743-1.924 4.743-4.811 0-2.75-2.062-4.674-4.743-4.674z"/><path d="m1157.69 350.349c-11.135 0-17.802 8.042-17.802 19.933 0 12.235 6.598 20.209 17.94 20.209 10.723 0 17.321-8.249 17.321-20.209s-6.461-19.933-17.459-19.933zm.207 5.292c7.011 0 10.929 5.912 10.929 14.573 0 9.141-3.918 14.984-11.411 14.984-7.079 0-11.204-5.98-11.204-14.71 0-9.141 4.262-14.847 11.686-14.847z"/><path d="m1184.09 387.054c0 1.856 1.306 2.749 3.231 2.749 1.718 0 3.093-.893 3.093-2.749v-18.971c.069-2.887 1.1-5.43 2.887-7.63 1.718-2.2 3.987-3.712 6.942-3.781 1.444 0 2.337.207 3.3.413.206.069.412.069.618.069 1.444 0 2.406-1.238 2.681-2.681.069-.413.137-.825.137-1.169 0-1.306-.618-2.268-2.199-2.474-.962-.206-1.719-.344-2.75-.344-.481 0-.962 0-1.512.069-5.911.206-9.417 4.468-10.517 7.767.138-1.1.413-2.268.413-3.231v-1.512c0-1.787-1.375-2.68-3.093-2.68-1.925 0-3.231.893-3.231 2.68z"/><path d="m1239.56 355.435c0 .756.207 2.062.275 2.818-1.924-4.399-5.842-7.836-12.097-7.836-10.586 0-16.703 7.974-16.703 19.797 0 11.479 6.805 19.04 16.565 19.04 6.049 0 9.967-3.025 12.235-7.355-.137.962-.275 2.474-.275 3.299-.068 10.173-3.161 14.503-11.753 14.503-4.193 0-7.218-1.443-9.761-4.399-.55-.618-1.237-.893-1.993-.893-.688 0-1.444.275-1.994.687-.825.619-1.306 1.512-1.306 2.406 0 .55.206 1.031.55 1.512 2.612 3.368 7.355 5.843 14.778 5.843 9.074 0 17.391-3.575 17.391-19.384v-31.825c0-1.856-1.1-2.749-2.956-2.749-1.993 0-2.956 1.031-2.956 2.474zm-11.066.206c7.011 0 11.204 5.912 11.204 14.091 0 8.524-4.262 14.504-11.273 14.504-6.392 0-11.066-5.293-11.066-14.022 0-8.867 4.124-14.573 11.135-14.573z"/></g></svg>