<svg clip-rule="evenodd" fill-rule="evenodd" stroke-linejoin="round" stroke-miterlimit="1.41421" viewBox="0 0 30 30" xmlns="http://www.w3.org/2000/svg"><g fill="#1d54d3" fill-rule="nonzero"><path d="m15.5 10c-1.617 0-1.82.007-2.455.036-.634.029-1.066.129-1.445.277-.392.152-.724.355-1.055.686s-.534.663-.686 1.055c-.148.379-.248.811-.277 1.445-.029.635-.036.838-.036 2.455s.007 1.82.036 2.455c.029.634.129 1.066.277 1.445.152.392.355.724.686 1.055s.663.534 1.055.686c.379.148.811.248 1.445.277.635.029.838.036 2.455.036s1.82-.007 2.455-.036c.634-.029 1.066-.129 1.445-.277.392-.152.724-.355 1.055-.686s.534-.663.686-1.055c.148-.379.248-.811.277-1.445.029-.635.036-.838.036-2.455s-.007-1.82-.036-2.455c-.029-.634-.129-1.066-.277-1.445-.152-.392-.355-.724-.686-1.055s-.663-.534-1.055-.686c-.379-.148-.811-.248-1.445-.277-.635-.029-.838-.036-2.455-.036zm0 1.073c1.59 0 1.778.006 2.406.035.58.026.896.123 1.105.205.278.108.477.237.685.445s.337.407.445.685c.082.209.179.525.205 1.105.029.628.035.816.035 2.406s-.006 1.778-.035 2.406c-.026.58-.123.896-.205 1.105-.108.278-.237.477-.445.685s-.407.337-.685.445c-.209.082-.525.179-1.105.205-.628.029-.816.035-2.406.035s-1.778-.006-2.406-.035c-.58-.026-.896-.123-1.105-.205-.278-.108-.477-.237-.685-.445s-.337-.407-.445-.685c-.082-.209-.179-.525-.206-1.105-.028-.628-.034-.816-.034-2.406s.006-1.778.034-2.406c.027-.58.124-.896.206-1.105.108-.278.237-.477.445-.685s.407-.337.685-.445c.209-.082.525-.179 1.105-.205.628-.029.816-.035 2.406-.035z"/><path d="m15.5 17.939c-1.096 0-1.985-.889-1.985-1.985s.889-1.985 1.985-1.985 1.985.889 1.985 1.985-.889 1.985-1.985 1.985zm0-5.042c-1.689 0-3.057 1.368-3.057 3.057s1.368 3.057 3.057 3.057 3.057-1.368 3.057-3.057-1.368-3.057-3.057-3.057z"/><path d="m19.393 12.776c0 .394-.32.714-.715.714-.394 0-.714-.32-.714-.714 0-.395.32-.715.714-.715.395 0 .715.32.715.715z"/></g></svg>