<svg height="496" viewBox="0 0 1440 496" width="1440" xmlns="http://www.w3.org/2000/svg"><g fill="#454bdb" fill-rule="evenodd"><path d="m1440 480.977-1041.199 3.06c-65.11 0-118.08-52.971-118.08-118.081s52.97-118.081 118.08-118.081l643.424-1.687c63.753 0 115.62-51.866 115.62-115.62 0-63.752-51.867-115.618-115.62-115.618l-1042.225-1.372v-2.461l1042.225 1.372c65.11 0 118.081 52.97 118.081 118.08 0 65.109-52.971 118.08-118.081 118.08l-643.424 1.687c-63.753 0-115.619 51.868-115.619 115.62 0 63.753 51.866 115.62 115.619 115.62l1041.199-3.06v2.46z"/><path d="m508.77 23.306a1.23 1.23 0 0 1 -.87-2.101l8.86-8.858-8.86-8.858a1.23 1.23 0 1 1 1.74-1.741l9.73 9.729c.48.48.48 1.26 0 1.74l-9.73 9.729c-.24.24-.555.36-.87.36m395.874 469.459a1.23 1.23 0 0 1 -.87-2.101l8.86-8.858-8.86-8.858a1.23 1.23 0 1 1 1.74-1.741l9.73 9.729c.48.48.48 1.26 0 1.74l-9.73 9.729c-.24.24-.556.36-.87.36m254.263-361.958c-.314 0-.63-.12-.87-.36l-9.729-9.73a1.231 1.231 0 0 1 1.741-1.74l8.858 8.86 8.858-8.86a1.23 1.23 0 1 1 1.741 1.74l-9.729 9.73c-.24.24-.556.36-.87.36m-876.719 241.617c-.315 0-.63-.12-.87-.36l-9.73-9.729a1.231 1.231 0 0 1 1.741-1.74l8.858 8.86 8.858-8.86a1.23 1.23 0 1 1 1.741 1.74l-9.728 9.73c-.24.24-.556.36-.87.36m444.078-134.658a1.23 1.23 0 0 1 .87 2.101l-8.86 8.858 8.86 8.858a1.23 1.23 0 1 1 -1.74 1.74l-9.73-9.728c-.48-.48-.48-1.26 0-1.74l9.73-9.73c.24-.24.556-.36.87-.36"/></g></svg>