<svg height="30" viewBox="0 0 30 30" width="30" xmlns="http://www.w3.org/2000/svg" xmlns:xlink="http://www.w3.org/1999/xlink"><defs><path id="a" d="m3.779 6.43v6.629a.763.763 0 0 1 -.203.658l-1.576 1.911v.252h4.468v-.252l-1.576-1.91a.79.79 0 0 1 -.217-.659v-5.734l3.922 8.555h.455l3.368-8.555v6.82c0 .181 0 .216-.119.335l-1.211 1.176v.252h5.882v-.252l-1.17-1.148a.35.35 0 0 1 -.133-.336v-8.436a.35.35 0 0 1 .133-.336l1.198-1.148v-.252h-4.146l-2.954 7.372-3.362-7.372h-4.349v.252l1.4 1.687a.581.581 0 0 1 .19.49"/><mask id="b" fill="#fff"><use fill="#fff" fill-rule="evenodd" xlink:href="#a"/></mask></defs><g fill="none" fill-rule="evenodd" transform="translate(6 6)"><use fill="#454bdb" xlink:href="#a"/><g fill="#454bd8" fill-opacity=".9" mask="url(#b)"><path d="m-3-2h25v23h-25z"/></g></g></svg>