<svg height="60" viewBox="0 0 60 60" width="60" xmlns="http://www.w3.org/2000/svg"><g fill="none" fill-rule="evenodd"><circle cx="30" cy="30" fill="#eee" fill-opacity=".85" r="30"/><g fill="#818181"><path d="m22.7411527 40.8412538v7.1587462h-.9282103v-7.1587462h-2.5298281v-.8250758h5.9878665v.8250758zm4.2709808 6.1941355c-.6390325-.7239672-.958544-1.7381128-.958544-3.0424672 0-1.3043543.3205226-2.3134443.9615773-3.0273003.6410548-.7138559 1.5429669-1.0707785 2.7057634-1.0707785s2.0667309.3629893 2.7118302 1.0889787c.6450992.7259895.967644 1.7290129.967644 3.0091001 0 1.2800873-.3235559 2.286144-.9706774 3.0182002-.6471215.7320563-1.552067 1.0980789-2.7148635 1.0980789s-2.0636975-.3579337-2.70273-1.0738119zm4.7320525-5.4843276c-.4489405-.5540978-1.1152635-.8311426-1.9989888-.8311426-.8837254 0-1.556115.279067-2.0171891.8372093s-.6916077 1.3741099-.6916077 2.4479272.2305336 1.890796.6916077 2.4509606 1.1324526.8402426 2.0141557.8402426 1.5480261-.2780558 1.9989889-.8341759.6764408-1.375121.6764408-2.4570273-.2244669-1.8998961-.6734075-2.4539939zm5.5025279-1.5348837c1.9939432 0 2.9908999.7765342 2.9908999 2.3296258 0 .8048575-.2760337 1.4256804-.8281092 1.8624874-.5520756.436807-1.339732.6552073-2.362993.6552073h-.9403438v3.1365015h-.9282103v-7.983822zm-1.1405461.8068756v3.239636h.8372093c.816991 0 1.411525-.1314446 1.7836199-.3943377.3680503-.2669377.5520728-.6804826.5520728-1.2406471 0-.5601646-.1739113-.9676429-.5217392-1.222447-.3478278-.2548041-.8857395-.3822042-1.6137512-.3822042z" opacity=".7"/><path d="m28.8082742 16.918819-4.9575937 4.4618343c-.6221877.5599689-1.5805149.5095306-2.1404838-.112657-.559969-.6221877-.5095307-1.580515.112657-2.1404839l7.4871526-6.7384373c.5764075-.5187668 1.4514193-.5187668 2.0278268 0l7.4871526 6.7384373c.6221877.5599689.6726259 1.5182962.112657 2.1404839-.5599689.6221876-1.5182961.6726259-2.1404838.112657l-4.9575937-4.4618343v15.0149534c0 .8370679-.6785776 1.5156455-1.5156455 1.5156455s-1.5156455-.6785776-1.5156455-1.5156455z" fill-opacity=".7" fill-rule="nonzero"/></g></g></svg>