<svg height="30" viewBox="0 0 30 30" width="30" xmlns="http://www.w3.org/2000/svg" xmlns:xlink="http://www.w3.org/1999/xlink"><defs><path id="a" d="m17.752 4.589a6.253 6.253 0 0 1 -1.857.533 3.375 3.375 0 0 0 1.422-1.874 6.279 6.279 0 0 1 -2.053.822 3.16 3.16 0 0 0 -2.358-1.07 3.313 3.313 0 0 0 -3.232 3.388c0 .26.028.518.084.771a9.043 9.043 0 0 1 -6.662-3.538 3.494 3.494 0 0 0 -.437 1.7 3.43 3.43 0 0 0 1.438 2.819 3.107 3.107 0 0 1 -1.464-.425v.043a3.353 3.353 0 0 0 2.592 3.322 3.089 3.089 0 0 1 -1.46.058 3.258 3.258 0 0 0 3.019 2.352 6.3 6.3 0 0 1 -4.784 1.402 8.838 8.838 0 0 0 4.954 1.522c5.944 0 9.194-5.161 9.194-9.636 0-.148 0-.293-.009-.438a6.769 6.769 0 0 0 1.613-1.751z"/><mask id="b" fill="#fff"><use fill="#fff" fill-rule="evenodd" xlink:href="#a"/></mask></defs><g fill="none" fill-rule="evenodd" transform="translate(6 6)"><use fill="#333" xlink:href="#a"/><g fill="#454bd8" fill-opacity=".9" mask="url(#b)"><path d="m-3-2h25v23h-25z"/></g></g></svg>