<svg height="30" viewBox="0 0 30 30" width="30" xmlns="http://www.w3.org/2000/svg" xmlns:xlink="http://www.w3.org/1999/xlink"><defs><path id="a" d="m14.47 3a3.53 3.53 0 0 1 3.53 3.53v4.97a3.53 3.53 0 0 1 -3.53 3.53h-9.94a3.53 3.53 0 0 1 -3.53-3.53v-4.97a3.53 3.53 0 0 1 3.53-3.53zm-2.388 6.256a.187.187 0 0 0 .003-.334l-4.648-2.356a.187.187 0 0 0 -.271.166v4.573c0 .137.143.228.267.169z"/><mask id="b" fill="#fff"><use fill="#fff" fill-rule="evenodd" xlink:href="#a"/></mask></defs><g fill="none" fill-rule="evenodd" transform="translate(6 6)"><use fill="#333" xlink:href="#a"/><g fill="#454bd8" fill-opacity=".9" mask="url(#b)"><path d="m-4-3h27v24h-27z"/></g></g></svg>