<?xml version="1.0" encoding="UTF-8" standalone="no"?><!DOCTYPE svg PUBLIC "-//W3C//DTD SVG 1.1//EN" "http://www.w3.org/Graphics/SVG/1.1/DTD/svg11.dtd"><svg width="100%" height="100%" viewBox="0 0 74 54" version="1.1" xmlns="http://www.w3.org/2000/svg" xmlns:xlink="http://www.w3.org/1999/xlink" xml:space="preserve" xmlns:serif="http://www.serif.com/" style="fill-rule:evenodd;clip-rule:evenodd;stroke-linejoin:round;stroke-miterlimit:1.41421;"><g id="Rectangle-19"><path id="path-1" d="M73.5,3c0,-1.656 -1.344,-3 -3,-3l-67.5,0c-1.656,0 -3,1.344 -3,3l0,48c0,1.656 1.344,3 3,3l67.5,0c1.656,0 3,-1.344 3,-3l0,-48Z" style="fill:#fff;"/></g><g id="_-000000ff" serif:id="#000000ff"><path d="M29.429,9.131c2.037,-1.111 4.353,-1.706 6.674,-1.705c2.545,-0.003 5.087,0.703 7.266,2.019c2.027,1.219 3.73,2.968 4.905,5.02c1.064,1.85 1.699,3.944 1.834,6.074c0.091,1.4 -0.032,2.814 -0.362,4.177c-0.061,0.248 -0.119,0.497 -0.214,0.734c-0.434,1.16 -0.998,2.274 -1.701,3.295c-1.269,1.854 -2.982,3.404 -4.959,4.474c-1.361,0.732 -2.84,1.249 -4.366,1.503c-2.055,0.344 -4.188,0.215 -6.187,-0.377c-2.153,-0.629 -4.147,-1.795 -5.752,-3.362c-1.637,-1.596 -2.877,-3.596 -3.574,-5.773c-0.461,-1.425 -0.693,-2.924 -0.691,-4.422c0.002,-1.075 0.123,-2.151 0.349,-3.202c0.307,-1.077 0.743,-2.117 1.298,-3.09c1.277,-2.254 3.202,-4.131 5.48,-5.365" style="fill-rule:nonzero;"/><g><g id="行动派"><g><path id="_-ffff00ff" serif:id="#ffff00ff" d="M28.964,12.847c0.023,-0.045 0.066,-0.103 0.124,-0.074c0.166,0.064 0.244,0.241 0.329,0.384c0.169,0.333 0.317,0.676 0.488,1.008c0.272,0.536 0.588,1.052 0.961,1.524c0.636,-0.244 1.323,-0.334 2.001,-0.318c0.753,0.024 1.509,0.136 2.221,0.39c0.053,0.018 0.106,0.035 0.16,0.049c0.009,0.007 0.026,0.023 0.035,0.031l-0.008,0.012c-0.042,0.021 -0.093,0.043 -0.099,0.097c-0.282,0.22 -0.535,0.48 -0.733,0.778c-0.155,0.237 -0.273,0.498 -0.341,0.772c-0.134,0.568 -0.048,1.163 0.127,1.712c0.27,0.827 0.742,1.575 1.295,2.242c0.653,0.782 1.432,1.455 2.285,2.01c1.43,0.936 3.085,1.528 4.788,1.69l-0.007,0.027c-0.067,0.286 -0.163,0.564 -0.286,0.83c0.344,0.001 0.692,0.153 0.906,0.427c0.132,0.168 0.188,0.379 0.208,0.588c0.02,0.312 -0.154,0.622 -0.431,0.765c-0.111,0.058 -0.232,0.096 -0.356,0.113c-0.48,0.053 -0.989,-0.238 -1.149,-0.7c-0.445,0.464 -1.012,0.798 -1.613,1.021c0.382,0.156 0.767,0.311 1.166,0.42c0.274,0.081 0.56,0.007 0.826,-0.068c0.175,-0.045 0.355,-0.122 0.537,-0.068c0.054,0.029 0.113,0.068 0.124,0.134c0.02,0.116 -0.042,0.223 -0.093,0.322c0.123,-0.05 0.257,-0.09 0.392,-0.062c0.125,0.054 0.142,0.228 0.063,0.328c-0.062,0.085 -0.164,0.121 -0.259,0.155c0.119,0.025 0.271,0.066 0.308,0.198c0.023,0.137 -0.125,0.209 -0.233,0.245c-0.073,0.021 -0.15,0.033 -0.226,0.022c-0.328,-0.038 -0.64,-0.156 -0.941,-0.288c-0.31,-0.135 -0.614,-0.285 -0.932,-0.401c-0.026,0.078 -0.059,0.154 -0.098,0.227c0.106,-0.034 0.222,-0.07 0.333,-0.037c0.089,0.029 0.11,0.143 0.078,0.221c-0.045,0.094 -0.145,0.138 -0.233,0.18c0.077,0.023 0.167,0.04 0.214,0.113c0.03,0.044 0.015,0.1 0.005,0.148c-0.226,0.171 -0.533,0.095 -0.782,0.022c-0.345,-0.133 -0.652,-0.346 -0.985,-0.504c-0.35,-0.169 -0.709,-0.318 -1.072,-0.456c-0.392,-0.156 -0.804,-0.259 -1.193,-0.424c-0.154,-0.053 -0.29,-0.161 -0.455,-0.18c-1.502,-0.202 -2.947,-0.715 -4.304,-1.379c-0.818,-0.407 -1.608,-0.876 -2.332,-1.435c-0.825,-0.643 -1.586,-1.404 -2.077,-2.338c-0.349,-0.656 -0.548,-1.393 -0.555,-2.137c-0.023,-0.685 0.059,-1.376 0.279,-2.026c0.255,-0.76 0.686,-1.462 1.25,-2.033c0.028,-0.445 0.047,-0.89 0.061,-1.336c0.015,-0.371 0.025,-0.742 0.039,-1.113c0.013,-0.317 0.026,-0.633 0.048,-0.949c0.016,-0.205 0.034,-0.41 0.069,-0.612c0.016,-0.091 0.034,-0.182 0.073,-0.267m9.307,15.696c0.311,0.143 0.626,0.278 0.949,0.391c0.131,0.044 0.265,0.089 0.405,0.093c0.164,0.008 0.326,-0.025 0.488,-0.047c-0.474,-0.16 -0.947,-0.327 -1.427,-0.471c-0.139,-0.004 -0.276,0.034 -0.415,0.034Z" style="fill:#febc22;fill-rule:nonzero;"/><path d="M30.62,16.927c1.118,-0.617 2.401,-0.435 2.865,0.405c0.463,0.84 -0.069,2.022 -1.187,2.639c-1.117,0.616 -2.401,0.435 -2.864,-0.405c-0.464,-0.84 0.068,-2.023 1.186,-2.639Z" style="fill:#fff;"/><path id="_-fa0050ff" serif:id="#fa0050ff" d="M38.411,14.889c0.685,0.013 1.367,0.113 2.034,0.268c0.983,0.238 1.948,0.582 2.821,1.1c-0.105,-0.011 -0.209,-0.023 -0.313,-0.031c-0.471,-0.052 -0.944,-0.098 -1.418,-0.113c-0.229,-0.005 -0.46,-0.006 -0.686,0.034c-0.084,0.02 -0.18,0.04 -0.234,0.114c-0.046,0.071 0.025,0.142 0.082,0.177c0.183,0.111 0.393,0.164 0.598,0.216c0.532,0.125 1.079,0.18 1.625,0.205c0.646,0.025 1.301,0.009 1.935,-0.132c0.294,-0.065 0.585,-0.166 0.838,-0.333c-0.032,0.32 -0.148,0.636 -0.361,0.88c-0.281,0.328 -0.688,0.515 -1.096,0.632c-0.612,0.166 -1.255,0.181 -1.884,0.136c0.022,0.1 0.082,0.187 0.162,0.251c0.18,0.149 0.39,0.256 0.6,0.355c0.648,0.296 1.334,0.498 2.023,0.67c0.844,0.208 1.702,0.354 2.566,0.437c0.033,0.004 0.066,0.008 0.1,0.013c-0.011,0.041 -0.021,0.083 -0.033,0.124c-0.072,0.196 -0.253,0.32 -0.434,0.406c-0.347,0.156 -0.729,0.208 -1.105,0.242c-0.419,0.035 -0.838,0.009 -1.257,-0.012c0.091,0.144 0.256,0.207 0.392,0.296c0.16,0.103 0.338,0.183 0.469,0.324c0.085,0.082 0.032,0.215 -0.037,0.289c-0.142,0.139 -0.346,0.181 -0.534,0.21c-0.36,0.049 -0.724,0.02 -1.085,0c0.051,0.157 0.179,0.268 0.299,0.372c0.235,0.196 0.499,0.356 0.774,0.489c0.252,0.12 0.519,0.216 0.796,0.257c0.03,0.004 0.06,0.008 0.09,0.013c-0.035,0.156 -0.119,0.294 -0.22,0.416c-0.149,0.179 -0.333,0.326 -0.526,0.456c-0.22,0.141 -0.454,0.259 -0.7,0.349c-0.374,0.134 -0.765,0.211 -1.16,0.242c-0.478,0.029 -0.957,-0.009 -1.43,-0.083c-1.24,-0.188 -2.44,-0.614 -3.527,-1.238c-0.889,-0.515 -1.706,-1.156 -2.403,-1.912c-0.551,-0.6 -1.032,-1.272 -1.362,-2.019c-0.193,-0.454 -0.341,-0.941 -0.323,-1.438c0.014,-0.273 0.071,-0.544 0.169,-0.799c0.088,-0.215 0.204,-0.42 0.35,-0.601c0.083,-0.106 0.196,-0.184 0.269,-0.298l0.008,-0.012c0.061,-0.033 0.114,-0.08 0.168,-0.122c0.298,-0.231 0.641,-0.397 0.994,-0.524c0.632,-0.212 1.301,-0.303 1.966,-0.306Z" style="fill:#febc22;fill-rule:nonzero;"/></g></g><path d="M36.586,15.66c0.818,-0.338 1.69,-0.111 1.944,0.506c0.255,0.618 -0.203,1.393 -1.022,1.731c-0.818,0.337 -1.69,0.11 -1.944,-0.507c-0.255,-0.617 0.203,-1.392 1.022,-1.73Z" style="fill:#fff;"/><path id="_-fffef4ff" serif:id="#fffef4ff" d="M29.103,12.885c0.086,-0.038 0.659,1.458 0.687,1.796c0.014,0.176 -0.45,0.413 -0.519,0.232c-0.114,-0.3 -0.255,-1.989 -0.168,-2.028Z" style="fill:#fffef4;fill-rule:nonzero;"/></g></g><g><path d="M20.195,12.355c1.25,0.715 2.503,1.426 3.754,2.141c-0.555,0.973 -0.991,2.013 -1.298,3.09c-0.226,1.051 -0.347,2.127 -0.349,3.202c-0.002,1.498 0.23,2.997 0.691,4.422c0.697,2.177 1.937,4.177 3.574,5.773c1.605,1.567 3.599,2.733 5.752,3.362c1.999,0.592 4.132,0.721 6.187,0.377c1.526,-0.254 3.005,-0.771 4.366,-1.503c1.977,-1.07 3.69,-2.62 4.959,-4.474c0.703,-1.021 1.267,-2.135 1.701,-3.295c0.013,0.166 -0.056,0.321 -0.091,0.48c-0.238,0.878 -0.57,1.729 -0.982,2.539c-0.948,1.861 -2.337,3.491 -4.011,4.737c-2.377,1.778 -5.329,2.774 -8.299,2.79c-2.023,0.019 -4.048,-0.404 -5.897,-1.226c-1.942,-0.859 -3.686,-2.164 -5.056,-3.787c-0.614,-0.729 -1.152,-1.52 -1.611,-2.354c-1.132,0.644 -2.263,1.292 -3.39,1.945l0,-18.219Z" style="fill:#ffe25b;fill-rule:nonzero;"/><path d="M51.997,12.33c0.035,-0.023 0.063,-0.053 0.083,-0.091l0,18.288c-1.213,-0.676 -2.414,-1.373 -3.621,-2.058c0.412,-0.81 0.744,-1.661 0.982,-2.539c0.035,-0.159 0.104,-0.314 0.091,-0.48c0.095,-0.237 0.153,-0.486 0.214,-0.734c0.33,-1.363 0.453,-2.777 0.362,-4.177c-0.135,-2.13 -0.77,-4.224 -1.834,-6.074c1.24,-0.713 2.481,-1.424 3.723,-2.135Z" style="fill:#ffbc20;fill-rule:nonzero;"/><path id="_-ef7527ff" serif:id="#ef7527ff" d="M42.979,37.384l-6.838,0c0.022,-0.463 -0.007,-0.926 0.008,-1.388c2.97,-0.016 5.922,-1.012 8.299,-2.79c1.674,-1.246 3.063,-2.876 4.011,-4.737c1.183,0.671 2.359,1.354 3.546,2.016c-0.129,1.597 -0.425,2.429 -0.873,3.267c-0.619,1.157 -1.527,2.065 -2.684,2.684c-1.157,0.618 -2.305,0.948 -5.469,0.948Z" style="fill:#ef7527;fill-rule:nonzero;"/><path d="M20.195,37.384l0,-6.81l0,6.81Zm0.078,-6.855c1.101,-0.638 2.206,-1.271 3.312,-1.9c0.459,0.834 0.997,1.625 1.611,2.354c1.37,1.623 3.114,2.928 5.056,3.787c1.849,0.822 3.874,1.245 5.897,1.226c-0.015,0.462 0.014,0.925 -0.008,1.388l-6.845,0c-3.165,0 -4.312,-0.33 -5.469,-0.948c-1.157,-0.619 -2.065,-1.527 -2.684,-2.684c-0.444,-0.83 -0.739,-1.655 -0.87,-3.223Z" style="fill:#ffbc20;fill-rule:nonzero;"/><path d="M52.08,5.499l-9.101,0c3.164,0 4.312,0.329 5.469,0.948c1.157,0.619 2.065,1.527 2.684,2.684c0.441,0.825 0.735,1.646 0.868,3.197l-0.003,0.002c-1.242,0.711 -2.483,1.422 -3.723,2.135c-1.175,-2.052 -2.878,-3.801 -4.905,-5.02c-2.179,-1.316 -4.721,-2.022 -7.266,-2.019c-0.003,-0.643 -0.001,-1.285 -0.004,-1.927l15.981,0Z" style="fill:#ffe25b;fill-rule:nonzero;"/><path d="M36.099,5.499c0.003,0.642 0.001,1.284 0.004,1.927c-2.321,-0.001 -4.637,0.594 -6.674,1.705c-2.278,1.234 -4.203,3.111 -5.48,5.365c-1.226,-0.701 -2.454,-1.397 -3.68,-2.098c0.13,-1.597 0.426,-2.43 0.874,-3.267c0.619,-1.157 1.527,-2.065 2.684,-2.684c1.157,-0.619 2.304,-0.948 5.469,-0.948l-9.101,0l0,6.856l0,-6.856l15.904,0Z" style="fill:#fff;fill-rule:nonzero;"/></g><g><path d="M24.45,42.373l0,0.426l2.874,0l0,-0.426l-2.874,0Zm-0.162,1.524l0,0.426l1.89,0l0,2.514c0,0.156 -0.102,0.234 -0.294,0.234c-0.264,0 -0.534,-0.012 -0.822,-0.03l0.09,0.426l0.882,0c0.384,0 0.582,-0.174 0.582,-0.522l0,-2.622l0.972,0l0,-0.426l-3.3,0Zm-0.786,-1.854c-0.282,0.564 -0.732,1.068 -1.356,1.512l0.126,0.432c0.744,-0.51 1.284,-1.098 1.62,-1.764l-0.39,-0.18Zm0.282,1.368c-0.336,0.666 -0.87,1.254 -1.602,1.77l0.126,0.432c0.288,-0.198 0.546,-0.408 0.786,-0.624l0,2.502l0.426,0l0,-2.94c0.264,-0.3 0.48,-0.624 0.654,-0.96l-0.39,-0.18Z" style="fill:#1c1c1c;fill-rule:nonzero;"/><path d="M28.44,42.409l0,0.414l2.172,0l0,-0.414l-2.172,0Zm-0.234,1.62l0,0.42l0.834,0c-0.3,1.092 -0.54,1.758 -0.72,2.004c-0.024,0.012 -0.054,0.024 -0.096,0.036l0.102,0.408c0.744,-0.132 1.44,-0.312 2.076,-0.54c0.06,0.138 0.12,0.282 0.18,0.438l0.372,-0.192c-0.252,-0.606 -0.522,-1.164 -0.81,-1.68l-0.366,0.18c0.156,0.276 0.306,0.57 0.462,0.894c-0.468,0.174 -0.942,0.312 -1.416,0.408c0.18,-0.396 0.39,-1.044 0.63,-1.956l1.386,0l0,-0.42l-2.634,0Zm3.534,-2.022l0,1.212l-0.81,0l0,0.42l0.81,0l0,0.072c-0.012,1.614 -0.396,2.784 -1.146,3.51l0.324,0.282c0.816,-0.798 1.236,-2.064 1.254,-3.792l0,-0.072l0.888,0c-0.012,1.614 -0.036,2.58 -0.072,2.898c-0.048,0.342 -0.222,0.516 -0.516,0.516c-0.162,0 -0.354,-0.012 -0.57,-0.024l0.096,0.384c0.252,0.012 0.426,0.018 0.528,0.018c0.516,0 0.81,-0.246 0.87,-0.732c0.054,-0.444 0.084,-1.602 0.084,-3.48l-1.308,0l0,-1.212l-0.432,0Z" style="fill:#1c1c1c;fill-rule:nonzero;"/><path d="M38.058,43.873c0.048,1.416 0.48,2.604 1.302,3.564l0.318,-0.318c-0.456,-0.504 -0.786,-1.08 -0.99,-1.734c0.378,-0.216 0.684,-0.438 0.918,-0.654l-0.24,-0.306c-0.21,0.204 -0.468,0.396 -0.78,0.588c-0.09,-0.378 -0.138,-0.786 -0.144,-1.224c0.336,-0.084 0.66,-0.186 0.966,-0.3l-0.222,-0.354c-0.672,0.258 -1.38,0.432 -2.124,0.516l0,3.186c0,0.072 -0.06,0.126 -0.174,0.15l0.09,0.372c0.564,-0.156 1.05,-0.306 1.464,-0.462l-0.078,-0.378c-0.294,0.12 -0.594,0.222 -0.894,0.318l0,-2.868c0.198,-0.03 0.396,-0.06 0.588,-0.096Zm0.888,-1.878c-0.69,0.3 -1.644,0.498 -2.856,0.606l0,2.142c-0.024,0.936 -0.252,1.746 -0.684,2.424l0.306,0.318c0.492,-0.756 0.75,-1.674 0.78,-2.742l0,-1.794c1.092,-0.108 2.004,-0.318 2.736,-0.63l-0.282,-0.324Zm-4.278,0.084l-0.306,0.294c0.408,0.324 0.732,0.624 0.972,0.912l0.294,-0.3c-0.264,-0.3 -0.582,-0.606 -0.96,-0.906Zm-0.132,1.404l-0.306,0.3c0.39,0.324 0.696,0.624 0.918,0.912l0.294,-0.294c-0.246,-0.306 -0.546,-0.612 -0.906,-0.918Zm0.672,1.674c-0.246,0.714 -0.54,1.416 -0.876,2.1l0.402,0.174c0.312,-0.666 0.6,-1.374 0.852,-2.124l-0.378,-0.15Z" style="fill:#1c1c1c;fill-rule:nonzero;"/><path d="M41.586,42.607l-1.686,4.284l0.528,0l0.456,-1.2l1.968,0l0.456,1.2l0.534,0l-1.686,-4.284l-0.57,0Zm-0.546,2.67l0.822,-2.142l0.024,0l0.81,2.142l-1.656,0Z" style="fill:#1c1c1c;fill-rule:nonzero;"/><path d="M44.274,42.607l0,4.284l0.492,0l0,-1.752l1.254,0c0.984,0 1.482,-0.426 1.482,-1.272c0,-0.84 -0.492,-1.26 -1.476,-1.26l-1.752,0Zm0.492,0.426l1.23,0c0.342,0 0.594,0.066 0.762,0.21c0.168,0.126 0.252,0.336 0.252,0.624c0,0.288 -0.084,0.498 -0.246,0.636c-0.168,0.138 -0.42,0.21 -0.768,0.21l-1.23,0l0,-1.68Z" style="fill:#1c1c1c;fill-rule:nonzero;"/><path d="M48.126,42.607l0,4.284l0.492,0l0,-1.752l1.254,0c0.984,0 1.482,-0.426 1.482,-1.272c0,-0.84 -0.492,-1.26 -1.476,-1.26l-1.752,0Zm0.492,0.426l1.23,0c0.342,0 0.594,0.066 0.762,0.21c0.168,0.126 0.252,0.336 0.252,0.624c0,0.288 -0.084,0.498 -0.246,0.636c-0.168,0.138 -0.42,0.21 -0.768,0.21l-1.23,0l0,-1.68Z" style="fill:#1c1c1c;fill-rule:nonzero;"/></g></svg>