<svg clip-rule="evenodd" fill-rule="evenodd" stroke-linejoin="round" stroke-miterlimit="1.41421" viewBox="0 0 29 9" xmlns="http://www.w3.org/2000/svg"><path d="m28.32.48c0-.265-.215-.48-.48-.48h-27.36c-.265 0-.48.215-.48.48v7.68c0 .265.215.48.48.48h27.36c.265 0 .48-.215.48-.48v-7.68z" fill="#fff"/><path d="m3.134 1.984c.117-.067.26-.067.376 0 .401.232 1.338.773 1.74 1.004.116.067.187.191.187.326v2.008c0 .134-.071.259-.187.326-.402.231-1.339.772-1.74 1.004-.116.067-.259.067-.376 0-.401-.232-1.338-.773-1.739-1.004-.116-.067-.188-.192-.188-.326 0-.463 0-1.545 0-2.008 0-.135.072-.259.188-.326.401-.231 1.338-.772 1.739-1.004z" fill="#0da7fe"/><path d="m1.207 5.539 1.099-1.221 1.016 2.442z" fill="#1a67fd"/><path d="m2.306 4.318-1.084-1.23-.015 2.451z" fill="#0da7fe"/><path d="m2.306 4.318 1.016-2.442-2.1 1.212z" fill="#05bbff"/><path d="m3.322 1.876 2.115 3.663-3.131-1.221" fill="#00c9ff"/><path d="m3.322 6.764 2.115-1.225-3.131-1.221z" fill="#1a86fd"/><path d="m5.437 5.539v-2.442l-2.115-1.221z" fill="#05bbff"/><path d="m3.089 5.579c.017.001.035.001.053.001-.021 0-.042-.001-.062-.002zm.061.001h-.008.009zm.009 0h-.005.007zm.009 0h-.004.006zm.009-.001h-.003.005zm.009 0h-.003.006zm.009 0h-.002.006zm.008-.001h-.001.006zm.018 0c-.003 0-.006 0-.009 0zm.009-.001-.009.001zm.008-.001-.005.001.006-.001zm.009 0h-.004.006zm.009-.001h-.003.005zm.008-.001-.002.001.005-.001zm.009 0h-.002l.006-.001zm.009-.001h-.002l.007-.001zm.017-.002c-.003 0-.006.001-.009.001zm.008-.001-.008.001.009-.001zm.009-.001h-.005.006zm.009-.001h-.004l.005-.001zm.008-.001h-.003l.006-.001zm.009-.002-.003.001.006-.001zm.008-.001h-.002l.006-.001zm.009-.001h-.002l.007-.001zm.017-.003c-.004 0-.006.001-.009.001zm.008-.002-.008.002.009-.002zm.008-.001-.004.001.006-.001zm.009-.002-.004.001.006-.001zm.008-.001h-.003l.006-.001zm.009-.002h-.003l.006-.001zm.008-.002-.002.001.006-.002zm.008-.002-.001.001.006-.002zm.017-.003c-.003 0-.006.001-.009.002zm.008-.002-.008.001.009-.001zm.008-.002-.004.001.005-.002zm.008-.002-.003.001.005-.002zm.009-.002h-.003l.005-.001zm.008-.003-.002.001.005-.001zm.008-.002-.001.001.005-.002zm.008-.002h-.001l.006-.001zm.017-.005c-.003.001-.006.002-.009.003zm.008-.002-.008.002zm.008-.002-.005.001.006-.002zm.008-.003-.004.001.005-.001zm.008-.002h-.003l.005-.001zm.008-.003-.002.001.005-.002zm.008-.002h-.002l.006-.002zm.008-.003h-.001l.006-.002zm.016-.006c-.003.001-.006.002-.009.003zm.008-.003-.008.003zm.007-.002-.004.001.005-.002zm.008-.003-.003.001.005-.002zm.008-.003-.003.001.005-.002zm.008-.003-.002.001.005-.002zm.008-.003h-.002l.005-.002zm.007-.003h-.001l.006-.002zm.016-.007c-.003.001-.006.003-.008.004zm.008-.003-.008.003zm.007-.003-.004.002.005-.003zm.008-.003-.004.001.006-.002zm.008-.004-.003.001.005-.002zm.007-.003-.002.001.005-.003zm.008-.004-.002.001.005-.003zm.007-.003h-.001l.006-.003zm.007-.003.008-.005c-.054-.025-.101-.054-.142-.085-.06-.047-.128-.116-.19-.213-.029-.046-.053-.093-.076-.16-.022-.064-.072-.244-.004-.418.012-.031.047-.092.042-.092-.015.002-.105.12-.118.259-.016.179.065.346.065.346.003.009-.208-.09-.282-.308-.103-.305.091-.582.099-.594.063-.087.139-.156.169-.182h-.002s.017-.02.012-.012c.022-.031.033-.061.019-.087-.01-.019-.046-.033-.091-.031-.021.001-.082.016-.111.023-.018.007-.048.018-.087.034-.05.021-.112.046-.175.084-.112.067-.2.142-.274.217-.2.201-.252.42-.229.464-.035-.067-.012-.205.008-.262.109-.305.356-.477.483-.575.161-.124.238-.249.248-.274.049-.126.13-.203.247-.232.082-.02.18-.015.256.017.156.055.343.213.22.554-.042.107-.133.201-.195.255-.014.016-.036.031-.079.08-.057.063-.115.153-.084.144.137-.089.304-.126.506-.114.138.008.281.043.35.065.045.014.106.035.177.064l.001-.012c-.064.465-.362.856-.771 1.05zm.772-1.056-.001.004.002-.01zm.002-.018c0 .003 0 .007-.001.011zm.001-.008v.006l.001-.01zm.002-.018c0 .004-.001.008-.001.012zm.001-.008-.001.007.001-.01zm.002-.028c0 .007-.001.015-.001.022l.001-.011zm.001-.006v.003-.01zm.001-.019c0 .003 0 .007-.001.011zm.001-.007-.001.004.001-.01zm0-.019v.011zm.001-.008-.001.005.001-.009zm0-.018v.011zm0-.008v.006-.009zm-.003-.114c.002.031.003.064.003.096v.011-.011c0-.032-.001-.065-.003-.096zm-1.299-.498c-.006-.012-.002-.029.004-.038.007-.01.012-.017.034-.023.038-.009.056.019.057.031.002.017-.002.024-.008.03-.006.008-.022.017-.045.017-.007 0-.033.001-.042-.017zm-.743-.597c.003-.002.006-.003.009-.005l-.008.004zm.588 2.558c-.099-.006-.195-.023-.287-.049l.008.002c.092.026.188.042.288.048zm-.311-.056c-.011-.004-.022-.007-.032-.01l.007.002c.011.003.022.007.033.01zm-.048-.016c-.003-.001-.006-.002-.008-.003l.008.003c.002.001.005.002.008.003zm-.024-.008c-.016-.006-.031-.012-.047-.019l.008.004c.015.006.031.012.047.017zm-.062-.025c-.016-.006-.031-.013-.046-.02l.008.003c.015.007.03.014.045.02zm-.098-.046c-.118-.061-.225-.139-.32-.23l.006.005c.095.091.203.168.321.229zm-.332-.242c-.027-.027-.053-.055-.078-.084l.005.006c.025.029.052.057.079.084zm-.12-.135c-.01-.013-.02-.026-.029-.039l.004.006c.01.013.02.027.03.04zm-.053-.073c-.055-.082-.102-.17-.139-.264l.003.008c.038.093.085.181.141.263zm-.162-.327c-.006-.018-.012-.037-.018-.056.007.022.014.043.021.064zm-.024-.08c-.004-.014-.008-.028-.011-.041.004.016.008.033.013.049zm-.02-.083c-.003-.014-.006-.028-.008-.042.003.017.006.034.01.05zm-.017-.101c0-.003-.001-.006-.001-.009.001.006.001.011.002.017zm-.004-.035c-.001-.011-.002-.023-.003-.034.001.014.002.028.004.043zm-.007-.14v.027-.009c0-.006 0-.012 0-.018zm2.733-.131c-.006-.063-.016-.126-.031-.186.015.063.026.128.032.195zm-.048-.252c-.003-.011-.007-.021-.01-.032l.003.008c.003.011.006.022.009.032zm-.015-.048c-.003-.008-.006-.016-.008-.024l.002.008c.003.008.006.016.009.024zm-.014-.039c-.011-.032-.024-.063-.038-.093l.004.007c.013.031.026.062.037.093zm-.074-.168c-.002-.002-.003-.005-.004-.007l.004.007c.001.003.002.005.004.008zm-1.865-.566c.003-.001.005-.003.007-.004l-.007.004c-.002.001-.005.003-.007.004zm.029-.015c.003-.002.005-.003.008-.004l-.008.004c-.002.001-.005.002-.007.003zm.03-.015c.003-.001.005-.003.008-.004l-.008.004c-.002.001-.005.002-.007.003zm.061-.028c.054-.022.109-.042.166-.058l-.008.003c-.057.016-.112.035-.166.059zm.182-.062c.014-.004.028-.007.041-.01l-.008.002c-.014.003-.027.006-.041.01zm.108-.024c.023-.004.046-.007.068-.01l-.008.001c-.023.003-.046.006-.068.01zm.111-.015c.018-.002.035-.003.053-.004h-.009c-.018.002-.035.003-.052.005zm.079-.005c.017-.001.035-.001.053-.001-.021 0-.042 0-.062.001z" fill="#0d98fe"/><path d="m3.129 5.456c.017.001.035.001.053.001-.021 0-.041-.001-.062-.001zm.062.001h-.009zm.008 0h-.005.007zm.009 0h-.004.006zm.009-.001-.003.001.006-.001zm.009 0h-.003.006zm.009 0h-.002.006zm.008 0h-.001l.007-.001zm.018-.001c-.003 0-.006 0-.009 0zm.009-.001-.009.001zm.008-.001-.005.001.007-.001zm.009 0h-.004.006zm.009-.001h-.003.005zm.009-.001-.003.001.006-.001zm.008 0h-.002l.006-.001zm.009-.001h-.001l.006-.001zm.017-.002c-.003 0-.006.001-.009.001zm.009-.001-.009.001zm.008-.001h-.005.006zm.009-.001h-.004l.006-.001zm.008-.001h-.003l.006-.001zm.009-.002-.002.001.005-.001zm.008-.001h-.001l.005-.001zm.009-.001h-.001l.006-.001zm.017-.003c-.003 0-.006.001-.009.002zm.008-.002-.008.002.009-.002zm.009-.001-.005.001.006-.001zm.008-.002-.004.001.006-.001zm.008-.001h-.003l.006-.001zm.009-.002h-.003l.006-.001zm.008-.002-.002.001.006-.002zm.008-.001h-.001l.006-.002zm.017-.004c-.003 0-.006.001-.009.002zm.008-.002-.007.002.008-.002zm.009-.002-.005.001.006-.001zm.008-.002-.004.001.005-.002zm.008-.002h-.003l.005-.001zm.008-.002h-.002l.005-.001zm.008-.003-.001.001.005-.002zm.008-.002h-.001l.006-.001zm.017-.005c-.003.001-.006.002-.009.003zm.008-.002-.008.002zm.008-.002-.005.001.006-.002zm.008-.003-.004.001.006-.001zm.008-.002-.003.001.005-.002zm.008-.003-.002.001.005-.002zm.008-.002h-.002l.006-.002zm.008-.003h-.001l.006-.002zm.016-.006c-.003.001-.006.002-.009.003zm.008-.002-.008.002.008-.003zm.008-.003-.005.001.006-.002zm.007-.003-.003.001.005-.002zm.008-.003-.003.001.006-.002zm.008-.003-.002.001.005-.002zm.008-.003h-.002l.006-.002zm.008-.003h-.001l.006-.002zm.015-.007c-.003.001-.005.003-.008.004zm.008-.003-.008.003zm.007-.003-.004.002.006-.003zm.008-.003-.003.001.005-.002zm.008-.004-.003.001.005-.002zm.007-.003-.002.001.005-.003zm.008-.004-.002.001.006-.002zm.007-.003h-.001l.006-.003zm.007-.003.009-.004c-.055-.026-.102-.055-.142-.086-.061-.047-.129-.116-.191-.213-.029-.046-.053-.093-.076-.16-.022-.064-.072-.244-.004-.418.012-.031.047-.092.042-.092-.015.002-.105.12-.118.259-.016.179.065.346.065.346.003.009-.208-.089-.282-.308-.103-.305.091-.582.099-.594.063-.087.139-.156.169-.182h-.001s.017-.019.011-.012c.022-.031.033-.061.019-.087-.01-.019-.046-.032-.091-.031-.021.001-.082.016-.111.023-.018.007-.048.018-.087.034-.049.021-.112.046-.175.084-.112.067-.199.142-.274.217-.2.201-.252.42-.228.464-.036-.067-.013-.205.007-.262.109-.305.356-.477.483-.575.161-.124.238-.249.248-.274.049-.126.13-.203.247-.232.082-.02.18-.015.256.017.156.055.343.213.22.554-.042.107-.133.201-.194.255-.015.016-.037.031-.08.08-.057.063-.115.153-.084.144.137-.089.304-.126.506-.114.139.009.281.044.35.065.045.014.106.035.177.064l.001-.012c-.064.465-.362.856-.771 1.05zm.772-1.056v.005l.001-.011zm.003-.018c-.001.003-.001.007-.002.011zm0-.008v.006l.001-.01zm.002-.018c0 .004 0 .008-.001.012zm.001-.007v.006-.01zm.003-.029c-.001.008-.002.015-.002.022l.001-.011zm0-.006v.003l.001-.01zm.001-.019v.011zm.001-.007-.001.004.001-.009zm0-.019v.011zm.001-.008-.001.006.001-.01zm0-.018v.011zm0-.008v.007-.01zm-.003-.114c.002.032.003.064.003.096v.012-.012c0-.032-.001-.064-.003-.096zm-1.299-.498c-.006-.012-.002-.029.004-.038.007-.01.012-.017.034-.023.039-.009.056.019.057.031.003.017-.002.024-.007.03-.007.008-.022.017-.046.018-.007 0-.033 0-.042-.018zm-.743-.597c.003-.002.006-.003.009-.005l-.008.004zm.588 2.558c-.099-.006-.195-.023-.287-.049l.008.002c.092.026.189.042.288.048zm-.311-.056c-.011-.004-.022-.007-.032-.01l.008.002c.01.004.021.007.032.01zm-.048-.016c-.003-.001-.006-.002-.008-.003l.008.003c.002.001.005.002.008.003zm-.024-.008c-.016-.006-.031-.012-.047-.018l.008.003c.016.006.031.012.047.018zm-.062-.025c-.015-.006-.031-.013-.046-.02l.008.003c.015.007.03.014.046.02zm-.098-.046c-.117-.061-.225-.139-.32-.23l.006.006c.095.09.203.167.322.228zm-.332-.242c-.027-.027-.053-.055-.078-.084l.005.006c.026.029.052.057.079.084zm-.12-.135c-.01-.013-.02-.026-.029-.039l.005.006c.009.014.019.027.03.04zm-.053-.073c-.055-.082-.102-.17-.139-.264l.003.008c.038.093.085.181.141.263zm-.162-.327c-.006-.018-.012-.037-.017-.056.006.022.013.043.02.064zm-.024-.08c-.004-.014-.007-.027-.011-.041.004.016.008.033.013.049zm-.02-.083c-.003-.014-.005-.028-.008-.042.003.017.006.034.01.051zm-.017-.101c0-.003 0-.006-.001-.009.001.006.002.011.002.017zm-.004-.035c-.001-.011-.002-.023-.003-.034.001.014.003.028.004.043zm-.007-.14v.027-.009c0-.006 0-.012 0-.018zm2.733-.131c-.006-.063-.016-.126-.031-.186.015.063.026.128.032.195zm-.048-.252c-.003-.01-.006-.021-.01-.032l.003.008c.003.011.006.022.009.033zm-.015-.048c-.003-.008-.005-.016-.008-.024l.003.008c.002.008.005.016.008.024zm-.014-.039c-.011-.032-.024-.063-.038-.093l.004.008c.013.03.026.061.037.093zm-.074-.168c-.001-.002-.003-.005-.004-.007l.004.007c.001.003.002.005.004.008zm-1.865-.566c.003-.001.005-.003.008-.004l-.008.004c-.002.001-.005.003-.007.004zm.03-.015c.002-.002.004-.003.007-.004l-.007.004c-.003.001-.005.002-.008.003zm.029-.015c.003-.001.005-.003.008-.004l-.008.004c-.002.001-.005.002-.007.003zm.061-.028c.054-.022.109-.042.166-.058l-.008.003c-.057.016-.112.036-.166.059zm.183-.062c.013-.004.027-.007.041-.01l-.009.002c-.013.003-.027.007-.041.01zm.107-.024c.023-.004.046-.007.069-.01l-.009.001c-.023.003-.046.007-.068.011zm.111-.015c.018-.002.035-.003.053-.004h-.009c-.017.002-.035.003-.052.005zm.079-.005c.017-.001.035-.001.053-.001-.021 0-.041 0-.062.001z" fill="#d6ffff"/><g fill="#1a86fd" fill-rule="nonzero"><path d="m6.623 3.024h.344v2.545h-.344z"/><path d="m7.983 3.024h.404c.265 0 .481.058.649.173s.252.26.252.436c0 .215-.124.394-.372.538.384.127.575.349.575.665 0 .219-.098.397-.296.531-.198.135-.463.202-.794.202h-.418zm.344.308v.753c.192-.003.338-.04.44-.11.102-.071.153-.168.153-.292 0-.108-.046-.194-.138-.259-.091-.064-.215-.096-.369-.096-.033 0-.062.001-.086.004zm0 1.054v.871h.028c.299 0 .504-.048.613-.144.109-.095.164-.193.164-.293 0-.132-.061-.237-.184-.316-.122-.078-.29-.118-.503-.118z"/><path d="m10.384 3.024h.344v2.545h-.344z"/><path d="m13.248 3.306-.282.225c-.074-.077-.142-.135-.202-.172-.061-.038-.149-.057-.263-.057-.125 0-.227.028-.305.084-.077.057-.117.13-.117.219 0 .078.034.146.102.205s.184.124.348.194.291.135.383.195c.091.061.166.128.224.201.059.073.103.151.131.232.029.081.043.167.043.258 0 .211-.077.392-.231.541s-.34.224-.558.224c-.213 0-.401-.059-.564-.175-.163-.117-.289-.291-.377-.524l.348-.098c.126.286.32.429.581.429.127 0 .232-.038.316-.114s.125-.172.125-.287c0-.07-.021-.139-.065-.209s-.099-.128-.164-.173-.17-.097-.313-.155-.253-.111-.329-.16c-.077-.048-.143-.106-.199-.173-.056-.068-.097-.134-.123-.201s-.039-.138-.039-.214c0-.182.073-.338.22-.466.146-.129.324-.193.533-.193.139 0 .279.03.422.09.142.06.261.151.355.274z"/><path d="m13.973 5.335c0-.073.026-.136.079-.19.052-.053.116-.08.19-.08s.137.027.19.08c.054.054.08.117.08.19 0 .075-.026.138-.079.191-.052.052-.116.079-.191.079-.074 0-.138-.026-.19-.078-.053-.052-.079-.116-.079-.192z"/><path d="m15.423 3.024h.343v2.201h.829v.344h-1.172z"/><path d="m17.006 4.28c0-.367.138-.682.415-.944.277-.263.61-.394.999-.394.379 0 .706.132.981.397.274.264.411.578.411.941 0 .385-.135.711-.406.976-.271.266-.604.399-.998.399-.389 0-.72-.134-.993-.402-.273-.267-.409-.592-.409-.973zm2.437.016c0-.281-.102-.517-.304-.71-.202-.192-.451-.288-.747-.288-.281 0-.522.097-.722.293-.201.196-.301.431-.301.705 0 .279.103.514.309.707.205.192.458.288.756.288.274 0 .511-.098.71-.294.199-.197.299-.43.299-.701z"/><path d="m20.177 3.028h.367l.797 1.8.803-1.8h.372l-1.179 2.627z"/><path d="m23.036 3.024h1.41v.347h-1.067v.636h1.067v.343h-1.067v.875h1.067v.344h-1.41z"/><path d="m25.801 5.537c0 .011.009.021.02.021h.13c.011 0 .021-.01.021-.021v-.578h.155c.012 0 .021-.01.021-.021v-.118c0-.011-.009-.021-.021-.021h-.481c-.012 0-.021.01-.021.021v.118c0 .011.009.021.021.021h.155z"/><path d="m26.262 5.534c-.002.014.008.024.021.024h.128c.011 0 .02-.009.021-.017l.047-.335h.002l.184.351c.003.006.012.012.018.012h.02c.005 0 .015-.006.018-.012l.182-.351h.002l.049.335c.001.008.011.017.021.017h.128c.013 0 .022-.01.02-.024l-.122-.728c-.001-.01-.011-.018-.02-.018h-.017c-.006 0-.015.005-.019.011l-.251.468h-.002l-.252-.468c-.003-.006-.013-.011-.018-.011h-.018c-.008 0-.018.008-.019.018z"/></g><path d="m3.134 1.984c.117-.067.26-.067.376 0 .401.232 1.338.773 1.74 1.004.116.067.187.191.187.326v2.008c0 .134-.071.259-.187.326-.402.231-1.339.772-1.74 1.004-.116.067-.259.067-.376 0-.401-.232-1.338-.773-1.739-1.004-.116-.067-.188-.192-.188-.326 0-.463 0-1.545 0-2.008 0-.135.072-.259.188-.326.401-.231 1.338-.772 1.739-1.004z" fill="#0da7fe"/><path d="m1.207 5.539 1.099-1.221 1.016 2.442z" fill="#1a67fd"/><path d="m2.306 4.318-1.084-1.23-.015 2.451z" fill="#0da7fe"/><path d="m2.306 4.318 1.016-2.442-2.1 1.212z" fill="#05bbff"/><path d="m3.322 1.876 2.115 3.663-3.131-1.221" fill="#00c9ff"/><path d="m3.322 6.764 2.115-1.225-3.131-1.221z" fill="#1a86fd"/><path d="m5.437 5.539v-2.442l-2.115-1.221z" fill="#05bbff"/><path d="m3.14 5.538c.018.001.035.001.053.001-.021 0-.041 0-.062-.001zm.062.001h-.009zm.009 0h-.005.006zm.009 0h-.004.005zm.008 0h-.003.006zm.009-.001-.002.001.005-.001zm.009 0h-.002.006zm.009 0h-.001l.006-.001zm.017-.001c-.003 0-.006 0-.009 0zm.009-.001-.008.001.009-.001zm.009 0h-.005.006zm.008-.001h-.003.005zm.009-.001-.003.001.005-.001zm.009 0h-.003l.006-.001zm.008-.001h-.001.005zm.009-.001h-.001.006zm.017-.002c-.003 0-.006.001-.009.001zm.009-.001-.008.001zm.008-.001-.004.001.006-.001zm.009-.001h-.004.006zm.009-.001h-.004.006zm.008-.001h-.002l.005-.001zm.009-.002-.002.001.005-.001zm.008-.001h-.001l.006-.001zm.017-.003c-.003.001-.006.001-.009.002zm.008-.001-.008.001.009-.001zm.009-.002-.005.001.006-.001zm.008-.001h-.004l.006-.001zm.009-.002h-.003l.005-.001zm.008-.002-.002.001.005-.001zm.008-.001h-.001l.005-.001zm.009-.002h-.001l.006-.001zm.016-.004c-.003.001-.006.001-.009.002zm.008-.002-.007.002.008-.002zm.009-.002-.005.001.006-.001zm.008-.002-.004.001.006-.001zm.008-.002-.003.001.006-.002zm.008-.002h-.002l.005-.001zm.009-.002h-.002l.005-.001zm.008-.003-.001.001.006-.002zm.016-.004c-.003.001-.006.002-.009.002zm.008-.003-.007.003.008-.003zm.008-.002-.004.001.005-.001zm.008-.002-.003.001.005-.002zm.008-.003-.003.001.005-.002zm.008-.003-.002.001.005-.002zm.008-.002h-.001l.005-.002zm.008-.003h-.001l.006-.002zm.016-.005c-.003.001-.005.002-.008.003zm.008-.003-.007.002.008-.002zm.008-.003-.005.002.006-.002zm.008-.003-.004.001.005-.002zm.007-.003-.002.001.005-.002zm.008-.003-.002.001.005-.002zm.008-.003-.002.001.006-.002zm.008-.003h-.001l.006-.002zm.015-.006c-.002.001-.005.002-.008.003zm.008-.004-.007.004.008-.004zm.008-.003-.005.002.006-.002zm.007-.003-.003.001.005-.002zm.008-.003-.003.001.005-.003zm.008-.004-.003.001.005-.002zm.007-.003h-.002l.006-.002zm.008-.004-.001.001.006-.003zm.007-.003.008-.004c-.054-.026-.102-.054-.142-.086-.061-.046-.129-.116-.19-.213-.029-.045-.053-.093-.077-.16-.022-.064-.072-.244-.003-.418.012-.031.046-.092.041-.092-.014.002-.105.12-.117.259-.017.179.064.347.064.347.004.008-.207-.09-.281-.309-.104-.305.091-.582.099-.593.063-.088.138-.157.169-.183h-.002s.017-.019.011-.011c.022-.032.033-.061.019-.088-.009-.019-.046-.032-.091-.03-.021 0-.082.015-.11.022-.018.008-.049.019-.088.035-.049.02-.112.046-.175.083-.111.067-.199.142-.274.217-.2.202-.252.42-.228.465-.036-.067-.013-.205.008-.263.108-.305.355-.476.483-.575.161-.124.237-.249.247-.274.05-.126.13-.203.248-.232.081-.02.18-.015.255.017.156.055.344.214.22.554-.041.107-.133.201-.194.255-.014.016-.037.031-.08.08-.056.063-.115.154-.084.145.137-.09.304-.127.507-.115.138.009.281.044.35.065.044.014.105.035.176.064l.002-.011c-.065.464-.363.855-.771 1.049zm.771-1.056v.005l.001-.01zm.003-.018c-.001.004-.001.007-.001.011zm.001-.007-.001.005.001-.01zm.002-.018c-.001.004-.001.007-.001.011zm0-.008v.006l.001-.01zm.003-.029c-.001.008-.001.015-.002.023l.001-.012zm0-.006v.003l.001-.01zm.001-.019v.011zm.001-.007v.004-.009zm.001-.019c0 .004-.001.008-.001.011zm0-.007v.005-.009zm0-.019v.012zm.001-.008-.001.007.001-.01zm-.004-.114c.003.032.004.064.004.096v.012-.012c0-.032-.001-.064-.004-.096zm-1.299-.497c-.006-.013-.002-.03.004-.039.007-.01.012-.017.035-.022.038-.01.055.019.057.03.002.017-.003.024-.008.031-.007.008-.022.017-.046.017-.006 0-.033.001-.042-.017zm-.743-.597c.003-.002.006-.004.009-.006l-.007.004zm.588 2.557c-.099-.006-.195-.023-.287-.049l.008.002c.093.026.189.042.288.048zm-.311-.056c-.011-.003-.021-.007-.032-.01l.008.002c.011.004.021.007.032.01zm-.048-.016c-.003-.001-.005-.001-.008-.002l.008.002.008.003zm-.024-.008c-.015-.006-.031-.012-.046-.018l.007.003c.016.006.031.012.047.018zm-.062-.025c-.015-.006-.03-.013-.045-.02l.007.004c.015.007.03.013.046.02zm-.098-.046c-.117-.061-.225-.139-.32-.23l.006.006c.096.091.204.168.322.228zm-.331-.241c-.028-.027-.054-.056-.079-.085l.006.007c.025.029.051.057.079.083zm-.12-.136c-.01-.013-.02-.026-.03-.039l.005.007.03.039zm-.053-.073c-.056-.082-.103-.17-.139-.263l.003.007c.037.093.084.181.14.263zm-.162-.326c-.007-.019-.013-.038-.018-.057.006.022.013.043.02.065zm-.025-.081c-.004-.014-.007-.027-.01-.041.003.016.008.033.012.049zm-.02-.083c-.003-.014-.005-.028-.008-.042.003.017.007.034.01.051zm-.017-.101c0-.003 0-.006-.001-.009.001.006.002.012.003.017zm-.003-.034c-.002-.012-.003-.024-.004-.035.002.014.003.029.005.043zm-.008-.141c0 .009.001.018.001.027v-.009c0-.006-.001-.012-.001-.018zm2.733-.131c-.006-.063-.016-.125-.03-.186.015.063.025.129.031.195zm-.048-.251c-.003-.011-.006-.022-.01-.033l.003.009c.003.01.007.021.01.032zm-.015-.049c-.002-.008-.005-.015-.008-.023l.003.008c.003.007.005.015.008.023zm-.013-.039c-.012-.032-.025-.063-.038-.093l.003.008c.014.03.026.061.037.093zm-.075-.167c-.001-.003-.002-.005-.004-.008l.004.008c.001.002.003.004.004.007zm-1.864-.567c.002-.001.004-.002.007-.004l-.007.004c-.003.002-.005.003-.008.004zm.029-.015c.002-.001.005-.003.007-.004l-.007.004c-.003.001-.005.002-.008.004zm.03-.015c.002-.001.004-.002.007-.003l-.007.003c-.003.001-.005.003-.008.004zm.06-.027c.054-.023.109-.043.166-.058l-.008.002c-.056.016-.112.036-.165.059zm.183-.063c.013-.003.027-.007.041-.01l-.008.002c-.014.003-.028.007-.041.01zm.108-.024c.022-.004.045-.007.068-.01l-.009.001c-.023.003-.045.007-.068.011zm.111-.015c.017-.002.035-.003.052-.004l-.009.001c-.017.001-.035.002-.052.004zm.078-.005c.018-.001.035-.001.053-.001-.021 0-.041 0-.062.001z" fill="#0d98fe"/><path d="m3.129 5.456c.017.001.035.001.053.001-.021 0-.041-.001-.062-.001zm.062.001h-.009zm.008 0h-.005.007zm.009 0h-.004.006zm.009-.001-.003.001.006-.001zm.009 0h-.003.006zm.009 0h-.002.006zm.008 0h-.001l.007-.001zm.018-.001c-.003 0-.006 0-.009 0zm.009-.001-.009.001zm.008-.001-.005.001.007-.001zm.009 0h-.004.006zm.009-.001h-.003.005zm.009-.001-.003.001.006-.001zm.008 0h-.002l.006-.001zm.009-.001h-.001l.006-.001zm.017-.002c-.003 0-.006.001-.009.001zm.009-.001-.009.001zm.008-.001h-.005.006zm.009-.001h-.004l.006-.001zm.008-.001h-.003l.006-.001zm.009-.002-.002.001.005-.001zm.008-.001h-.001l.005-.001zm.009-.001h-.001l.006-.001zm.017-.003c-.003 0-.006.001-.009.002zm.008-.002-.008.002.009-.002zm.009-.001-.005.001.006-.001zm.008-.002-.004.001.006-.001zm.008-.001h-.003l.006-.001zm.009-.002h-.003l.006-.001zm.008-.002-.002.001.006-.002zm.008-.001h-.001l.006-.002zm.017-.004c-.003 0-.006.001-.009.002zm.008-.002-.007.002.008-.002zm.009-.002-.005.001.006-.001zm.008-.002-.004.001.005-.002zm.008-.002h-.003l.005-.001zm.008-.002h-.002l.005-.001zm.008-.003-.001.001.005-.002zm.008-.002h-.001l.006-.001zm.017-.005c-.003.001-.006.002-.009.003zm.008-.002-.008.002zm.008-.002-.005.001.006-.002zm.008-.003-.004.001.006-.001zm.008-.002-.003.001.005-.002zm.008-.003-.002.001.005-.002zm.008-.002h-.002l.006-.002zm.008-.003h-.001l.006-.002zm.016-.006c-.003.001-.006.002-.009.003zm.008-.002-.008.002.008-.003zm.008-.003-.005.001.006-.002zm.007-.003-.003.001.005-.002zm.008-.003-.003.001.006-.002zm.008-.003-.002.001.005-.002zm.008-.003h-.002l.006-.002zm.008-.003h-.001l.006-.002zm.015-.007c-.003.001-.005.003-.008.004zm.008-.003-.008.003zm.007-.003-.004.002.006-.003zm.008-.003-.003.001.005-.002zm.008-.004-.003.001.005-.002zm.007-.003-.002.001.005-.003zm.008-.004-.002.001.006-.002zm.007-.003h-.001l.006-.003zm.007-.003.009-.004c-.055-.026-.102-.055-.142-.086-.061-.047-.129-.116-.191-.213-.029-.046-.053-.093-.076-.16-.022-.064-.072-.244-.004-.418.012-.031.047-.092.042-.092-.015.002-.105.12-.118.259-.016.179.065.346.065.346.003.009-.208-.089-.282-.308-.103-.305.091-.582.099-.594.063-.087.139-.156.169-.182h-.001s.017-.019.011-.012c.022-.031.033-.061.019-.087-.01-.019-.046-.032-.091-.031-.021.001-.082.016-.111.023-.018.007-.048.018-.087.034-.049.021-.112.046-.175.084-.112.067-.199.142-.274.217-.2.201-.252.42-.228.464-.036-.067-.013-.205.007-.262.109-.305.356-.477.483-.575.161-.124.238-.249.248-.274.049-.126.13-.203.247-.232.082-.02.18-.015.256.017.156.055.343.213.22.554-.042.107-.133.201-.194.255-.015.016-.037.031-.08.08-.057.063-.115.153-.084.144.137-.089.304-.126.506-.114.139.009.281.044.35.065.045.014.106.035.177.064l.001-.012c-.064.465-.362.856-.771 1.05zm.772-1.056v.005l.001-.011zm.003-.018c-.001.003-.001.007-.002.011zm0-.008v.006l.001-.01zm.002-.018c0 .004 0 .008-.001.012zm.001-.007v.006-.01zm.003-.029c-.001.008-.002.015-.002.022l.001-.011zm0-.006v.003l.001-.01zm.001-.019v.011zm.001-.007-.001.004.001-.009zm0-.019v.011zm.001-.008-.001.006.001-.01zm0-.018v.011zm0-.008v.007-.01zm-.003-.114c.002.032.003.064.003.096v.012-.012c0-.032-.001-.064-.003-.096zm-1.299-.498c-.006-.012-.002-.029.004-.038.007-.01.012-.017.034-.023.039-.009.056.019.057.031.003.017-.002.024-.007.03-.007.008-.022.017-.046.018-.007 0-.033 0-.042-.018zm-.743-.597c.003-.002.006-.003.009-.005l-.008.004zm.588 2.558c-.099-.006-.195-.023-.287-.049l.008.002c.092.026.189.042.288.048zm-.311-.056c-.011-.004-.022-.007-.032-.01l.008.002c.01.004.021.007.032.01zm-.048-.016c-.003-.001-.006-.002-.008-.003l.008.003c.002.001.005.002.008.003zm-.024-.008c-.016-.006-.031-.012-.047-.018l.008.003c.016.006.031.012.047.018zm-.062-.025c-.015-.006-.031-.013-.046-.02l.008.003c.015.007.03.014.046.02zm-.098-.046c-.117-.061-.225-.139-.32-.23l.006.006c.095.09.203.167.322.228zm-.332-.242c-.027-.027-.053-.055-.078-.084l.005.006c.026.029.052.057.079.084zm-.12-.135c-.01-.013-.02-.026-.029-.039l.005.006c.009.014.019.027.03.04zm-.053-.073c-.055-.082-.102-.17-.139-.264l.003.008c.038.093.085.181.141.263zm-.162-.327c-.006-.018-.012-.037-.017-.056.006.022.013.043.02.064zm-.024-.08c-.004-.014-.007-.027-.011-.041.004.016.008.033.013.049zm-.02-.083c-.003-.014-.005-.028-.008-.042.003.017.006.034.01.051zm-.017-.101c0-.003 0-.006-.001-.009.001.006.002.011.002.017zm-.004-.035c-.001-.011-.002-.023-.003-.034.001.014.003.028.004.043zm-.007-.14v.027-.009c0-.006 0-.012 0-.018zm2.733-.131c-.006-.063-.016-.126-.031-.186.015.063.026.128.032.195zm-.048-.252c-.003-.01-.006-.021-.01-.032l.003.008c.003.011.006.022.009.033zm-.015-.048c-.003-.008-.005-.016-.008-.024l.003.008c.002.008.005.016.008.024zm-.014-.039c-.011-.032-.024-.063-.038-.093l.004.008c.013.03.026.061.037.093zm-.074-.168c-.001-.002-.003-.005-.004-.007l.004.007c.001.003.002.005.004.008zm-1.865-.566c.003-.001.005-.003.008-.004l-.008.004c-.002.001-.005.003-.007.004zm.03-.015c.002-.002.004-.003.007-.004l-.007.004c-.003.001-.005.002-.008.003zm.029-.015c.003-.001.005-.003.008-.004l-.008.004c-.002.001-.005.002-.007.003zm.061-.028c.054-.022.109-.042.166-.058l-.008.003c-.057.016-.112.036-.166.059zm.183-.062c.013-.004.027-.007.041-.01l-.009.002c-.013.003-.027.007-.041.01zm.107-.024c.023-.004.046-.007.069-.01l-.009.001c-.023.003-.046.007-.068.011zm.111-.015c.018-.002.035-.003.053-.004h-.009c-.017.002-.035.003-.052.005zm.079-.005c.017-.001.035-.001.053-.001-.021 0-.041 0-.062.001z" fill="#d6ffff"/></svg>