<svg clip-rule="evenodd" fill-rule="evenodd" stroke-linejoin="round" stroke-miterlimit="1.41421" viewBox="0 0 18 13" xmlns="http://www.w3.org/2000/svg" xmlns:xlink="http://www.w3.org/1999/xlink"><linearGradient id="a"><stop offset="0" stop-color="#fed040"/><stop offset="1" stop-color="#f15a2a"/></linearGradient><linearGradient id="b" gradientTransform="matrix(-3.98407 -.295398 -.295398 3.98407 10.3207 3.55882)" gradientUnits="userSpaceOnUse" x1="0" x2="1" xlink:href="#a" y1="0" y2="0"/><linearGradient id="c" gradientTransform="matrix(-3.73997 -1.40478 -1.40478 3.73997 10.4996 4.55592)" gradientUnits="userSpaceOnUse" x1="0" x2="1" xlink:href="#a" y1="0" y2="0"/><linearGradient id="d" gradientTransform="matrix(-3.19325 -2.40079 -2.40079 3.19325 10.3905 5.5631)" gradientUnits="userSpaceOnUse" x1="0" x2="1" xlink:href="#a" y1="0" y2="0"/><linearGradient id="e" gradientTransform="matrix(-2.3883 -3.20258 -3.20258 2.3883 10.0024 6.49885)" gradientUnits="userSpaceOnUse" x1="0" x2="1" xlink:href="#a" y1="0" y2="0"/><linearGradient id="f" gradientTransform="matrix(-1.39026 -3.74538 -3.74538 1.39026 9.36654 7.2875)" gradientUnits="userSpaceOnUse" x1="0" x2="1" xlink:href="#a" y1="0" y2="0"/><path d="m17.64.72c0-.397-.323-.72-.72-.72h-16.2c-.397 0-.72.323-.72.72v11.52c0 .397.323.72.72.72h16.2c.397 0 .72-.323.72-.72v-11.52z" fill="#fff"/><path d="m12.499 6.788c0 .759-.079 1.035-.227 1.312-.149.278-.367.496-.644.645-.278.148-.554.227-1.313.227h-3.284c-.759 0-1.035-.079-1.313-.227-.277-.149-.495-.367-.644-.645-.148-.277-.227-.553-.227-1.312v2.184-7.652h7.652-2.184c.759 0 1.035.079 1.313.227.277.149.495.367.644.644.148.278.227.553.227 1.313zm-5.468-5.468h-2.184v2.184c0-.76.079-1.035.227-1.313.149-.277.367-.495.644-.644.278-.148.554-.227 1.313-.227z" fill="#321bc7"/><path d="m7.921 4.33c-.059-.043-.116-.09-.169-.14-.197-.187-.457-.31-.75-.332-.263-.02-.513.046-.722.173.39-.654 1.289-.523 2.471-.327 1.348.224 1.641-1.314 1.641-1.314.037 1.917-1.413 2.694-2.471 1.94z" fill="url(#b)"/><path d="m7.98 4.62c-.045-.057-.086-.118-.123-.181-.136-.236-.351-.427-.626-.53-.247-.093-.505-.1-.742-.037.559-.518 1.385-.14 2.463.381 1.231.595 1.945-.799 1.945-.799-.504 1.85-2.114 2.188-2.917 1.166z" fill="url(#c)"/><path d="m7.955 4.916c-.027-.068-.05-.138-.067-.209-.064-.264-.217-.509-.452-.685-.21-.158-.456-.238-.701-.244.682-.34 1.368.256 2.256 1.059 1.014.917 2.09-.219 2.09-.219-1.003 1.633-2.644 1.504-3.126.298z" fill="url(#d)"/><path d="m7.848 5.192c-.007-.073-.009-.146-.006-.219.013-.272-.065-.549-.24-.784-.158-.212-.372-.358-.605-.432.75-.135 1.241.63 1.867 1.651.714 1.166 2.067.378 2.067.378-1.422 1.285-2.96.699-3.083-.594z" fill="url(#e)"/><path d="m7.667 5.427c.013-.072.033-.143.056-.212.089-.257.092-.545-.01-.82-.092-.247-.255-.447-.459-.585.758.082 1.014.955 1.327 2.11.358 1.32 1.878.945 1.878.945-1.727.833-3.038-.163-2.792-1.438z" fill="url(#f)"/><g fill-rule="nonzero"><path d="m5.291 10.044c0 .001.007.007.022.018.015.01.033.022.053.036.02.013.04.025.06.036.019.012.034.019.044.023.003.001.005.003.009.005.003.002.006.004.008.006.014-.001.032-.003.053-.005.021-.003.045-.005.071-.008.026-.002.053-.005.08-.008.028-.003.054-.007.08-.01.025-.003.048-.006.069-.009.02-.003.037-.006.05-.009.02-.005.037-.009.052-.013.014-.004.027-.007.037-.009.01-.003.018-.005.024-.006.007-.001.012-.003.017-.004.004 0 .01.003.019.01.009.006.019.014.03.023.012.01.024.02.036.032.013.012.024.024.033.036.01.012.017.023.023.033.006.011.007.019.005.025-.001.005-.006.014-.013.028-.006.014-.015.03-.024.049-.01.018-.02.037-.03.058-.011.021-.021.041-.031.061-.009.019-.017.037-.024.054-.007.016-.012.028-.014.035-.002.009-.003.017-.004.022-.001.006-.003.011-.004.016.003.003.005.005.008.007.002.002.005.004.007.006.01.009.019.019.027.029.007.01.01.019.007.026-.005.014-.007.023-.007.027s-.002.005-.004.005c-.001 0-.007 0-.018 0s-.025.001-.042.002c-.017.002-.036.003-.059.003-.023.001-.047.002-.072.003.009.009.019.02.03.032.012.013.022.025.032.037s.019.023.026.033.011.017.012.021c0 .004 0 .018-.002.043-.001.026-.003.056-.005.093.013-.005.032-.011.056-.019.024-.007.049-.015.074-.024.025-.008.048-.015.068-.021.02-.007.034-.012.042-.015.01-.004.023-.002.038.006.016.008.032.018.047.03s.027.024.038.035c.01.012.013.019.011.023-.001.001-.01.004-.026.008-.015.003-.035.008-.059.012s-.05.009-.079.013c-.028.005-.056.008-.084.012-.027.003-.053.005-.076.008-.024.003-.042.004-.054.006-.003.032-.005.066-.006.099s-.002.064-.004.093c-.001.028-.001.052-.001.072.001.02.003.034.005.04.004.013.018.024.044.033.025.01.054.017.088.023.033.005.067.009.103.01.035.001.064 0 .088-.005.024-.006.045-.012.062-.018.017-.007.032-.014.044-.021.013-.007.024-.013.034-.019s.02-.009.031-.011c.01-.002.023.003.04.015s.033.026.048.042c.016.017.027.033.034.048.008.016.007.027-.001.033-.006.004-.017.008-.035.013-.019.004-.041.008-.067.01-.025.003-.053.005-.084.007-.03.002-.061.003-.093.004-.032 0-.063 0-.093 0s-.056-.001-.08-.003c-.036-.003-.068-.007-.099-.013-.03-.005-.056-.013-.079-.024s-.042-.024-.057-.041c-.015-.016-.024-.037-.028-.062-.003-.013-.004-.035-.006-.066-.001-.032-.002-.068-.003-.109-.002-.041-.003-.085-.005-.132-.002-.048-.005-.094-.008-.138-.003-.045-.007-.086-.011-.122-.005-.037-.011-.066-.02-.087-.028.001-.055.002-.082.004-.027.001-.052.002-.076.004-.023.002-.044.004-.062.005s-.033.003-.045.004c-.001.009-.003.019-.007.03s-.008.022-.012.033c-.003.011-.007.02-.012.027-.004.007-.008.011-.01.012-.004.001-.009-.001-.014-.006-.006-.005-.012-.012-.019-.022-.007-.011-.014-.022-.02-.035-.006-.012-.011-.025-.015-.037-.004-.013-.007-.034-.009-.064-.002-.029-.004-.062-.005-.097-.002-.035-.005-.07-.008-.105s-.007-.065-.012-.09c-.005-.024-.011-.048-.018-.072-.007-.023-.014-.046-.021-.067-.007-.02-.014-.039-.022-.056-.007-.017-.014-.031-.021-.041s-.012-.02-.016-.028c-.003-.009-.005-.016-.005-.022-.001-.006-.001-.01.001-.013.001-.003.002-.004.002-.001zm.234.351c.019-.002.042-.005.071-.009.028-.004.056-.008.082-.011.027-.004.05-.007.071-.01.021-.002.032-.004.035-.006.005 0 .012.004.022.011.009.007.018.015.026.023.008.009.015.018.019.027s.005.014.001.017c-.003.001-.011.002-.026.004-.014.001-.031.002-.052.003-.02 0-.042.001-.067.002-.024.002-.048.002-.071.002h-.109l.007.169c.013-.002.031-.004.053-.006.023-.003.048-.005.074-.008.027-.002.054-.005.082-.008.029-.003.055-.006.081-.009.025-.002.047-.005.066-.007.019-.003.033-.004.041-.004.002-.02.004-.047.007-.079.003-.033.006-.065.008-.097.001-.031.003-.06.005-.087.002-.026.002-.043.001-.051-.001-.009-.004-.017-.007-.024-.004-.006-.007-.012-.01-.016-.002-.002-.005-.005-.006-.007-.002-.003-.005-.005-.007-.006l-.214.025c-.036.004-.072.007-.107.01-.036.003-.063.006-.084.007zm-.299.477s.007.004.021.013.03.019.048.032c.019.013.037.026.054.04.018.014.031.025.04.034.016-.005.036-.012.06-.021s.048-.017.07-.026c.023-.008.043-.015.062-.021.018-.007.029-.01.033-.012.005-.001.013.002.025.01.012.007.023.016.033.026s.018.021.024.031c.006.011.005.018-.001.022-.006.005-.022.01-.047.014-.025.005-.054.009-.085.013-.032.003-.063.007-.095.009-.031.003-.056.005-.075.006-.002.023-.004.051-.006.084-.003.033-.004.065-.006.096-.001.031-.001.057-.001.079.001.021.004.031.009.03.004-.001.012-.005.024-.01.013-.006.028-.012.045-.019s.035-.015.054-.023.036-.016.052-.024c.015-.007.029-.013.04-.018.012-.006.018-.008.019-.008.003-.001.005-.001.008 0 .002.001.005.003.007.006.003.002.004.005.005.007.001.003 0 .005-.003.006-.001 0-.009.006-.022.018-.014.012-.032.027-.052.044-.021.018-.044.037-.068.057-.023.02-.046.039-.068.057-.021.017-.04.033-.055.046-.016.013-.026.022-.03.026-.005.006-.013.007-.024.003-.012-.003-.023-.009-.033-.017-.011-.007-.02-.015-.029-.022-.008-.008-.013-.013-.014-.016 0-.002.001-.008.003-.017.002-.01.004-.022.008-.035.003-.014.006-.029.009-.045s.005-.03.005-.044c0-.009-.001-.023-.001-.043-.001-.019-.002-.042-.003-.068s-.003-.052-.006-.079c-.002-.027-.005-.054-.007-.08-.003-.026-.006-.049-.011-.069-.004-.02-.008-.035-.012-.045-.009-.015-.014-.026-.015-.033s-.001-.011.002-.012c.001-.004.004-.005.009-.002z"/><path d="m7.491 10.577c.001 0 .006.002.014.006.008.005.019.011.031.018.013.008.027.016.042.025s.029.018.041.026c.013.009.023.017.032.025.008.008.013.013.014.017 0 .004-.001.015-.003.035s-.005.044-.009.075c-.003.03-.007.064-.011.101s-.007.074-.009.112c.046-.029.086-.058.118-.089.032-.03.057-.058.076-.085.019-.026.032-.048.039-.067.007-.018.01-.029.009-.033-.002-.005-.003-.01-.004-.015s-.002-.01-.002-.014c0-.005 0-.008 0-.011 0-.002.001-.003.002-.001.001.001.007.004.018.01s.024.012.04.02c.017.007.034.016.052.025.019.01.035.019.051.028.015.009.027.016.036.023.01.007.013.013.011.016-.003.003-.011.01-.026.021-.014.012-.033.025-.055.041-.023.016-.049.033-.079.052s-.061.038-.094.058c-.032.019-.066.038-.1.057s-.066.035-.098.049c-.001.027-.002.052-.002.076s.001.046.003.066.005.037.009.051c.005.014.01.024.016.03.012.013.03.023.055.032.025.008.054.015.086.02.032.006.067.009.103.011.037.001.073.001.109-.001s.07-.006.102-.012c.032-.005.059-.013.08-.023.034-.015.065-.034.092-.056s.05-.043.069-.063c.024-.027.045-.052.062-.076-.006.039-.011.078-.017.115-.005.032-.009.065-.014.099-.004.034-.008.061-.01.083 0 .006-.013.012-.04.016-.026.004-.06.008-.1.01-.04.003-.085.004-.135.005s-.098 0-.145-.002c-.046-.002-.089-.005-.127-.008-.039-.004-.068-.008-.088-.014-.028-.008-.055-.017-.081-.027-.025-.009-.048-.024-.068-.044-.019-.021-.035-.048-.046-.082s-.018-.08-.019-.138c-.001-.003-.002-.007-.002-.011s0-.008 0-.011c-.04.014-.077.025-.111.034s-.064.015-.089.019c-.025.003-.045.006-.059.006-.014.001-.021.001-.021.001-.003-.002-.001-.005.007-.009s.023-.011.045-.02c.023-.01.052-.022.089-.038s.084-.037.139-.063c0-.056.001-.109.001-.161.001-.052.001-.098 0-.14 0-.041-.003-.076-.006-.105-.004-.028-.011-.047-.019-.055-.01-.009-.016-.016-.018-.021s-.002-.009 0-.013c.002-.003.006-.005.014-.006zm.085-.558c.001 0 .009.002.024.007.014.004.031.012.05.023.019.012.037.027.055.045.017.018.03.041.037.069.002.009-.01.03-.036.064.019.016.045.037.077.062.032.026.069.052.11.081.041.028.085.057.132.085s.095.054.143.076c.06.031.116.055.167.074s.096.034.135.044c.045.013.087.024.125.032l-.287.091-.269-.203c-.034-.026-.068-.052-.101-.077s-.064-.048-.092-.069c-.027-.021-.051-.039-.07-.053-.019-.015-.03-.023-.034-.026-.009-.007-.02-.016-.033-.027s-.026-.021-.039-.031l-.005-.006c-.025.03-.055.064-.089.1-.034.037-.07.074-.108.111s-.076.074-.114.109c-.039.036-.075.069-.111.098-.051.045-.099.079-.143.103-.045.023-.083.04-.116.05-.039.014-.074.021-.106.021.039-.028.077-.055.112-.083.035-.027.071-.054.106-.082.029-.022.058-.046.089-.072.03-.025.059-.05.087-.075.027-.025.053-.05.076-.074s.043-.047.058-.068c.031-.042.059-.082.084-.12s.045-.073.061-.105c.017-.031.027-.058.033-.08.005-.022.003-.039-.004-.05-.009-.009-.014-.017-.016-.023s-.002-.011 0-.014.006-.006.012-.007z"/><path d="m9.648 9.972s.004.002.014.006c.009.003.022.008.038.014.015.005.032.012.05.019.017.007.034.014.048.021.015.008.026.015.035.022s.013.013.011.018c-.001.004-.002.016-.003.037-.002.021-.003.047-.005.079s-.004.068-.006.108-.003.08-.005.122c.034-.004.068-.007.1-.01.032-.004.06-.006.085-.009.024-.002.044-.005.059-.007.015-.001.024-.002.025-.002.002 0 .009.002.02.008.01.006.021.012.032.019s.02.014.028.022c.008.007.013.013.013.017 0 .005-.006.008-.017.01-.01.002-.025.004-.043.005s-.04.002-.065.002-.053.001-.083.004c-.018.001-.04.003-.068.005-.027.003-.057.005-.089.008-.002.033-.003.064-.004.095s-.003.06-.004.085c-.001.026-.002.049-.004.068-.001.02-.002.035-.003.045.039-.003.079-.006.121-.009.043-.003.084-.006.125-.009s.08-.006.116-.01c.035-.003.068-.006.097-.008.029-.003.053-.004.071-.006.018-.001.029-.002.033-.002.007 0 .018.004.033.013.014.008.029.017.043.027.015.01.028.02.039.03.012.01.018.018.019.023.001.01-.009.015-.031.015s-.05-.002-.084-.006c-.017-.001-.033-.002-.05-.002-.017-.001-.038-.001-.064 0-.025 0-.056.001-.093.001s-.084 0-.139 0c-.035-.002-.076-.001-.123.001-.047.003-.096.007-.147.012.006.007.013.016.021.027s.016.021.023.031.013.019.018.027c.005.007.007.012.007.015 0 .002-.003.011-.011.025-.007.015-.017.033-.029.054-.012.022-.025.045-.039.07-.014.026-.028.05-.042.073-.015.023-.029.045-.041.063-.013.019-.023.033-.03.042-.004.003-.007.005-.01.009-.002.003-.005.005-.007.008.021-.003.048-.005.08-.008.032-.004.065-.007.099-.01s.068-.006.1-.009c.033-.004.062-.006.085-.009-.008-.033-.017-.063-.026-.09s-.018-.045-.026-.055c-.012-.014-.018-.024-.018-.03-.001-.005.001-.01.004-.012.004-.003.008-.004.013-.003.004.001.006.002.006.003 0 0 .006.003.018.01s.027.016.046.028c.018.011.037.025.057.04.02.016.04.033.058.051.018.019.033.038.045.057.012.02.018.039.018.058 0 .029-.003.055-.008.079-.006.024-.013.044-.021.06s-.018.028-.028.037c-.011.008-.022.012-.032.011-.021-.003-.037-.009-.047-.02s-.016-.02-.017-.029c-.001-.004-.004-.018-.008-.041-.005-.023-.01-.051-.017-.084-.025.004-.057.009-.097.015s-.082.013-.128.019-.093.013-.139.02c-.047.007-.089.013-.127.018s-.069.009-.094.012c-.024.003-.037.005-.038.005-.002 0-.007-.003-.016-.01-.01-.006-.02-.013-.03-.02-.01-.008-.019-.015-.028-.021s-.014-.008-.015-.006c0 .001-.001 0-.003-.003s-.003-.006-.002-.01.003-.008.006-.011c.003-.004.009-.005.018-.004.01.001.028 0 .054-.003.025-.003.054-.007.086-.01.01-.01.024-.023.041-.037.018-.015.036-.031.055-.05s.038-.041.058-.065c.019-.024.037-.049.052-.077.02-.035.035-.064.045-.087s.017-.042.021-.058c.004-.015.005-.028.005-.038 0-.011 0-.021 0-.031l-.001-.024c-.056.005-.11.01-.164.017-.053.006-.102.012-.145.017-.044.005-.08.009-.108.013-.029.004-.044.006-.047.006-.005.001-.012-.003-.022-.011s-.021-.017-.031-.027c-.011-.01-.02-.019-.028-.027-.007-.007-.011-.011-.011-.011 0 .001-.001.001-.002-.001s-.002-.004-.002-.007c0-.002.002-.005.005-.007.003-.003.008-.004.016-.004.007 0 .023-.001.046-.002s.052-.002.086-.004c.034-.001.072-.002.114-.004.041-.002.085-.004.132-.005.015-.001.033-.003.055-.004.021-.001.044-.002.07-.004 0-.015 0-.033.001-.053 0-.021.001-.044.002-.069 0-.024.001-.051.001-.079.001-.028.001-.057.001-.086-.029.003-.057.005-.085.009-.027.003-.052.006-.074.009s-.04.005-.053.007c-.014.001-.021.002-.024.003-.002 0-.007-.003-.015-.009s-.015-.014-.023-.022c-.007-.008-.014-.016-.021-.022-.006-.007-.01-.01-.011-.009 0 .001 0 .001 0 0s.002-.003.005-.005.008-.003.014-.005.015-.003.026-.003c.006 0 .016-.001.032-.002.015-.001.035-.003.058-.005.024-.002.05-.004.08-.007.029-.004.06-.007.091-.011 0-.026 0-.052 0-.078s0-.05-.002-.071c-.001-.048-.004-.089-.009-.124s-.011-.063-.017-.086-.013-.04-.019-.051-.011-.018-.015-.021c-.005-.002-.008-.005-.008-.008s.001-.006.002-.009c.002-.002.005-.006.01-.011zm-.785.616c0 .001.005.004.014.009.01.004.022.01.036.018.015.007.031.016.048.025.017.01.033.02.048.03.015.011.028.022.039.033.01.012.017.023.019.034.002.012.002.029.002.052 0 .022-.001.048-.003.076-.003.028-.006.058-.008.09-.003.031-.006.062-.009.091-.004.029-.007.055-.01.078-.002.023-.004.041-.006.052-.007.035-.013.057-.019.064-.005.008-.007.005-.007-.009 0-.008 0-.016-.001-.026-.001-.009-.002-.021-.004-.037-.002-.015-.004-.033-.006-.054-.003-.022-.007-.049-.012-.082-.002-.021-.007-.045-.014-.071-.007-.025-.014-.052-.022-.08-.007-.028-.016-.055-.025-.082-.01-.027-.018-.052-.027-.075-.008-.022-.015-.042-.021-.058-.007-.017-.011-.028-.014-.034-.005-.009-.007-.017-.008-.023s0-.011.002-.015.004-.006.005-.008c.002-.001.003 0 .003.002zm.322-.437c0 .002.005.005.017.011.011.006.025.013.041.022.017.008.034.018.051.029.018.011.033.022.045.035.012.012.019.026.021.04.003.013-.003.027-.017.039-.013.014-.031.028-.053.042-.021.014-.044.027-.069.041-.026.013-.051.025-.076.037s-.048.023-.069.032c-.021.008-.038.015-.051.02s-.021.008-.022.01c-.001 0-.004 0-.007 0-.004 0-.008-.001-.012-.001-.004-.001-.006-.002-.007-.004-.002-.002 0-.005.003-.008.006-.004.016-.011.031-.019.015-.009.032-.02.05-.033.018-.014.036-.029.055-.045.018-.016.032-.033.042-.049.012-.018.02-.035.026-.052.005-.017.009-.033.011-.048s.002-.029-.001-.041c-.002-.012-.007-.022-.013-.029-.005-.006-.008-.012-.008-.016 0-.005.001-.008.003-.011.002-.002.004-.003.007-.003.002 0 .003 0 .002.001zm.104.868c.001-.001-.002.009-.01.031-.007.022-.017.051-.03.085-.013.035-.027.073-.043.113-.015.04-.031.078-.046.114s-.028.067-.04.092c-.011.025-.019.04-.024.043-.015.014-.026.024-.031.029-.006.005-.014.005-.024 0-.004-.003-.009-.008-.016-.017s-.014-.019-.02-.031c-.006-.011-.011-.022-.014-.033-.003-.01-.004-.019-.003-.027 0-.008.001-.013.004-.016.002-.003.007-.007.015-.012.007-.005.017-.014.028-.025.012-.011.026-.029.044-.053.019-.024.038-.05.058-.078.021-.029.04-.056.058-.083.018-.026.034-.05.046-.072.013-.022.021-.038.023-.049.004-.011.007-.017.009-.019.001-.002.003-.002.005 0s.004.004.006.007.003.004.005.001z"/><path d="m11.298 10.221c.001 0 .016-.001.045-.004s.066-.007.111-.012c.045-.004.094-.009.146-.015.053-.005.104-.011.152-.018.048-.006.089-.012.125-.018.036-.005.059-.011.068-.016.016-.006.029-.011.038-.014.01-.003.018-.005.024-.007.006-.001.011-.001.015 0 .001-.002.008 0 .02.006s.024.015.038.026c.013.01.025.022.036.034.01.012.014.021.01.027-.004.01-.009.029-.014.057-.006.028-.011.063-.014.106 0 .01 0 .035.001.074 0 .04.001.089.002.147.002.058.004.122.006.194.003.071.005.143.008.215.002.073.005.143.007.213.003.069.005.13.007.183s.003.097.003.131v.054c-.002.005-.005.011-.012.018-.006.007-.013.013-.021.018-.009.005-.016.009-.024.011s-.013 0-.017-.005c-.003-.004-.01-.01-.023-.02-.012-.009-.027-.02-.045-.033s-.036-.026-.056-.04c-.019-.014-.037-.026-.054-.037-.016-.012-.03-.022-.042-.03s-.019-.013-.02-.014c0-.001.004-.004.011-.008.008-.003.018-.007.03-.012.013-.004.027-.01.043-.016s.03-.013.043-.02c.014-.007.025-.013.034-.019.01-.005.015-.011.017-.016 0-.003 0-.021 0-.052s-.001-.07-.001-.119c-.001-.048-.002-.103-.002-.164-.001-.061-.002-.123-.003-.186s-.003-.126-.005-.187-.003-.115-.005-.163c-.001-.048-.002-.087-.003-.118-.002-.031-.003-.049-.004-.052-.003-.007-.006-.014-.01-.024-.003-.009-.008-.018-.013-.026-.005-.009-.011-.015-.017-.02s-.013-.007-.021-.006c-.003.001-.02.004-.051.008-.03.003-.067.008-.11.013-.044.005-.09.01-.139.014s-.095.009-.137.013c-.042.005-.078.009-.106.013-.028.003-.044.006-.046.007-.002 0-.006-.002-.013-.007s-.015-.012-.023-.019c-.009-.008-.018-.016-.026-.025s-.015-.016-.022-.023c-.002-.003-.001-.006.004-.008s.012-.003.019-.004c.008 0 .015-.001.023-.002.007 0 .012-.001.013-.003zm-.21.218c0 .002 0 .019-.001.049 0 .03-.001.069-.002.116 0 .047-.002.102-.003.163-.002.061-.004.123-.005.186s-.003.125-.005.187-.003.118-.005.168c-.001.051-.002.092-.004.124s-.004.052-.005.058c-.005.026-.011.045-.018.055s-.011.015-.012.017c-.002 0-.008-.005-.019-.014-.012-.008-.024-.019-.036-.033-.013-.013-.024-.026-.033-.038-.01-.013-.013-.023-.011-.031.003-.005.006-.018.009-.038.003-.021.006-.048.009-.082.004-.033.007-.071.011-.112.004-.042.007-.085.011-.13.004-.044.007-.09.009-.137.001-.046.003-.09.004-.132 0-.063 0-.122-.001-.178 0-.055-.002-.104-.003-.147-.002-.043-.004-.078-.007-.105s-.005-.044-.008-.052c-.002-.006-.002-.011-.001-.014.002-.003.006-.006.01-.007s.008-.002.012-.003c.004 0 .006-.001.006-.001.001.003.007.01.018.023s.022.026.034.041c.012.014.023.028.032.041.009.014.014.022.014.026zm-.064-.356c.001 0 .006.002.015.006s.02.009.032.014c.013.006.026.012.041.017.014.006.028.012.04.018.013.007.024.013.033.018.008.006.013.01.015.012 0 .004-.001.011-.003.021s-.005.022-.009.035c-.003.013-.008.027-.014.041-.005.014-.011.026-.017.038-.005.011-.011.02-.016.026s-.009.008-.013.006c-.004-.003-.009-.01-.014-.021-.006-.011-.013-.025-.021-.041-.008-.015-.016-.032-.024-.05-.007-.017-.015-.034-.023-.05-.009-.016-.016-.029-.022-.041s-.011-.02-.015-.024c-.005-.005-.008-.009-.008-.013s.002-.007.005-.009.007-.003.01-.004c.004 0 .007 0 .008.001z"/></g></svg>