<svg clip-rule="evenodd" fill-rule="evenodd" stroke-linejoin="round" stroke-miterlimit="1.41421" viewBox="0 0 29 9" xmlns="http://www.w3.org/2000/svg"><path d="m28.8.48c0-.265-.215-.48-.48-.48h-27.84c-.265 0-.48.215-.48.48v7.68c0 .265.215.48.48.48h27.84c.265 0 .48-.215.48-.48v-7.68z" fill="#fff"/><path d="m5.17 4.32c0-1.22-.99-2.21-2.21-2.21s-2.211.99-2.211 2.21.991 2.21 2.211 2.21 2.21-.99 2.21-2.21z" fill="#4680f4"/><path d="m2.974 2.11h.014.015.014l.014.001h.014l.028.002.029.001.028.002.028.002.028.003.027.003.028.003.028.004.027.004.028.004.027.005.027.005.027.006.027.005.027.006.026.007.027.006.026.007.027.008.026.007.026.008.026.008.025.009.026.009.025.009.026.009.025.01.025.01.025.01.025.011.024.011.024.011.025.012.024.012.024.012.023.012.024.013.023.012.024.014.023.013.023.014.022.014.023.014.022.015.022.014.022.015.022.016.022.015.021.016.021.016.021.016.021.017.02.017.021.017.02.017.02.017.02.018.019.018.02.018.019.019.018.018.019.019.019.019.018.02.018.019.017.02.018.02.017.02.017.02.017.021.016.021.017.021.016.021.016.021.015.022.015.022.015.022.015.022.015.022.014.023.014.022.014.023.013.023.013.023.013.024.013.023.012.024.012.024.012.024.012.024.011.025.011.024.01.025.011.025.01.025.01.025.009.025.009.026.009.025.008.026.009.026.008.026.007.026.008.026.007.027.006.026.007.027.006.027.005.027.006.027.005.027.004.027.005.028.004.027.003.028.004.027.003.028.002.028.003.028.002.028.001.028.002.029v.014.014l.001.014v.014.015.014.014.015.014l-.001.014v.014.014l-.002.029-.001.028-.002.028-.003.028-.002.028-.003.028-.004.027-.003.028-.004.027-.005.028-.004.027-.005.027-.006.027-.005.027-.006.027-.007.027-.006.026-.007.027-.008.026-.007.026-.008.026-.009.026-.008.026-.009.025-.009.026-.009.025-.01.025-.01.025-.011.025-.01.025-.011.024-.011.025-.012.024-.012.024-.012.024-.012.024-.013.023-.013.024-.013.023-.013.023-.014.023-.014.022-.014.023-.015.022-.015.022-.015.022-.015.022-.015.022-.016.021-.016.021-.017.021-.016.021-.017.021-.017.02-.017.02-.018.02-.017.02-.018.019-.018.02-.019.019-.019.019-.018.018-.019.019-.02.018-.019.018-.02.018-.02.017-.02.017-.021.017-.02.017-.021.017-.021.016-.021.016-.021.016-.022.015-.022.016-.022.015-.022.014-.022.015-.023.014-.022.014-.023.014-.023.013-.024.014-.023.012-.024.013-.023.012-.024.012-.024.012-.025.012-.024.011-.024.011-.025.011-.025.01-.025.01-.025.01-.026.009-.025.009-.026.009-.025.009-.026.008-.026.008-.026.007-.027.008-.026.007-.027.006-.026.007-.027.006-.027.005-.027.006-.027.005-.027.005-.028.004-.027.004-.028.004-.028.003-.027.003-.028.003-.028.002-.028.002-.029.001-.028.002h-.014l-.014.001h-.014-.015-.014-.014-.014-.015-.014-.014l-.014-.001h-.015l-.028-.002-.028-.001-.028-.002-.028-.002-.028-.003-.028-.003-.028-.003-.027-.004-.028-.004-.027-.004-.027-.005-.027-.005-.027-.006-.027-.005-.027-.006-.027-.007-.026-.006-.027-.007-.026-.008-.026-.007-.026-.008-.026-.008-.026-.009-.025-.009-.026-.009-.025-.009-.025-.01-.025-.01-.025-.01-.025-.011-.024-.011-.025-.011-.024-.012-.024-.012-.024-.012-.024-.012-.023-.013-.024-.012-.023-.014-.023-.013-.023-.014-.023-.014-.022-.014-.023-.015-.022-.014-.022-.015-.021-.016-.022-.015-.021-.016-.022-.016-.021-.016-.02-.017-.021-.017-.02-.017-.02-.017-.02-.017-.02-.018-.02-.018-.019-.018-.019-.019-.019-.018-.019-.019-.018-.019-.018-.02-.018-.019-.018-.02-.017-.02-.018-.02-.017-.02-.016-.021-.017-.021-.016-.021-.016-.021-.016-.021-.016-.022-.015-.022-.015-.022-.015-.022-.014-.022-.014-.023-.014-.022-.014-.023-.014-.023-.013-.023-.013-.024-.012-.023-.013-.024-.012-.024-.011-.024-.012-.024-.011-.025-.011-.024-.011-.025-.01-.025-.01-.025-.01-.025-.009-.025-.01-.026-.008-.025-.009-.026-.008-.026-.008-.026-.008-.026-.007-.026-.007-.027-.007-.026-.006-.027-.006-.027-.006-.027-.005-.027-.005-.027-.005-.027-.004-.028-.004-.027-.004-.028-.003-.027-.003-.028-.003-.028-.002-.028-.002-.028-.002-.028-.001-.029v-.014l-.001-.014v-.014-.014l-.001-.015v-.014-.014l.001-.015v-.014-.014l.001-.014v-.014l.001-.029.002-.028.002-.028.002-.028.003-.028.003-.028.003-.027.004-.028.004-.027.004-.028.005-.027.005-.027.005-.027.006-.027.006-.027.006-.027.007-.026.007-.027.007-.026.008-.026.008-.026.008-.026.009-.026.008-.025.01-.026.009-.025.01-.025.01-.025.01-.025.011-.025.011-.024.011-.025.012-.024.011-.024.012-.024.013-.024.012-.023.013-.024.013-.023.014-.023.014-.023.014-.022.014-.023.014-.022.015-.022.015-.022.015-.022.016-.022.016-.021.016-.021.016-.021.017-.021.016-.021.017-.02.018-.02.017-.02.018-.02.018-.019.018-.02.018-.019.019-.019.019-.018.019-.019.019-.018.02-.018.02-.018.02-.017.02-.017.02-.017.021-.017.02-.017.021-.016.022-.016.021-.016.022-.015.021-.016.022-.015.022-.014.023-.015.022-.014.023-.014.023-.014.023-.013.023-.014.024-.012.023-.013.024-.012.024-.012.024-.012.024-.012.025-.011.024-.011.025-.011.025-.01.025-.01.025-.01.025-.009.026-.009.025-.009.026-.009.026-.008.026-.008.026-.007.026-.008.027-.007.026-.006.027-.007.027-.006.027-.005.027-.006.027-.005.027-.005.027-.004.028-.004.027-.004.028-.003.028-.003.028-.003.028-.002.028-.002.028-.001.028-.002h.015l.014-.001h.014.014.015.014zm-.028.04h-.014-.014-.014l-.014.001h-.014l-.028.001-.028.002-.027.002-.028.002-.027.003-.027.003-.028.003-.027.004-.027.004-.026.004-.027.005-.027.004-.026.006-.027.005-.026.006-.026.006-.026.007-.026.007-.026.007-.026.007-.025.008-.026.008-.025.009-.025.008-.025.009-.025.01-.025.009-.024.01-.025.01-.024.011-.024.01-.024.011-.024.012-.023.011-.024.012-.023.012-.023.013-.023.012-.023.013-.023.014-.022.013-.023.014-.022.014-.022.014-.021.014-.022.015-.021.015-.021.016-.021.015-.021.016-.021.016-.02.016-.02.016-.02.017-.02.017-.02.017-.019.018-.019.017-.019.018-.019.018-.019.019-.018.018-.018.019-.018.019-.017.019-.018.019-.017.02-.017.02-.017.02-.016.02-.016.02-.016.021-.016.021-.016.021-.015.021-.015.021-.015.022-.014.022-.014.022-.014.022-.014.022-.014.022-.013.023-.013.023-.012.023-.013.023-.012.023-.012.024-.011.023-.012.024-.011.024-.01.024-.011.025-.01.024-.01.025-.01.024-.009.025-.009.025-.008.025-.009.025-.008.026-.008.025-.007.026-.007.026-.007.026-.007.026-.006.026-.006.026-.005.027-.006.026-.005.027-.004.027-.005.027-.003.027-.004.027-.003.027-.003.027-.003.028-.002.027-.002.028-.002.027-.001.028v.014l-.001.014v.014.014l-.001.014v.014.014l.001.014v.014.014l.001.014v.014l.001.028.002.027.002.028.002.027.003.028.003.027.003.027.004.027.003.027.005.027.004.027.005.027.006.026.005.027.006.026.006.026.007.026.007.026.007.026.007.026.008.025.008.026.009.025.008.025.009.025.009.025.01.024.01.025.01.024.011.025.01.024.011.024.012.024.011.023.012.024.012.023.013.023.012.023.013.023.013.023.014.022.014.022.014.022.014.022.014.022.015.022.015.021.015.021.016.021.016.021.016.021.016.02.016.02.017.02.017.02.017.02.018.019.017.019.018.019.018.019.018.018.019.019.019.018.019.018.019.017.019.018.02.017.02.017.02.017.02.016.02.016.021.016.021.016.021.015.021.016.021.015.022.015.021.014.022.014.022.014.023.014.022.013.023.014.023.013.023.012.023.013.023.012.024.012.023.011.024.012.024.011.024.01.024.011.025.01.024.01.025.009.025.01.025.009.025.008.025.009.026.008.025.008.026.007.026.007.026.007.026.007.026.006.026.006.027.005.026.006.027.004.027.005.026.004.027.004.027.004.028.003.027.003.027.003.028.002.027.002.028.002.028.001h.014l.014.001h.014.014.014.014.014.014.014.014l.014-.001h.014l.027-.001.028-.002.028-.002.027-.002.028-.003.027-.003.027-.003.027-.004.027-.004.027-.004.027-.005.026-.004.027-.006.026-.005.027-.006.026-.006.026-.007.026-.007.026-.007.025-.007.026-.008.025-.008.026-.009.025-.008.025-.009.025-.01.024-.009.025-.01.024-.01.025-.011.024-.01.024-.011.023-.012.024-.011.023-.012.024-.012.023-.013.023-.012.023-.013.022-.014.023-.013.022-.014.022-.014.022-.014.022-.014.021-.015.022-.015.021-.016.021-.015.021-.016.02-.016.021-.016.02-.016.02-.017.02-.017.019-.017.02-.018.019-.017.019-.018.019-.018.018-.019.018-.018.019-.019.017-.019.018-.019.017-.019.018-.02.017-.02.016-.02.017-.02.016-.02.016-.021.016-.021.015-.021.016-.021.015-.021.014-.022.015-.022.014-.022.014-.022.014-.022.013-.022.013-.023.013-.023.013-.023.012-.023.013-.023.011-.024.012-.023.011-.024.011-.024.011-.024.011-.025.01-.024.01-.025.009-.024.009-.025.009-.025.009-.025.008-.025.009-.026.007-.025.008-.026.007-.026.007-.026.006-.026.007-.026.005-.026.006-.027.005-.026.005-.027.005-.027.004-.027.004-.027.004-.027.003-.027.003-.027.003-.028.002-.027.002-.028.001-.027.002-.028v-.014-.014l.001-.014v-.014-.014-.014-.014-.014-.014l-.001-.014v-.014-.014l-.002-.028-.001-.027-.002-.028-.002-.027-.003-.028-.003-.027-.003-.027-.004-.027-.004-.027-.004-.027-.005-.027-.005-.027-.005-.026-.006-.027-.005-.026-.007-.026-.006-.026-.007-.026-.007-.026-.008-.026-.007-.025-.009-.026-.008-.025-.009-.025-.009-.025-.009-.025-.009-.024-.01-.025-.01-.024-.011-.025-.011-.024-.011-.024-.011-.024-.012-.023-.011-.024-.013-.023-.012-.023-.013-.023-.013-.023-.013-.023-.013-.022-.014-.022-.014-.022-.014-.022-.015-.022-.014-.022-.015-.021-.016-.021-.015-.021-.016-.021-.016-.021-.016-.02-.017-.02-.016-.02-.017-.02-.018-.02-.017-.019-.018-.019-.017-.019-.019-.019-.018-.018-.018-.019-.019-.018-.019-.018-.019-.017-.02-.018-.019-.017-.02-.017-.02-.017-.02-.016-.021-.016-.02-.016-.021-.016-.021-.015-.021-.016-.022-.015-.021-.015-.022-.014-.022-.014-.022-.014-.022-.014-.023-.013-.022-.014-.023-.013-.023-.012-.023-.013-.024-.012-.023-.012-.024-.011-.023-.012-.024-.011-.024-.01-.025-.011-.024-.01-.025-.01-.024-.009-.025-.01-.025-.009-.025-.008-.026-.009-.025-.008-.026-.008-.025-.007-.026-.007-.026-.007-.026-.007-.026-.006-.027-.006-.026-.005-.027-.006-.026-.004-.027-.005-.027-.004-.027-.004-.027-.004-.027-.003-.027-.003-.028-.003-.027-.002-.028-.002-.028-.002-.027-.001h-.014l-.014-.001h-.014-.014-.014-.014z" fill="#062773" fill-opacity=".698039"/><path d="m2.523 3.951c-.034-.024-.067-.051-.098-.08-.113-.108-.263-.179-.431-.191-.152-.012-.296.026-.416.1.224-.377.742-.302 1.422-.189.776.129.945-.757.945-.757.022 1.104-.813 1.551-1.422 1.117z" fill="#e5f20d"/><path d="m2.557 4.118c-.026-.033-.05-.068-.071-.104-.079-.136-.203-.246-.361-.305-.142-.053-.291-.058-.427-.021.322-.299.797-.081 1.418.219.709.342 1.119-.46 1.119-.46-.289 1.065-1.216 1.259-1.678.671z" fill="#e5f20d"/><path d="m2.542 4.288c-.015-.039-.028-.079-.038-.12-.038-.152-.126-.292-.26-.394-.122-.091-.263-.137-.405-.141.393-.195.788.148 1.299.61.584.528 1.204-.126 1.204-.126-.577.94-1.522.866-1.8.171z" fill="#e5f20d"/><path d="m2.48 4.448c-.004-.042-.005-.085-.003-.127.007-.156-.037-.316-.138-.451-.091-.122-.214-.206-.349-.249.432-.077.715.363 1.075.951.412.671 1.191.217 1.191.217-.819.74-1.704.403-1.776-.341z" fill="#e5f20d"/><path d="m2.376 4.583c.008-.041.019-.082.033-.122.051-.148.053-.314-.006-.472-.053-.143-.147-.258-.264-.337.436.047.583.55.764 1.215.206.759 1.081.544 1.081.544-.994.479-1.749-.094-1.608-.828z" fill="#e5f20d"/><g fill="#4680f4" fill-rule="nonzero"><path d="m6.278 5.557v-2.483h.583c.166 0 .288.009.366.028.077.019.145.051.204.096.074.058.131.135.171.231.041.097.061.204.061.322 0 .203-.056.358-.17.464-.114.105-.28.158-.499.158h-.053l.948 1.184h-.375l-.905-1.184h-.043v1.184zm.288-2.234v.831h.226c.23 0 .385-.029.463-.089.078-.059.117-.163.117-.311 0-.159-.04-.271-.121-.335-.08-.064-.233-.096-.459-.096z"/><path d="m8.157 5.557v-2.483h1.309v.27h-1.014v.712h1.014v.275h-1.014v.951h1.014v.275z"/><path d="m11.512 4.672.368.395c.106-.084.188-.19.245-.317.057-.128.086-.268.086-.419 0-.102-.012-.199-.036-.291s-.058-.176-.103-.25c-.094-.155-.217-.275-.368-.36-.152-.085-.32-.127-.504-.127-.137 0-.267.026-.391.076-.124.051-.233.124-.328.219s-.168.204-.219.328-.076.254-.076.391c0 .175.035.333.106.473s.177.261.318.363c.08.059.168.103.264.133.097.03.197.045.302.045.093 0 .179-.009.258-.027s.153-.046.22-.085l-.507-.547zm1.046 1.124h-.364l-.331-.355c-.098.058-.206.101-.323.129-.117.029-.244.043-.382.043-.141 0-.274-.021-.401-.062-.128-.041-.245-.102-.352-.183-.174-.127-.306-.281-.396-.46s-.135-.376-.135-.591c0-.173.033-.338.1-.497.067-.158.163-.299.288-.424.127-.122.27-.215.431-.28s.33-.098.507-.098c.176 0 .342.029.497.087.155.057.295.143.42.257.134.121.236.264.306.429.071.164.106.341.106.53 0 .198-.037.38-.113.545-.076.164-.186.304-.331.419z"/><path d="m13.034 3.074h.295v2.483h-.295z"/><path d="m13.95 5.557v-2.581l1.816 1.984v-1.886h.281v2.579l-1.816-1.962v1.866z"/><path d="m18.027 4.275h1.024v.083c0 .391-.111.7-.332.926-.222.226-.524.339-.907.339-.117 0-.228-.013-.334-.037-.105-.025-.203-.061-.292-.109-.204-.112-.361-.266-.472-.464-.11-.197-.166-.421-.166-.672 0-.207.033-.394.099-.561.067-.166.166-.313.3-.44.112-.106.242-.186.39-.24.148-.055.312-.082.491-.082.239 0 .446.043.621.13.175.086.321.217.436.391l-.248.198c-.089-.15-.2-.263-.334-.338-.133-.075-.288-.113-.464-.113-.289 0-.523.097-.702.292-.18.194-.27.449-.27.763 0 .296.091.539.274.729.182.19.415.285.698.285.248 0 .456-.076.621-.226.166-.151.258-.348.276-.59h-.709z"/><path d="m19.426 5.391c0-.056.02-.103.06-.143.039-.039.087-.059.142-.059.057 0 .105.019.145.058s.06.087.06.144c0 .055-.019.102-.059.139-.04.038-.088.057-.146.057-.056 0-.104-.019-.143-.057-.039-.037-.059-.084-.059-.139z"/><path d="m21.674 5.345c.135 0 .265-.026.387-.077.123-.052.233-.127.332-.225.097-.097.171-.208.222-.331s.076-.254.076-.391c0-.14-.026-.272-.077-.397-.051-.126-.125-.237-.221-.333-.098-.097-.207-.171-.33-.222s-.252-.076-.389-.076c-.138 0-.269.025-.392.076s-.232.125-.327.222c-.097.099-.172.21-.222.334-.051.125-.077.256-.077.396 0 .137.025.267.076.39.05.122.124.232.223.332.099.099.21.175.331.225.122.051.251.077.388.077zm1.326-1.024c0 .177-.033.344-.099.501-.065.158-.161.297-.286.419-.126.122-.27.217-.433.283-.164.066-.333.099-.508.099-.176 0-.344-.033-.506-.099-.163-.066-.307-.161-.432-.283-.127-.123-.223-.263-.289-.42s-.099-.324-.099-.5c0-.178.033-.346.099-.503.066-.158.162-.298.289-.422.124-.121.268-.214.431-.279.162-.066.331-.099.507-.099s.346.033.509.099c.164.065.308.158.432.279.125.122.221.262.286.42.066.158.099.326.099.505z"/><path d="m23.504 5.557v-2.483h.583c.166 0 .288.009.366.028.077.019.145.051.204.096.074.058.131.135.171.231.041.097.061.204.061.322 0 .203-.056.358-.17.464-.114.105-.28.158-.499.158h-.053l.948 1.184h-.375l-.905-1.184h-.043v1.184zm.288-2.234v.831h.226c.23 0 .385-.029.463-.089.078-.059.117-.163.117-.311 0-.159-.04-.271-.121-.335-.08-.064-.233-.096-.459-.096z"/><path d="m26.748 4.275h1.025v.083c0 .391-.111.7-.333.926-.221.226-.524.339-.907.339-.116 0-.227-.013-.333-.037-.106-.025-.203-.061-.293-.109-.203-.112-.36-.266-.471-.464-.111-.197-.166-.421-.166-.672 0-.207.033-.394.099-.561.066-.166.166-.313.299-.44.112-.106.242-.186.39-.24.148-.055.312-.082.492-.082.239 0 .445.043.621.13.175.086.32.217.435.391l-.247.198c-.089-.15-.201-.263-.334-.338-.134-.075-.288-.113-.465-.113-.288 0-.522.097-.702.292-.18.194-.27.449-.27.763 0 .296.092.539.274.729.183.19.416.285.698.285.249 0 .456-.076.622-.226.165-.151.257-.348.275-.59h-.709z"/></g></svg>