<?xml version="1.0" encoding="UTF-8" standalone="no"?><!DOCTYPE svg PUBLIC "-//W3C//DTD SVG 1.1//EN" "http://www.w3.org/Graphics/SVG/1.1/DTD/svg11.dtd"><svg width="100%" height="100%" viewBox="0 0 74 54" version="1.1" xmlns="http://www.w3.org/2000/svg" xmlns:xlink="http://www.w3.org/1999/xlink" xml:space="preserve" xmlns:serif="http://www.serif.com/" style="fill-rule:evenodd;clip-rule:evenodd;stroke-linejoin:round;stroke-miterlimit:1.41421;"><g id="Rectangle-19"><path id="path-1" d="M73.5,3c0,-1.656 -1.344,-3 -3,-3l-67.5,0c-1.656,0 -3,1.344 -3,3l0,48c0,1.656 1.344,3 3,3l67.5,0c1.656,0 3,-1.344 3,-3l0,-48Z" style="fill:#fff;"/></g><g transform="matrix(0.46237,0,0,0.46237,0.86641,20.4494)"><text x="29.516px" y="58.427px" style="font-family:'STHeitiSC-Medium', 'Heiti SC';font-size:16px;">超清视频</text><text x="93.516px" y="58.427px" style="font-family:'ArialMT', 'Arial', sans-serif;font-size:16px;">APP</text></g><path d="M42.101,37.431l-11.95,0c-0.381,0 -0.762,0 -1.143,-0.002c-0.321,-0.002 -0.643,-0.006 -0.964,-0.014c-0.702,-0.01 -1.403,-0.072 -2.095,-0.186c-0.695,-0.118 -1.365,-0.339 -1.994,-0.656c-1.261,-0.643 -2.287,-1.669 -2.929,-2.93c-0.317,-0.628 -0.539,-1.301 -0.657,-1.993c-0.113,-0.693 -0.175,-1.393 -0.185,-2.096c-0.008,-0.321 -0.012,-0.642 -0.014,-0.964c-0.002,-0.381 -0.002,-0.762 -0.002,-1.143l0,-11.947c0,-0.383 0,-0.765 0.002,-1.146c0.002,-0.321 0.006,-0.642 0.014,-0.964c0.01,-0.7 0.072,-1.4 0.185,-2.093c0.118,-0.694 0.34,-1.367 0.657,-1.995c0.642,-1.262 1.668,-2.287 2.929,-2.93c0.629,-0.315 1.299,-0.539 1.994,-0.656c0.692,-0.114 1.393,-0.176 2.095,-0.184c0.321,-0.008 0.643,-0.014 0.964,-0.014c0.381,-0.002 0.762,-0.002 1.143,-0.002l11.95,0c0.381,0 0.762,0 1.143,0.002c0.32,0 0.641,0.006 0.962,0.014c0.703,0.008 1.405,0.07 2.097,0.184c0.693,0.117 1.365,0.341 1.992,0.656c1.263,0.643 2.289,1.668 2.931,2.93c0.318,0.628 0.537,1.301 0.657,1.995c0.114,0.693 0.176,1.393 0.184,2.095c0.009,0.322 0.013,0.643 0.013,0.962l0.002,0.483l0,13.085l-0.002,0.668c0,0.322 -0.006,0.643 -0.013,0.964c-0.008,0.703 -0.07,1.403 -0.184,2.096c-0.12,0.692 -0.341,1.365 -0.659,1.993c-0.642,1.261 -1.668,2.287 -2.929,2.93c-0.627,0.317 -1.299,0.538 -1.992,0.656c-0.692,0.114 -1.394,0.176 -2.097,0.186c-0.321,0.008 -0.642,0.012 -0.962,0.014l-1.143,0.002Z" style="fill:#ffd114;"/><g><path d="M39.373,8.252c0.285,-0.038 0.575,-0.042 0.86,-0.078c0.561,0 1.123,-0.006 1.684,0.004c0.168,0.034 0.339,0.02 0.509,0.05c1.06,0.102 2.107,0.355 3.083,0.786c0.571,0.254 1.114,0.573 1.601,0.96c0.297,0.222 0.544,0.497 0.806,0.754c0.788,0.87 1.319,1.966 1.53,3.121c0.058,0.292 0.096,0.585 0.12,0.88c-0.016,0.252 0.054,0.499 0.022,0.751c-0.018,0.133 -0.026,0.269 -0.022,0.407c-0.068,0.926 -0.293,1.85 -0.73,2.672c-0.425,0.828 -1.06,1.548 -1.826,2.077c-0.002,2.834 0,5.668 0,8.501c0.048,0.882 -0.433,1.764 -1.18,2.231c-0.357,0.232 -0.774,0.363 -1.199,0.397c-5.685,0 -11.37,0 -17.058,0c-0.515,-0.038 -1.013,-0.231 -1.419,-0.552c-0.546,-0.431 -0.904,-1.1 -0.957,-1.794c0,-4.023 0,-8.046 0,-12.069c0.037,-0.402 0.169,-0.799 0.409,-1.126c0.107,-0.177 0.269,-0.313 0.415,-0.459c0.487,-0.419 1.105,-0.672 1.74,-0.762c0.471,-0.068 0.944,-0.134 1.417,-0.202c0.223,-0.034 0.455,-0.052 0.662,-0.145c0.308,-0.122 0.561,-0.358 0.731,-0.639c0.163,-0.263 0.289,-0.553 0.471,-0.806c0.157,-0.25 0.421,-0.435 0.714,-0.479c0.333,-0.07 0.676,-0.018 1.014,-0.04c0.032,-0.022 0.04,-0.062 0.056,-0.096c0.213,-0.6 0.54,-1.157 0.933,-1.658c0.549,-0.685 1.252,-1.241 2.026,-1.654c1.107,-0.589 2.347,-0.894 3.588,-1.032m-1.517,1.048c-1.177,0.311 -2.323,0.862 -3.171,1.754c-0.812,0.828 -1.299,1.933 -1.482,3.071c-0.108,0.71 -0.156,1.441 -0.036,2.153c0.084,0.537 0.263,1.058 0.529,1.531c0.556,0.989 1.48,1.722 2.484,2.223c1.171,0.586 2.457,0.896 3.74,1.127c0.077,0.347 0.026,0.722 -0.15,1.032c-0.257,0.465 -0.682,0.81 -1.133,1.075c-0.198,0.098 -0.392,0.224 -0.617,0.248c0.597,0.078 1.201,-0.046 1.756,-0.26c1.038,-0.393 1.902,-1.151 2.542,-2.045c0.304,-0.004 0.607,-0.02 0.908,-0.046c1.148,-0.108 2.293,-0.437 3.253,-1.089c0.87,-0.579 1.551,-1.433 1.932,-2.407c0.407,-1.06 0.505,-2.227 0.349,-3.349c-0.164,-1.217 -0.707,-2.39 -1.577,-3.262c-0.894,-0.902 -2.067,-1.483 -3.288,-1.798c-1.221,-0.324 -2.499,-0.391 -3.758,-0.312c-0.768,0.048 -1.536,0.156 -2.281,0.354m-5.725,8.8c-0.166,0.17 -0.363,0.303 -0.515,0.489c-0.108,0.14 -0.241,0.257 -0.347,0.401c-0.888,1.115 -1.381,2.546 -1.339,3.973c0.02,1 0.303,1.994 0.796,2.864c0.383,0.678 0.898,1.285 1.503,1.776c0.934,0.762 2.095,1.245 3.296,1.359c0.22,0.006 0.436,0.046 0.655,0.034c0.445,-0.024 0.894,-0.062 1.327,-0.172c1.371,-0.323 2.616,-1.136 3.474,-2.249c0.729,-0.94 1.188,-2.093 1.277,-3.283c0.038,-0.271 0.002,-0.548 0.022,-0.822c-0.395,0.437 -0.868,0.798 -1.369,1.106c-0.075,0.036 -0.081,0.125 -0.099,0.197c-0.13,0.663 -0.405,1.293 -0.799,1.844c-0.415,0.595 -0.981,1.078 -1.616,1.427c-1.078,0.583 -2.377,0.722 -3.556,0.409c-0.884,-0.233 -1.692,-0.732 -2.307,-1.407c-0.658,-0.73 -1.089,-1.668 -1.199,-2.648c-0.168,-1.331 0.245,-2.732 1.135,-3.742c0.134,-0.135 0.27,-0.269 0.403,-0.405c0.164,-0.167 0.362,-0.297 0.547,-0.439c-0.273,-0.355 -0.489,-0.754 -0.668,-1.165c-0.222,0.13 -0.419,0.295 -0.621,0.453Z" style="fill:#1c1800;fill-rule:nonzero;"/><path d="M44.765,11.872c0.255,-0.008 0.513,-0.006 0.768,-0.002c-0.024,0.15 -0.042,0.299 -0.036,0.451c0.605,-0.014 1.215,0.028 1.818,-0.046c0,0.227 0.002,0.455 -0.002,0.684c-0.146,-0.008 -0.291,-0.038 -0.437,-0.034c-0.461,-0.002 -0.924,-0.002 -1.385,0c0.002,0.076 0.002,0.152 0.002,0.228c0.537,-0.002 1.074,0.014 1.611,-0.02c-0.002,0.2 0.006,0.401 -0.004,0.601c-0.136,-0.016 -0.274,-0.03 -0.411,-0.03c-0.4,0 -0.799,0 -1.198,0c0.002,0.074 0.002,0.145 0,0.217c0.409,0.004 0.82,0 1.229,0.002c0.246,0.002 0.491,-0.002 0.735,-0.026c0.004,0.228 0,0.457 0.004,0.687c-0.176,-0.004 -0.345,-0.042 -0.521,-0.038c-1.131,0 -2.265,0 -3.398,0.002c-0.184,-0.004 -0.366,0.034 -0.549,0.034c0,-0.072 0,-0.144 -0.006,-0.216c-0.146,0.194 -0.276,0.397 -0.419,0.593c-0.365,-0.331 -0.753,-0.637 -1.178,-0.89c0.14,-0.188 0.284,-0.371 0.429,-0.553c0.413,0.234 0.801,0.509 1.17,0.806c0.006,-0.145 0.002,-0.291 0.004,-0.437c0.305,0.048 0.614,0.038 0.922,0.038c0.295,0 0.59,0 0.886,-0.002c0,-0.072 0,-0.143 0,-0.217c-0.379,0 -0.757,0 -1.136,0c-0.137,0 -0.275,0.014 -0.413,0.032c-0.004,-0.2 -0.002,-0.401 0,-0.601c0.515,0.026 1.032,0.02 1.549,0.018c0,-0.076 0,-0.152 0,-0.228c-0.421,-0.002 -0.84,-0.002 -1.261,0c-0.134,-0.002 -0.266,0.024 -0.4,0.034c-0.002,-0.057 -0.004,-0.117 -0.008,-0.175c-0.149,0.171 -0.279,0.359 -0.429,0.531c-0.325,-0.34 -0.702,-0.621 -1.091,-0.88c0.154,-0.176 0.305,-0.356 0.461,-0.529c0.377,0.229 0.73,0.495 1.063,0.784c0.004,-0.136 0.002,-0.271 0.002,-0.407c0.551,0.048 1.104,0.032 1.657,0.038c0.02,-0.152 -0.01,-0.301 -0.028,-0.449Z" style="fill:#1c1800;fill-rule:nonzero;"/><path d="M36.092,11.922c0.256,-0.002 0.509,-0.002 0.765,0c-0.032,0.249 -0.036,0.505 -0.034,0.756c0.267,0.002 0.536,0.012 0.802,-0.03c0,0.24 0.004,0.479 -0.002,0.716c-0.266,-0.039 -0.533,-0.037 -0.798,-0.033c0,0.205 -0.002,0.413 0,0.618c0.305,0 0.61,0.008 0.912,-0.034c0.006,0.028 0.018,0.082 0.021,0.11c0.477,-0.19 0.783,-0.684 0.795,-1.189c-0.254,-0.006 -0.509,0.004 -0.761,0.034c0,-0.234 -0.002,-0.467 0.002,-0.701c0.16,0.002 0.316,0.038 0.475,0.034c0.677,0.002 1.351,0.002 2.028,0c0.138,0.004 0.275,-0.02 0.413,-0.034c-0.036,0.537 -0.046,1.076 -0.11,1.611c-0.028,0.181 -0.062,0.369 -0.171,0.522c-0.094,0.14 -0.262,0.208 -0.424,0.236c-0.255,0.034 -0.512,0.026 -0.77,0.014c-0.014,-0.238 -0.064,-0.471 -0.159,-0.691c0.155,0.024 0.313,0.03 0.47,0.046c0.088,0.006 0.182,0.002 0.26,-0.038c0.064,-0.038 0.084,-0.113 0.102,-0.179c0.06,-0.28 0.064,-0.569 0.074,-0.854c-0.24,0 -0.481,0 -0.721,0c-0.068,0.489 -0.207,0.997 -0.561,1.361c-0.181,0.181 -0.389,0.341 -0.618,0.461c-0.094,-0.168 -0.184,-0.346 -0.329,-0.475c-0.006,0.151 0,0.303 -0.004,0.455c-0.284,-0.054 -0.575,-0.044 -0.863,-0.042l0,0.726c0.278,0 0.557,0.012 0.833,-0.036c0,0.234 0.002,0.467 -0.002,0.701c-0.276,-0.044 -0.553,-0.04 -0.831,-0.038c0,0.335 0.002,0.668 -0.002,1.001c0.461,0.186 0.962,0.178 1.449,0.204c0.499,0.008 0.998,0.008 1.495,-0.022c0.399,0.008 0.794,-0.054 1.191,-0.068c-0.098,0.242 -0.183,0.491 -0.201,0.753c-0.433,0.006 -0.868,0.006 -1.301,0.014c-0.25,0 -0.499,0.019 -0.749,0.007c-0.588,-0.023 -1.185,-0.013 -1.76,-0.159c-0.367,-0.078 -0.704,-0.266 -0.978,-0.521c-0.111,-0.108 -0.201,-0.235 -0.303,-0.353c-0.09,0.387 -0.217,0.766 -0.399,1.119c-0.17,-0.177 -0.359,-0.335 -0.565,-0.473c0.274,-0.459 0.391,-0.991 0.459,-1.518c0.044,-0.337 0.062,-0.681 0.028,-1.02c0.222,0.014 0.441,0.062 0.663,0.074c0.006,0.349 -0.03,0.7 -0.05,1.05c0.09,0.169 0.207,0.325 0.349,0.455c0.006,-0.633 0.002,-1.264 0.002,-1.896c-0.415,0.002 -0.83,-0.016 -1.239,0.038c-0.016,-0.24 -0.004,-0.479 -0.008,-0.719c0.387,0.048 0.774,0.032 1.163,0.034c0,-0.205 0,-0.413 0,-0.618c-0.333,-0.002 -0.666,-0.01 -0.998,0.033c0.004,-0.239 -0.01,-0.476 0.008,-0.714c0.328,0.046 0.661,0.028 0.99,0.028c0.004,-0.251 0,-0.505 -0.038,-0.756Z" style="fill:#1c1800;fill-rule:nonzero;"/><path d="M37.91,14.696c0.669,0.051 1.341,0.015 2.012,0.027c0.243,0.01 0.485,-0.025 0.728,-0.031c-0.042,0.49 -0.016,0.981 -0.022,1.474c-0.006,0.212 0.004,0.425 0.022,0.637c-0.419,-0.026 -0.838,-0.014 -1.257,-0.016c-0.499,0.002 -0.996,-0.012 -1.495,0.016c0.05,-0.335 0.026,-0.675 0.032,-1.012c-0.006,-0.365 0.014,-0.73 -0.02,-1.095m0.703,0.602c-0.002,0.288 -0.004,0.573 0,0.858c0.437,-0.002 0.874,-0.002 1.311,0c0.002,-0.285 0.002,-0.57 0,-0.858c-0.437,0 -0.874,0 -1.311,0Z" style="fill:#1c1800;fill-rule:nonzero;"/><path d="M43.42,14.729c0.996,0.032 1.991,0.008 2.987,0.02c0.178,0.004 0.355,-0.024 0.533,-0.022c-0.036,0.334 -0.022,0.669 -0.024,1.002c-0.002,0.509 0.004,1.018 -0.002,1.529c0.002,0.175 -0.038,0.365 -0.17,0.493c-0.171,0.141 -0.409,0.131 -0.618,0.133c-0.242,-0.004 -0.487,0.01 -0.729,-0.026c-0.03,-0.217 -0.109,-0.421 -0.191,-0.622c0.305,0.03 0.61,0.07 0.916,0.048c0.056,-0.01 0.09,-0.07 0.088,-0.122c0.004,-0.084 0.002,-0.168 0.002,-0.251c-0.695,-0.002 -1.389,0 -2.082,0c0.002,0.337 -0.014,0.674 0.036,1.009c-0.253,0.012 -0.507,0.002 -0.758,0.004c0.052,-0.614 0.03,-1.235 0.034,-1.852c-0.004,-0.447 0.016,-0.896 -0.022,-1.343m0.71,0.597l0,0.242c0.695,0.002 1.387,0 2.082,0.002c0,-0.082 0,-0.164 0,-0.244c-0.695,-0.002 -1.389,-0.002 -2.082,0m-0.002,0.778c0.002,0.086 0.002,0.172 0.002,0.258c0.695,-0.002 1.387,0 2.082,-0.002c0,-0.086 0,-0.172 0.002,-0.256c-0.697,0 -1.389,-0.002 -2.086,0Z" style="fill:#1c1800;fill-rule:nonzero;"/><path d="M42.352,15.356c0.202,0.142 0.405,0.285 0.607,0.431c-0.246,0.726 -0.553,1.433 -0.91,2.111c-0.218,-0.179 -0.427,-0.365 -0.641,-0.55c0.457,-0.585 0.697,-1.301 0.944,-1.992Z" style="fill:#1c1800;fill-rule:nonzero;"/></g><g><path d="M37.856,9.3c0.745,-0.198 1.513,-0.306 2.281,-0.354c1.259,-0.079 2.537,-0.012 3.758,0.312c1.221,0.315 2.394,0.896 3.288,1.798c0.87,0.872 1.413,2.045 1.577,3.262c0.156,1.122 0.058,2.289 -0.349,3.349c-0.381,0.974 -1.062,1.828 -1.932,2.407c-0.96,0.652 -2.105,0.981 -3.253,1.089c-0.301,0.026 -0.604,0.042 -0.908,0.046c-0.64,0.894 -1.504,1.652 -2.542,2.045c-0.555,0.214 -1.159,0.338 -1.756,0.26c0.225,-0.024 0.419,-0.15 0.617,-0.248c0.451,-0.265 0.876,-0.61 1.133,-1.075c0.176,-0.31 0.227,-0.685 0.15,-1.032c-1.283,-0.231 -2.569,-0.541 -3.74,-1.127c-1.004,-0.501 -1.928,-1.234 -2.484,-2.223c-0.266,-0.473 -0.445,-0.994 -0.529,-1.531c-0.12,-0.712 -0.072,-1.443 0.036,-2.153c0.183,-1.138 0.67,-2.243 1.482,-3.071c0.848,-0.892 1.994,-1.443 3.171,-1.754m6.909,2.572c0.018,0.148 0.048,0.297 0.028,0.449c-0.553,-0.006 -1.106,0.012 -1.657,-0.038c0,0.136 0.002,0.271 -0.002,0.407c-0.333,-0.289 -0.686,-0.555 -1.063,-0.784c-0.156,0.173 -0.307,0.353 -0.461,0.529c0.389,0.259 0.766,0.54 1.091,0.88c0.15,-0.172 0.28,-0.36 0.429,-0.531c0.004,0.058 0.006,0.118 0.008,0.175c0.134,-0.01 0.266,-0.036 0.4,-0.034c0.421,-0.002 0.84,-0.002 1.261,0l0,0.228c-0.517,0.002 -1.034,0.008 -1.549,-0.018c-0.002,0.2 -0.004,0.401 0,0.601c0.138,-0.018 0.276,-0.032 0.413,-0.032l1.136,0l0,0.217c-0.296,0.002 -0.591,0.002 -0.886,0.002c-0.308,0 -0.617,0.01 -0.922,-0.038c-0.002,0.146 0.002,0.292 -0.004,0.437c-0.369,-0.297 -0.757,-0.572 -1.17,-0.806c-0.145,0.182 -0.289,0.365 -0.429,0.553c0.425,0.253 0.813,0.559 1.178,0.89c0.143,-0.196 0.273,-0.399 0.419,-0.593c0.006,0.072 0.006,0.144 0.006,0.216c0.183,0 0.365,-0.038 0.549,-0.034c1.133,-0.002 2.267,0 3.4,-0.002c0.174,-0.004 0.343,0.034 0.519,0.038c-0.004,-0.23 0,-0.459 -0.004,-0.687c-0.244,0.024 -0.489,0.028 -0.735,0.026c-0.409,-0.002 -0.82,0.002 -1.229,-0.002c0.002,-0.072 0.002,-0.143 0,-0.217l1.198,0c0.137,0 0.275,0.014 0.411,0.03c0.01,-0.2 0.002,-0.401 0.004,-0.601c-0.537,0.034 -1.074,0.018 -1.611,0.02c0,-0.076 0,-0.152 -0.002,-0.228c0.461,-0.002 0.924,-0.002 1.385,0c0.146,-0.004 0.291,0.026 0.437,0.034c0.004,-0.229 0.002,-0.457 0.002,-0.684c-0.603,0.074 -1.213,0.032 -1.818,0.046c-0.006,-0.152 0.012,-0.301 0.036,-0.451c-0.255,-0.004 -0.513,-0.006 -0.768,0.002m-8.673,0.05c0.038,0.251 0.042,0.505 0.038,0.756c-0.329,0 -0.662,0.018 -0.99,-0.028c-0.018,0.238 -0.004,0.475 -0.008,0.714c0.332,-0.043 0.665,-0.035 0.998,-0.033l0,0.618c-0.389,-0.002 -0.776,0.014 -1.163,-0.034c0.004,0.24 -0.008,0.479 0.008,0.719c0.411,-0.054 0.824,-0.036 1.239,-0.038c0,0.632 0.004,1.263 -0.002,1.896c-0.142,-0.13 -0.259,-0.286 -0.347,-0.455c0.02,-0.35 0.054,-0.701 0.048,-1.05c-0.222,-0.012 -0.441,-0.06 -0.663,-0.074c0.034,0.339 0.016,0.683 -0.028,1.02c-0.068,0.527 -0.185,1.059 -0.459,1.518c0.206,0.138 0.395,0.296 0.565,0.473c0.182,-0.353 0.309,-0.732 0.399,-1.119c0.102,0.118 0.192,0.245 0.303,0.353c0.274,0.255 0.613,0.443 0.978,0.521c0.575,0.146 1.172,0.136 1.76,0.159c0.25,0.012 0.499,-0.007 0.749,-0.007c0.433,-0.008 0.868,-0.008 1.301,-0.014c0.018,-0.262 0.103,-0.511 0.201,-0.753c-0.397,0.014 -0.792,0.076 -1.191,0.068c-0.497,0.03 -0.996,0.03 -1.495,0.022c-0.487,-0.026 -0.988,-0.018 -1.449,-0.204c0.004,-0.333 0.002,-0.666 0.002,-1.001c0.278,-0.002 0.555,-0.006 0.831,0.038c0.004,-0.234 0.002,-0.467 0.002,-0.701c-0.276,0.048 -0.555,0.036 -0.833,0.036c0,-0.241 0,-0.485 0,-0.726c0.288,-0.002 0.579,-0.012 0.863,0.042c0.004,-0.152 -0.002,-0.304 0.004,-0.455c0.145,0.129 0.235,0.307 0.329,0.475c0.229,-0.12 0.437,-0.28 0.618,-0.461c0.354,-0.364 0.493,-0.872 0.561,-1.361l0.721,0c-0.01,0.285 -0.014,0.574 -0.074,0.854c-0.018,0.066 -0.038,0.141 -0.102,0.177c-0.078,0.042 -0.172,0.046 -0.26,0.04c-0.157,-0.016 -0.315,-0.022 -0.47,-0.046c0.095,0.22 0.145,0.453 0.159,0.691c0.258,0.012 0.515,0.02 0.77,-0.014c0.162,-0.028 0.33,-0.096 0.424,-0.236c0.109,-0.153 0.143,-0.341 0.171,-0.522c0.064,-0.535 0.074,-1.074 0.11,-1.611c-0.138,0.012 -0.275,0.038 -0.413,0.034c-0.677,0.002 -1.351,0.002 -2.028,0c-0.159,0.004 -0.315,-0.032 -0.475,-0.034c-0.004,0.234 -0.002,0.467 -0.002,0.701c0.252,-0.03 0.507,-0.04 0.761,-0.034c-0.012,0.505 -0.318,0.999 -0.793,1.189c-0.005,-0.028 -0.017,-0.082 -0.023,-0.11c-0.302,0.042 -0.607,0.034 -0.912,0.034c-0.002,-0.205 0,-0.413 0,-0.618c0.265,-0.004 0.532,-0.006 0.798,0.033c0.006,-0.237 0.002,-0.476 0.002,-0.716c-0.266,0.042 -0.535,0.032 -0.802,0.03c-0.002,-0.251 0.002,-0.507 0.034,-0.756c-0.256,-0.002 -0.509,-0.002 -0.765,0m1.818,2.774c0.034,0.365 0.014,0.73 0.02,1.095c-0.006,0.337 0.018,0.677 -0.032,1.012c0.499,-0.028 0.996,-0.014 1.495,-0.016c0.419,0.002 0.838,-0.01 1.257,0.016c-0.018,-0.212 -0.028,-0.425 -0.022,-0.637c0.006,-0.493 -0.02,-0.984 0.022,-1.474c-0.243,0.006 -0.485,0.041 -0.728,0.031c-0.671,-0.012 -1.343,0.024 -2.012,-0.027m5.51,0.033c0.038,0.447 0.018,0.896 0.022,1.343c-0.004,0.617 0.018,1.238 -0.034,1.852c0.251,-0.002 0.505,0.008 0.758,-0.004c-0.05,-0.335 -0.034,-0.672 -0.036,-1.009c0.693,0 1.387,-0.002 2.082,0c0,0.083 0.002,0.167 -0.002,0.251c0.002,0.052 -0.032,0.112 -0.088,0.122c-0.306,0.022 -0.611,-0.018 -0.916,-0.048c0.082,0.201 0.161,0.405 0.191,0.622c0.242,0.036 0.487,0.022 0.729,0.026c0.209,-0.002 0.447,0.008 0.618,-0.133c0.132,-0.128 0.172,-0.318 0.17,-0.493c0.006,-0.511 0,-1.02 0.002,-1.529c0.004,-0.335 -0.012,-0.668 0.024,-1.002c-0.178,-0.002 -0.355,0.026 -0.533,0.022c-0.996,-0.012 -1.991,0.012 -2.987,-0.02m-1.068,0.625c-0.247,0.693 -0.487,1.409 -0.944,1.994c0.214,0.185 0.423,0.371 0.641,0.55c0.357,-0.678 0.664,-1.385 0.91,-2.111c-0.202,-0.146 -0.405,-0.289 -0.607,-0.433Z" style="fill:#fff;fill-rule:nonzero;"/><path d="M38.613,15.298l1.311,0c0.002,0.288 0.002,0.573 0,0.858c-0.437,-0.002 -0.874,-0.002 -1.311,0c-0.004,-0.285 -0.002,-0.57 0,-0.858Z" style="fill:#fff;fill-rule:nonzero;"/><path d="M44.13,15.326c0.693,-0.002 1.387,-0.002 2.082,0c-0.002,0.08 0,0.162 0,0.244c-0.695,-0.002 -1.387,0 -2.082,-0.002c0,-0.08 0,-0.162 0,-0.242Z" style="fill:#fff;fill-rule:nonzero;"/><path d="M44.128,16.104c0.695,-0.002 1.389,0 2.086,0c-0.004,0.084 -0.004,0.17 -0.002,0.256c-0.695,0.002 -1.389,0 -2.082,0.002c0,-0.086 0,-0.172 -0.002,-0.258Z" style="fill:#fff;fill-rule:nonzero;"/></g></svg>