<svg height="395" viewBox="0 0 92 395" width="92" xmlns="http://www.w3.org/2000/svg"><g fill="none" fill-rule="evenodd"><path d="m86.904 48.034h-82.526a4.374 4.374 0 0 1 -4.378-4.374v-39.27a4.374 4.374 0 0 1 4.378-4.373h82.526c2.42 0 4.38 1.957 4.38 4.372v39.271a4.375 4.375 0 0 1 -4.38 4.373" fill="#38d2de"/><path d="m3.353 45.885v-39.273c0-2.415 1.968-4.373 4.397-4.373h82.873c.165 0 .322.031.48.048a4.376 4.376 0 0 0 -3.832-2.27h-82.875c-2.426 0-4.395 1.957-4.395 4.373v39.27c0 2.25 1.716 4.083 3.915 4.324a4.317 4.317 0 0 1 -.563-2.1" fill="#414042" opacity=".3"/><path d="m44.467 32.917h-4.739v-2.173h7.655a2.582 2.582 0 0 0 0-5.162h-3.532a4.759 4.759 0 0 1 -4.751-4.752 4.759 4.759 0 0 1 4.751-4.753h.616v-3.062h2.3v3.062h4.491v2.172h-7.407a2.582 2.582 0 0 0 0 5.162h3.532a4.758 4.758 0 0 1 4.75 4.753 4.757 4.757 0 0 1 -4.75 4.754h-.616v3.062h-2.3v-3.062z" fill="#fff"/><path d="m45.233 9.09c-8.508 0-15.43 6.911-15.43 15.407 0 8.494 6.922 15.405 15.43 15.405 8.509 0 15.43-6.911 15.43-15.405 0-8.496-6.921-15.407-15.43-15.407m0 33.013c-9.722 0-17.633-7.898-17.633-17.606s7.91-17.607 17.633-17.607 17.634 7.899 17.634 17.607-7.91 17.606-17.634 17.606m-45.233-26.793v-2.23c7.224 0 13.1-5.867 13.1-13.08h2.233c0 8.441-6.878 15.31-15.333 15.31zm91.233 0c-8.453 0-15.333-6.869-15.333-15.31h2.233c0 7.213 5.877 13.08 13.1 13.08zm-75.9 32.917h-2.233c0-7.213-5.876-13.081-13.1-13.081v-2.23c8.455 0 15.333 6.87 15.333 15.31zm62.8 0h-2.233c0-8.442 6.878-15.31 15.333-15.31v2.229c-7.223 0-13.1 5.868-13.1 13.08zm-59.733-22.965v-2.297h5.367v2.297zm48.3 0v-2.297h5.367v2.297zm-66.7 33.682v-2.297h91.233v2.297zm0 9.186v-2.297h91.233v2.297zm0 9.186v-2.297h91.233v2.297zm0 8.42v-2.296h91.233v2.296zm0 9.186v-2.296h91.233v2.296zm0 8.421v-2.296h91.233v2.296zm0 9.186v-2.296h91.233v2.296zm0 8.42v-2.296h91.233v2.297h-91.233zm0 9.187v-2.297h91.233v2.297zm0 8.42v-2.296h91.233v2.296zm0 9.186v-2.296h91.233v2.296zm0 8.42v-2.296h91.233v2.297h-91.233zm0 9.187v-2.297h91.233v2.297zm0 9.186v-2.297h91.233v2.297zm0 8.42v-2.296h91.233v2.296zm0 9.186v-2.296h91.233v2.296zm0 8.421v-2.296h91.233v2.296zm0 9.186v-2.296h91.233v2.296zm0 8.42v-2.296h91.233v2.297h-91.233zm0 9.187v-2.297h91.233v2.297zm0 8.42v-2.296h91.233v2.296zm0 9.186v-2.296h91.233v2.296zm0 8.42v-2.296h91.233v2.297h-91.233zm0 9.187v-2.297h91.233v2.297zm0 8.42v-2.296h91.233v2.296zm0 9.186v-2.296h91.233v2.296zm0 9.186v-2.296h91.233v2.296zm0 8.421v-2.297h91.233v2.297zm0 9.186v-2.296h91.233v2.296zm0 8.42v-2.296h91.233v2.297h-91.233zm0 9.187v-2.297h91.233v2.297zm0 8.42v-2.296h91.233v2.296zm0 9.186v-2.296h91.233v2.296zm0 8.42v-2.296h91.233v2.297h-91.233zm0 9.187v-2.297h91.233v2.297zm0 8.42v-2.296h91.233v2.296zm0 9.186v-2.296h91.233v2.296zm0 9.186v-2.296h91.233v2.296zm0 8.421v-2.297h91.233v2.297z" fill="#333"/></g></svg>