<svg clip-rule="evenodd" fill-rule="evenodd" stroke-linejoin="round" stroke-miterlimit="1.41421" viewBox="0 0 48 325" xmlns="http://www.w3.org/2000/svg" xmlns:xlink="http://www.w3.org/1999/xlink"><clipPath id="a"><path clip-rule="evenodd" d="m0 52.419h46.655v272.339h-46.655z"/></clipPath><path d="m47.452 23.035c0 12.553-10.022 22.729-22.383 22.729s-22.382-10.176-22.382-22.729 10.02-22.728 22.382-22.728c12.361 0 22.383 10.175 22.383 22.728" fill="#efcc8d"/><path d="m24.835 0c-6.954 0-13.17 3.198-17.31 8.22 3.92-3.332 8.965-5.343 14.477-5.343 12.466 0 22.573 10.262 22.573 22.921 0 5.598-1.98 10.722-5.263 14.701 5.148-4.382 8.112-10.817 8.096-17.577-.001-12.66-10.108-22.922-22.574-22.922" fill="#fff" fill-opacity=".5"/><g clip-path="url(#a)"><path d="m24.832 33.575c-5.06-.5-9.03-4.914-9.03-10.268 0-5.355 3.97-9.77 9.03-10.27v-3.867h1.505v3.836c4.166.24 7.832 3.196 9.03 7.354l-1.778.546c-.965-3.352-3.9-5.746-7.252-5.982v16.765c3.332-.227 6.187-2.515 7.209-5.836l1.767.58c-1.267 4.12-4.832 6.945-8.976 7.174v3.836h-1.505zm0-18.612c-4.035.491-7.176 4.045-7.176 8.344 0 4.297 3.141 7.851 7.177 8.343v-16.687zm-16.555 8.725v-1.528h5.268v1.528zm28.596 0v-1.528h5.267v1.528zm-34.616 35.915v-2.293h42.14v2.293h-42.139-.001zm2.258 8.405v-2.292h42.14v2.292zm0 8.406v-2.294h42.14v2.293h-42.14zm-1.505 9.17v-2.294h42.14v2.292h-42.14zm-.752 8.405v-2.293h42.14v2.293h-42.14zm0 10.698v-2.293h42.14v2.293h-42.14zm2.257 8.405v-2.292h42.14v2.292zm-1.505 9.17v-2.293h42.14v2.293zm-.752 8.405v-2.292h42.14v2.292h-42.14zm2.257 9.17v-2.292h42.14v2.292zm-2.257 8.405v-2.292h42.14v2.292h-42.14zm-1.506 9.17v-2.292h42.14v2.292h-42.14zm1.505 8.406v-2.293h42.14v2.293h-42.139-.001zm2.258 9.17v-2.293h42.14v2.292h-42.14zm0 8.405v-2.293h42.14v2.293zm-2.257 9.17v-2.293h42.14v2.292h-42.14v.001zm-1.506 7.64v-2.292h42.14v2.293h-42.14v-.001zm2.258 9.17v-2.292h42.14v2.292zm-.752 8.406v-2.293h42.14v2.293h-42.14zm2.257 8.405v-2.292h42.14v2.292zm-2.257 9.17v-2.292h42.14v2.292h-42.14zm-1.506 8.405v-2.292h42.14v2.292h-42.14zm0 9.17v-2.292h42.14v2.292h-42.14zm1.505 8.406v-2.293h42.14v2.293h-42.139-.001zm.753 9.17v-2.293h42.14v2.292h-42.14zm-.752 8.405v-2.293h42.14v2.293h-42.14zm2.257 9.17v-2.293h42.14v2.292h-42.14zm-2.257 8.405v-2.293h42.14v2.293h-42.14zm.752 10.698v-2.293h42.14v2.293zm-3.01 8.405v-2.292h42.14v2.292h-42.14zm3.01 9.17v-2.293h42.14v2.293z" fill="#333"/></g><path d="m39.514 20.337c0-.001 0-.001 0-.001 0-4.624-3.805-8.428-8.428-8.428-.001 0-.002 0-.003 0-2.358 0-4.482.969-6.013 2.534-1.579-1.621-3.75-2.536-6.014-2.534-.001 0-.002 0-.003 0-4.623 0-8.428 3.804-8.428 8.428v.002c0 2.268.901 4.323 2.361 5.838l12.049 11.987 12.356-12.247c.133-.156.483-.597.483-.597 1.064-1.443 1.639-3.189 1.64-4.981" fill="#fa1c1c"/></svg>