<?xml version="1.0" encoding="UTF-8" standalone="no"?>
<!DOCTYPE svg PUBLIC "-//W3C//DTD SVG 1.1//EN" "http://www.w3.org/Graphics/SVG/1.1/DTD/svg11.dtd">
<svg width="100%" height="100%" viewBox="0 0 30 30" version="1.1" xmlns="http://www.w3.org/2000/svg" xmlns:xlink="http://www.w3.org/1999/xlink" xml:space="preserve" xmlns:serif="http://www.serif.com/" style="fill-rule:evenodd;clip-rule:evenodd;stroke-linejoin:round;stroke-miterlimit:1.41421;">
    <path d="M14.999,6.817C10.366,6.817 6.61,10.573 6.61,15.208C6.61,18.914 9.013,22.059 12.348,23.169C12.768,23.245 12.921,22.986 12.921,22.764C12.921,22.564 12.914,22.037 12.91,21.337C10.576,21.844 10.083,20.211 10.083,20.211C9.702,19.243 9.151,18.986 9.151,18.986C8.389,18.465 9.209,18.474 9.209,18.474C10.051,18.535 10.494,19.34 10.494,19.34C11.243,20.621 12.457,20.251 12.936,20.037C13.013,19.494 13.228,19.124 13.469,18.915C11.605,18.704 9.647,17.984 9.647,14.769C9.647,13.852 9.974,13.103 10.51,12.517C10.423,12.305 10.136,11.451 10.592,10.297C10.592,10.297 11.298,10.072 12.9,11.157C13.569,10.97 14.287,10.878 15,10.874C15.712,10.878 16.431,10.97 17.1,11.157C18.702,10.072 19.406,10.297 19.406,10.297C19.864,11.451 19.575,12.305 19.489,12.517C20.026,13.103 20.352,13.852 20.352,14.769C20.352,17.992 18.389,18.701 16.52,18.909C16.822,19.167 17.09,19.68 17.09,20.463C17.09,21.583 17.079,22.489 17.079,22.764C17.079,22.988 17.231,23.249 17.657,23.168C20.988,22.056 23.39,18.913 23.39,15.208C23.39,10.573 19.633,6.817 14.999,6.817" style="fill:white;"/>
</svg>
