<?xml version="1.0" encoding="UTF-8" standalone="no"?>
<!DOCTYPE svg PUBLIC "-//W3C//DTD SVG 1.1//EN" "http://www.w3.org/Graphics/SVG/1.1/DTD/svg11.dtd">
<svg width="100%" height="100%" viewBox="0 0 30 30" version="1.1" xmlns="http://www.w3.org/2000/svg" xmlns:xlink="http://www.w3.org/1999/xlink" xml:space="preserve" xmlns:serif="http://www.serif.com/" style="fill-rule:evenodd;clip-rule:evenodd;stroke-linejoin:round;stroke-miterlimit:1.41421;">
    <g transform="matrix(1.37438,0,0,1.37438,-6.30285,-6.92682)">
        <path d="M15.5,10C13.883,10 13.68,10.007 13.045,10.036C12.411,10.065 11.979,10.165 11.6,10.313C11.208,10.465 10.876,10.668 10.545,10.999C10.214,11.33 10.011,11.662 9.859,12.054C9.711,12.433 9.611,12.865 9.582,13.499C9.553,14.134 9.546,14.337 9.546,15.954C9.546,17.571 9.553,17.774 9.582,18.409C9.611,19.043 9.711,19.475 9.859,19.854C10.011,20.246 10.214,20.578 10.545,20.909C10.876,21.24 11.208,21.443 11.6,21.595C11.979,21.743 12.411,21.843 13.045,21.872C13.68,21.901 13.883,21.908 15.5,21.908C17.117,21.908 17.32,21.901 17.955,21.872C18.589,21.843 19.021,21.743 19.4,21.595C19.792,21.443 20.124,21.24 20.455,20.909C20.786,20.578 20.989,20.246 21.141,19.854C21.289,19.475 21.389,19.043 21.418,18.409C21.447,17.774 21.454,17.571 21.454,15.954C21.454,14.337 21.447,14.134 21.418,13.499C21.389,12.865 21.289,12.433 21.141,12.054C20.989,11.662 20.786,11.33 20.455,10.999C20.124,10.668 19.792,10.465 19.4,10.313C19.021,10.165 18.589,10.065 17.955,10.036C17.32,10.007 17.117,10 15.5,10ZM15.5,11.073C17.09,11.073 17.278,11.079 17.906,11.108C18.486,11.134 18.802,11.231 19.011,11.313C19.289,11.421 19.488,11.55 19.696,11.758C19.904,11.966 20.033,12.165 20.141,12.443C20.223,12.652 20.32,12.968 20.346,13.548C20.375,14.176 20.381,14.364 20.381,15.954C20.381,17.544 20.375,17.732 20.346,18.36C20.32,18.94 20.223,19.256 20.141,19.465C20.033,19.743 19.904,19.942 19.696,20.15C19.488,20.358 19.289,20.487 19.011,20.595C18.802,20.677 18.486,20.774 17.906,20.8C17.278,20.829 17.09,20.835 15.5,20.835C13.91,20.835 13.722,20.829 13.094,20.8C12.514,20.774 12.198,20.677 11.989,20.595C11.711,20.487 11.512,20.358 11.304,20.15C11.096,19.942 10.967,19.743 10.859,19.465C10.777,19.256 10.68,18.94 10.653,18.36C10.625,17.732 10.619,17.544 10.619,15.954C10.619,14.364 10.625,14.176 10.653,13.548C10.68,12.968 10.777,12.652 10.859,12.443C10.967,12.165 11.096,11.966 11.304,11.758C11.512,11.55 11.711,11.421 11.989,11.313C12.198,11.231 12.514,11.134 13.094,11.108C13.722,11.079 13.91,11.073 15.5,11.073Z" style="fill:white;fill-rule:nonzero;"/>
        <path d="M15.5,17.939C14.404,17.939 13.515,17.05 13.515,15.954C13.515,14.858 14.404,13.969 15.5,13.969C16.596,13.969 17.485,14.858 17.485,15.954C17.485,17.05 16.596,17.939 15.5,17.939ZM15.5,12.897C13.811,12.897 12.443,14.265 12.443,15.954C12.443,17.643 13.811,19.011 15.5,19.011C17.189,19.011 18.557,17.643 18.557,15.954C18.557,14.265 17.189,12.897 15.5,12.897Z" style="fill:white;fill-rule:nonzero;"/>
        <path d="M19.393,12.776C19.393,13.17 19.073,13.49 18.678,13.49C18.284,13.49 17.964,13.17 17.964,12.776C17.964,12.381 18.284,12.061 18.678,12.061C19.073,12.061 19.393,12.381 19.393,12.776Z" style="fill:white;fill-rule:nonzero;"/>
    </g>
</svg>
