<?xml version="1.0" encoding="UTF-8" standalone="no"?>
<!DOCTYPE svg PUBLIC "-//W3C//DTD SVG 1.1//EN" "http://www.w3.org/Graphics/SVG/1.1/DTD/svg11.dtd">
<svg width="100%" height="100%" viewBox="0 0 30 30" version="1.1" xmlns="http://www.w3.org/2000/svg" xmlns:xlink="http://www.w3.org/1999/xlink" xml:space="preserve" xmlns:serif="http://www.serif.com/" style="fill-rule:evenodd;clip-rule:evenodd;stroke-linejoin:round;stroke-miterlimit:1.41421;">
    <g id="a" transform="matrix(1.11867,0,0,1.11867,4.37267,3.86484)">
        <path d="M3.779,6.43L3.779,13.059C3.82,13.298 3.744,13.543 3.576,13.717L2,15.628L2,15.88L6.468,15.88L6.468,15.628L4.892,13.718C4.722,13.544 4.642,13.3 4.675,13.059L4.675,7.325L8.597,15.88L9.052,15.88L12.42,7.325L12.42,14.145C12.42,14.326 12.42,14.361 12.301,14.48L11.09,15.656L11.09,15.908L16.972,15.908L16.972,15.656L15.802,14.508C15.699,14.429 15.648,14.3 15.669,14.172L15.669,5.736C15.648,5.608 15.699,5.479 15.802,5.4L17,4.252L17,4L12.854,4L9.9,11.372L6.538,4L2.189,4L2.189,4.252L3.589,5.939C3.727,6.063 3.797,6.245 3.779,6.429" style="fill:white;"/>
    </g>
</svg>
