<svg height="80" viewBox="0 0 80 80" width="80" xmlns="http://www.w3.org/2000/svg" xmlns:xlink="http://www.w3.org/1999/xlink"><mask id="a" fill="#fff"><path d="m.154.777h5.871v5.872h-5.87z" fill="#fff" fill-rule="evenodd"/></mask><g fill="none" fill-rule="evenodd"><g fill="#38d2de"><path d="m35.333 12.16a1.532 1.532 0 1 1 -3.065.002 1.532 1.532 0 0 1 3.065-.001"/><path d="m6.025 3.713a2.935 2.935 0 1 1 -5.87 0 2.935 2.935 0 0 1 5.87 0" mask="url(#a)" transform="translate(14 1.223)"/><path d="m10.8 22.761a2.237 2.237 0 1 1 -4.474 0 2.237 2.237 0 0 1 4.474 0m45.365-16.619a1.905 1.905 0 1 1 -3.81 0 1.905 1.905 0 0 1 3.81 0"/></g><path d="m65.28 54.027-21.396 21.396a1.685 1.685 0 0 1 -2.384 0l-35.7-35.701a1.685 1.685 0 0 1 0-2.384l21.395-21.396a1.686 1.686 0 0 1 2.385 0l35.7 35.7a1.686 1.686 0 0 1 0 2.385" fill="#fff"/><path d="m50.986 68.322-5.157 5.156-38.085-38.085 5.156-5.157z" fill="#38d2de"/><path d="m54.43 58.2-2.628 2.629-25.682-25.682 2.629-2.63z" fill="#f2f2f2"/><path d="m37.901 69.957-1.867 1.867-31.144-31.144a3.042 3.042 0 0 1 0-4.3l21.347-21.347a3.041 3.041 0 0 1 4.301 0l7.074 7.074-1.867 1.867-7.074-7.074a.401.401 0 0 0 -.567 0l-21.346 21.346a.402.402 0 0 0 0 .567l31.142 31.144z" fill="#454bd8" fill-rule="nonzero"/><path d="m40.96 72.487v-55.711a3.415 3.415 0 0 1 3.415-3.415h26.081a3.414 3.414 0 0 1 3.415 3.415v55.711a3.415 3.415 0 0 1 -3.415 3.416h-26.081a3.415 3.415 0 0 1 -3.415-3.416" fill="#f2f2f2"/><path d="m42.28 72.487c0 1.158.938 2.096 2.095 2.096h26.081a2.095 2.095 0 0 0 2.095-2.096v-55.711a2.094 2.094 0 0 0 -2.095-2.095h-26.081a2.095 2.095 0 0 0 -2.095 2.095zm-2.64 0v-55.711a4.735 4.735 0 0 1 4.735-4.735h26.081a4.734 4.734 0 0 1 4.735 4.735v55.711a4.735 4.735 0 0 1 -4.735 4.736h-26.081a4.735 4.735 0 0 1 -4.735-4.736z" fill="#454bd8" fill-rule="nonzero"/><path d="m46.487 44.525c.122-6.118 5.182-10.979 11.3-10.857s10.978 5.18 10.857 11.298c-.123 6.12-5.18 10.98-11.3 10.858-6.118-.122-10.978-5.18-10.857-11.299" fill="#fff"/><path d="m57.37 54.504c5.39.108 9.846-4.174 9.955-9.564.106-5.39-4.175-9.845-9.564-9.952-5.39-.108-9.846 4.174-9.954 9.563-.106 5.39 4.175 9.846 9.564 9.953zm-12.201-10.004c.136-6.847 5.799-12.287 12.646-12.15 6.846.136 12.286 5.796 12.15 12.644-.138 6.848-5.798 12.287-12.646 12.15-6.846-.136-12.286-5.797-12.15-12.644z" fill="#454bd8" fill-rule="nonzero"/><path d="m54.894 61.973a2.987 2.987 0 1 1 5.971.12 2.987 2.987 0 0 1 -5.971-.12m0-35.242a2.986 2.986 0 1 1 5.97.119 2.986 2.986 0 0 1 -5.97-.119" fill="#fff"/><g fill="#454bd8" fill-rule="nonzero"><path d="m63.082 49.183h-2.64v-5.486a.778.778 0 1 0 -1.555 0v2.258a3.419 3.419 0 1 1 -6.837 0v-5.647h2.64v5.647a.778.778 0 1 0 1.557 0v-2.258a3.417 3.417 0 1 1 6.835 0z"/><path d="m65.23 43.426v2.64h-15.327v-2.64zm-17.66-13.661h-2.64v-5.632a1.86 1.86 0 0 1 1.719-1.848 4.628 4.628 0 0 0 4.21-4.222c.076-.947.845-1.708 1.825-1.708h9.764c.98 0 1.749.761 1.825 1.705a4.628 4.628 0 0 0 4.24 4.228c.938.068 1.69.834 1.69 1.797v4.777h-2.64v-4.04a7.276 7.276 0 0 1 -5.826-5.827h-8.342a7.274 7.274 0 0 1 -5.826 5.827v4.943zm19.993 30.111h2.64v4.777c0 .964-.75 1.726-1.684 1.798a4.628 4.628 0 0 0 -4.246 4.225c-.076.947-.844 1.707-1.825 1.707h-9.764c-.98 0-1.749-.76-1.824-1.704a4.63 4.63 0 0 0 -4.21-4.225c-.957-.08-1.72-.86-1.72-1.848v-5.633h2.64v4.943a7.275 7.275 0 0 1 5.825 5.827h8.342a7.274 7.274 0 0 1 5.826-5.826v-4.04z"/></g></g></svg>