<svg height="80" viewBox="0 0 80 80" width="80" xmlns="http://www.w3.org/2000/svg"><g fill="none" fill-rule="evenodd"><path d="m11.624 3.817h2.64v8.84h-2.64zm3.738 3.579h2.64v8.839h-2.64z" fill="#454bd8" fill-rule="nonzero"/><path d="m33.237 66.324h-7.011l-7.041 7.61h7.01z" fill="#38d2de"/><path d="m36.256 65.004-2.05 2.216-6.987 7.55c-.282.313-.68.484-1.09.484h-6.597c-1.286 0-1.949-1.526-1.08-2.472l7.197-7.778zm-9.453 2.64-4.599 4.97h3.414l4.599-4.97z" fill="#454bd8" fill-rule="nonzero"/><path d="m64.961 73.934h-7.01l-7.042-7.61h7.011z" fill="#38d2de"/><path d="m57.344 67.644h-3.414l4.599 4.97h3.413zm1.542 5.356a1.18 1.18 0 0 0 -.02-.02zm5.729 2.254h-6.597c-.414 0-.812-.175-1.08-.472l-9.048-9.778h10.608l.392.424 6.808 7.358c.865.942.202 2.468-1.083 2.468z" fill="#454bd8" fill-rule="nonzero"/><path d="m73.735 44c0 16.531-13.402 29.934-29.935 29.934-16.532 0-29.934-13.403-29.934-29.935s13.402-29.935 29.934-29.935c16.533 0 29.935 13.403 29.935 29.935" fill="#fff"/><path d="m64.716 44c0 11.551-9.364 20.916-20.916 20.916s-20.917-9.365-20.917-20.916c0-11.552 9.365-20.917 20.917-20.917s20.916 9.365 20.916 20.917" fill="#38d2de"/><path d="m57.157 44c0 7.376-5.98 13.355-13.356 13.355-7.377 0-13.358-5.979-13.358-13.356s5.98-13.356 13.358-13.356c7.376 0 13.356 5.98 13.356 13.356" fill="#fff"/><path d="m49.4 44a5.6 5.6 0 1 1 -11.2 0 5.6 5.6 0 0 1 11.2 0" fill="#38d2de"/><g fill="#454bd8" fill-rule="nonzero"><path d="m33.126 27.567-1.586-2.11c3.598-2.704 7.047-3.695 12.26-3.695 12.28 0 22.236 9.957 22.236 22.237 0 12.281-9.955 22.237-22.236 22.237-12.28 0-22.237-9.956-22.237-22.237 0-4.25 1.196-8.328 3.415-11.845l2.233 1.408a19.497 19.497 0 0 0 -3.008 10.438c0 10.823 8.774 19.597 19.597 19.597s19.596-8.774 19.596-19.597c0-10.822-8.773-19.597-19.596-19.597-4.675 0-7.568.832-10.674 3.165z"/><path d="m43.8 39.719v-2.64a6.92 6.92 0 1 1 0 13.84 6.92 6.92 0 0 1 -6.922-6.919h2.64a4.28 4.28 0 0 0 4.282 4.28 4.28 4.28 0 1 0 0-8.56zm-25.063-9.538-2.31-1.277a31.335 31.335 0 0 1 2.96-4.422l2.06 1.65a28.695 28.695 0 0 0 -2.71 4.05zm-3.411 10.969-2.628-.26a31.084 31.084 0 0 1 2.04-8.413l2.454.973a28.444 28.444 0 0 0 -1.866 7.7z"/><path d="m27.347 20.585-1.52-2.159a31.112 31.112 0 0 1 17.973-5.68c17.261 0 31.254 13.992 31.254 31.253s-13.993 31.255-31.254 31.255c-17.26 0-31.255-13.994-31.255-31.254h2.64c0 15.803 12.812 28.615 28.615 28.615s28.614-12.812 28.614-28.615-12.81-28.614-28.614-28.614a28.473 28.473 0 0 0 -16.453 5.2z"/><path d="m9.41 11.157 1.866-1.866 34.104 34.103-1.866 1.866z"/><path d="m19.1 11.596h2.64v8.84h-2.64z"/><path d="m20.49 19.136v2.64h-8.84v-2.64zm-3.826-3.613v2.64h-8.839v-2.64zm-3.824-3.613v2.64h-8.84v-2.64z"/></g><path d="m58.556 6.228a1.4 1.4 0 1 1 -2.798 0 1.4 1.4 0 0 1 2.798 0m16.166 14.228a.849.849 0 1 1 -1.698 0 .849.849 0 0 1 1.698 0m-65.333 4.851a1.563 1.563 0 1 1 -3.127 0 1.563 1.563 0 0 1 3.127 0m59.547-15.427a1.987 1.987 0 1 1 -3.974 0 1.987 1.987 0 0 1 3.974 0m-44.334-5.16a1.72 1.72 0 1 1 -3.44-.002 1.72 1.72 0 0 1 3.44.001m10.893 3.118a2.26 2.26 0 1 1 -4.52-.001 2.26 2.26 0 0 1 4.52.001" fill="#38d2de"/></g></svg>