<svg height="80" viewBox="0 0 80 80" width="80" xmlns="http://www.w3.org/2000/svg" xmlns:xlink="http://www.w3.org/1999/xlink"><mask id="a" fill="#fff"><path d="m.246.974h5.328v5.33h-5.328z" fill="#fff" fill-rule="evenodd"/></mask><mask id="b" fill="#fff"><path d="m.957.695h3.77v3.77h-3.769z" fill="#fff" fill-rule="evenodd"/></mask><g fill="none" fill-rule="evenodd"><g fill="#38d2de"><path d="m71.218 16.35a1.104 1.104 0 1 1 -2.208 0 1.104 1.104 0 0 1 2.208 0m-56.794.266a1.104 1.104 0 1 1 -2.207.001 1.104 1.104 0 0 1 2.207 0m49.143-12.575a1.45 1.45 0 1 1 -2.9 0 1.45 1.45 0 0 1 2.9 0m-58.667 2.411a1.449 1.449 0 1 1 -2.898 0 1.449 1.449 0 0 1 2.898 0"/><path d="m5.575 3.64a2.664 2.664 0 1 1 -5.328 0 2.664 2.664 0 0 1 5.328 0" mask="url(#a)" transform="translate(73 1.305)"/><path d="m4.728 2.58a1.886 1.886 0 1 1 -3.772-.002 1.886 1.886 0 0 1 3.772.002" mask="url(#b)" transform="translate(19 .305)"/></g><path d="m40.528 16.58c-13.96.277-25.051 11.82-24.772 25.78.278 13.958 11.82 25.05 25.78 24.772 13.959-.279 25.05-11.822 24.772-25.78-.278-13.96-11.821-25.05-25.78-24.773" fill="#f2f2f2"/><path d="m67.236 37.26-2.6.453c-2.016-11.57-12.218-20.05-24.082-19.814-2.01.04-3.983.327-5.884.848l-.698-2.545c2.111-.58 4.3-.898 6.53-.942 13.17-.263 24.496 9.151 26.734 22zm-48.252-10.291 2.187 1.479a23.835 23.835 0 0 0 -3.876 10.103l-2.615-.361a26.475 26.475 0 0 1 4.304-11.221zm11.008-9.323 1.097 2.402a24.008 24.008 0 0 0 -7.137 5.002l-1.881-1.852a26.648 26.648 0 0 1 7.921-5.552zm17.598 13.17v2.64h-8.108a1.78 1.78 0 0 0 0 3.559h3.337a4.421 4.421 0 0 1 0 8.84h-8.345v-2.64h8.345a1.78 1.78 0 1 0 0-3.56h-3.337a4.42 4.42 0 1 1 0-8.84h8.107z" fill="#454bd8" fill-rule="nonzero"/><path d="m39.712 27.009h2.64v22.653h-2.64z" fill="#454bd8" fill-rule="nonzero"/><path d="m52.357 42.094c0 6.26-5.06 11.318-11.303 11.318a11.31 11.31 0 0 1 -11.316-11.318l-22.575.264v1.67c-.011 1.962 1.579 3.565 3.548 3.582l5.5.017a25.16 25.16 0 0 0 3.279 7.94l-3.921 3.908a3.558 3.558 0 0 0 -.008 5.03l2.896 2.922a3.558 3.558 0 0 0 5.046.022l3.912-3.88a25.411 25.411 0 0 0 7.944 3.324l-.023 5.5a3.56 3.56 0 0 0 3.553 3.576l4.125.017c1.969 0 3.57-1.581 3.57-3.544l.017-5.516a25.525 25.525 0 0 0 7.954-3.284l3.89 3.918c1.385 1.388 3.649 1.388 5.055 0l2.908-2.91a3.538 3.538 0 0 0 .002-5.032l-3.868-3.912a25.4 25.4 0 0 0 3.303-7.948l5.506.018a3.571 3.571 0 0 0 3.57-3.56v-2.332z" fill="#fff"/><path d="m15.176 48.944-4.477-.014c-2.695-.023-4.871-2.22-4.856-4.901v-2.976l25.215-.295v1.336a9.99 9.99 0 0 0 9.996 9.998c5.517 0 9.983-4.47 9.983-9.998v-1.308l25.204-.234v3.668a4.892 4.892 0 0 1 -4.895 4.875l-4.47-.015a26.69 26.69 0 0 1 -2.673 6.427l3.133 3.17a4.856 4.856 0 0 1 .006 6.905l-2.915 2.916c-1.921 1.897-5.017 1.897-6.919-.01l-3.161-3.183a26.838 26.838 0 0 1 -6.43 2.655l-.012 4.48c0 2.693-2.193 4.865-4.897 4.865l-4.12-.017a4.881 4.881 0 0 1 -4.872-4.902l.018-4.465a26.703 26.703 0 0 1 -6.422-2.69l-3.176 3.15a4.878 4.878 0 0 1 -6.917-.026l-2.895-2.92c-1.9-1.914-1.894-5.004.013-6.896l3.187-3.176a26.464 26.464 0 0 1 -2.648-6.42zm25.878 5.788c-6.533 0-11.901-4.946-12.567-11.303l-20.004.234v.373a2.251 2.251 0 0 0 2.232 2.254l6.552.02.231 1.026a23.84 23.84 0 0 0 3.107 7.526l.566.894-.75.747-3.923 3.909a2.238 2.238 0 0 0 0 3.165l2.896 2.92c.88.888 2.3.892 3.18.015l4.658-4.621.889.563a24.085 24.085 0 0 0 7.532 3.152l1.03.235-.004 1.057-.023 5.5a2.242 2.242 0 0 0 2.238 2.25l4.12.018a2.237 2.237 0 0 0 2.25-2.228l.02-6.569 1.027-.23a24.203 24.203 0 0 0 7.543-3.115l.894-.561.744.749 3.887 3.916c.87.872 2.303.872 3.187-.001l2.913-2.915c.879-.87.88-2.29-.008-3.166l-4.605-4.657.559-.887a24.076 24.076 0 0 0 3.132-7.535l.234-1.033 1.058.004 5.502.018a2.25 2.25 0 0 0 2.25-2.24v-1l-19.99.186c-.654 6.37-6.022 11.33-12.557 11.33zm-2.001-45.764h2.64v3.595h-2.64zm13.068-3.319 2.48.904-2.917 8.008-2.48-.904zm8.985 9.248 2.021 1.698-2.74 3.262-2.022-1.698zm11.71 6.377 1.317 2.288-7.386 4.252-1.317-2.288zm.948 12.857.454 2.601-4.216.736-.454-2.6zm-66.107 3.625.491-2.594 4.192.793-.49 2.594zm-.258-13.3 1.334-2.278 7.354 4.306-1.334 2.278zm10.861-6.998 2.034-1.683 2.564 3.097-2.033 1.683zm8.221-10.562 2.487-.885 2.858 8.028-2.487.885z" fill="#454bd8" fill-rule="nonzero"/></g></svg>