<svg height="528" viewBox="0 0 280 528" width="280" xmlns="http://www.w3.org/2000/svg"><g fill="#454bdb" fill-rule="evenodd" transform="translate(0 -1)"><path d="m57.6504 523.5613c-29.255 0-53.056-23.801-53.056-53.057 0-29.255 23.801-53.055 53.056-53.055h121.08c28.152 0 51.056-22.905 51.056-51.057s-22.904-51.056-51.056-51.056h-119.793c-29.255 0-53.056-23.8-53.056-53.056 0-29.255 23.801-53.056 53.056-53.056h120.887c28.152 0 51.056-22.904 51.056-51.057 0-28.152-22.904-51.055-51.056-51.055h-121.048c-29.255 0-53.056-23.801-53.056-53.057 0-29.255 23.801-53.056 53.056-53.056h40.674c.553 0 1 .448 1 1 0 .553-.447 1-1 1h-40.674c-28.152 0-51.056 22.904-51.056 51.056s22.904 51.057 51.056 51.057h121.048c29.256 0 53.056 23.801 53.056 53.055 0 29.256-23.8 53.057-53.056 53.057h-120.887c-28.152 0-51.056 22.903-51.056 51.056 0 28.152 22.904 51.056 51.056 51.056h119.793c29.255 0 53.056 23.801 53.056 53.056 0 29.256-23.801 53.057-53.056 53.057h-121.08c-28.152 0-51.056 22.903-51.056 51.055 0 28.153 22.904 51.057 51.056 51.057h221.168c.553 0 1 .447 1 1s-.447 1-1 1z"/><path d="m6.5947 57.1267c-.256 0-.512-.098-.707-.293l-4.594-4.594c-.39-.39-.39-1.023 0-1.414.391-.39 1.024-.39 1.414 0l3.887 3.887 3.887-3.887c.39-.39 1.023-.39 1.414 0 .39.391.39 1.024 0 1.414l-4.594 4.594c-.195.195-.451.293-.707.293"/><path d="m6.8896 266.3161c-.256 0-.512-.098-.707-.293l-4.594-4.594c-.39-.39-.39-1.023 0-1.414.391-.39 1.024-.39 1.414 0l3.887 3.887 3.887-3.887c.39-.39 1.023-.39 1.414 0 .39.391.39 1.024 0 1.414l-4.594 4.594c-.195.195-.451.293-.707.293"/><path d="m5.5947 475.5056c-.256 0-.512-.098-.707-.293l-4.595-4.594c-.39-.39-.39-1.023 0-1.414.391-.39 1.024-.39 1.414 0l3.888 3.887 3.887-3.887c.39-.39 1.023-.39 1.414 0 .39.391.39 1.024 0 1.414l-4.594 4.594c-.195.195-.451.293-.707.293"/><path d="m231.9824 159.7595c-.256 0-.512-.098-.707-.293l-4.594-4.594c-.39-.39-.39-1.023 0-1.414.391-.39 1.024-.39 1.414 0l3.887 3.887 3.888-3.887c.39-.39 1.023-.39 1.414 0 .39.391.39 1.024 0 1.414l-4.595 4.594c-.195.195-.451.293-.707.293"/><path d="m230.8643 370.5857c-.256 0-.512-.098-.707-.293l-4.594-4.594c-.39-.39-.39-1.023 0-1.414.391-.39 1.024-.39 1.414 0l3.887 3.887 3.888-3.887c.39-.39 1.023-.39 1.414 0 .39.391.39 1.024 0 1.414l-4.595 4.594c-.195.195-.451.293-.707.293"/><path d="m84.5449 111.9821c-.256 0-.512-.098-.707-.293-.391-.391-.391-1.023 0-1.414l3.888-3.887-3.888-3.887c-.391-.391-.391-1.024 0-1.415.391-.39 1.023-.39 1.414 0l4.595 4.595c.187.188.293.442.293.707 0 .266-.106.52-.293.707l-4.595 4.594c-.195.195-.451.293-.707.293"/><path d="m84.5449 320.0212c-.256 0-.512-.098-.707-.293-.391-.391-.391-1.023 0-1.414l3.888-3.887-3.888-3.886c-.391-.391-.391-1.024 0-1.415.391-.39 1.023-.39 1.414 0l4.595 4.594c.187.188.293.442.293.707 0 .266-.106.52-.293.707l-4.595 4.594c-.195.195-.451.293-.707.293"/><path d="m84.5449 528.155c-.256 0-.512-.098-.707-.293-.391-.391-.391-1.023 0-1.414l3.888-3.887-3.888-3.887c-.391-.391-.391-1.024 0-1.415.391-.39 1.023-.39 1.414 0l4.595 4.595c.187.188.293.442.293.707 0 .266-.106.52-.293.707l-4.595 4.594c-.195.195-.451.293-.707.293"/><path d="m158.6211 215.9812c-.256 0-.512-.098-.707-.293l-4.594-4.594c-.39-.39-.39-1.023 0-1.414l4.594-4.594c.391-.39 1.023-.39 1.414 0 .391.391.391 1.024 0 1.415l-3.887 3.886 3.887 3.887c.391.391.391 1.023 0 1.414-.195.195-.451.293-.707.293"/><path d="m158.6211 424.0349c-.256 0-.512-.098-.707-.293l-4.594-4.594c-.39-.39-.39-1.023 0-1.414l4.594-4.594c.391-.39 1.023-.39 1.414 0 .391.391.391 1.024 0 1.415l-3.887 3.886 3.887 3.887c.391.391.391 1.023 0 1.414-.195.195-.451.293-.707.293"/></g></svg>