<svg height="34" viewBox="0 0 40 34" width="40" xmlns="http://www.w3.org/2000/svg" xmlns:xlink="http://www.w3.org/1999/xlink"><defs><path id="a" d="m1.92262564.3301656c-.44367525-.42434237-1.14426355-.41550453-1.5771474.01989554s-.43939272 1.13776953-.0146526 1.58115709l17.95394996 18.06736847-17.95499996 18.0631579c-.3213793.3238027-.41799413.809108-.24522345 1.2317802.17277068.4226721.58130497.7004573 1.03692345.7050619.29834189.0010753.58423296-.1198017.7917-.3347369l18.75299996-18.8705263c.4401978-.4380559.4444218-1.1504128.00945-1.5936842z"/><path id="b" d="m1.92262564.3301656c-.44367525-.42434237-1.14426355-.41550453-1.5771474.01989554s-.43939272 1.13776953-.0146526 1.58115709l17.95394996 18.06736847-17.95499996 18.0631579c-.3213793.3238027-.41799413.809108-.24522345 1.2317802.17277068.4226721.58130497.7004573 1.03692345.7050619.29834189.0010753.58423296-.1198017.7917-.3347369l18.75299996-18.8705263c.4401978-.4380559.4444218-1.1504128.00945-1.5936842z"/><mask id="c" fill="#fff"><use fill="#fff" fill-rule="evenodd" xlink:href="#a"/></mask><mask id="d" fill="#fff"><use fill="#fff" fill-rule="evenodd" xlink:href="#b"/></mask></defs><g fill="none" fill-rule="evenodd" opacity=".8"><g transform="matrix(0 1 -1 0 40.1875 12.848684)"><use fill="#e2e2e2" xlink:href="#a"/><g fill="#454bd8" fill-opacity=".9" mask="url(#c)"><path d="m0 0h21v40h-21z"/></g></g><g transform="matrix(0 1 -1 0 40.1875 .098684)"><use fill="#e2e2e2" xlink:href="#b"/><g fill="#454bd8" fill-opacity=".9" mask="url(#d)"><path d="m0 0h21v40h-21z"/></g></g></g></svg>